<svg id="kity_svg_6" xmlns="http://www.w3.org/2000/svg" xmlns:xlink="http://www.w3.org/1999/xlink" version="1.1" width="612" height="326" style="background: rgb(251, 251, 251); visibility: visible;" viewBox="0 0 612 326"><defs id="kity_defs_7"><linearGradient id="kity_linearGradient_17" x1="0" y1="0" x2="0" y2="1"><stop id="kity_stop_18" offset="0" stop-color="rgb(255, 255, 255)"></stop><stop id="kity_stop_19" offset="1" stop-color="rgb(204, 204, 204)"></stop></linearGradient><marker id="kity_marker_2" orient="auto" refX="6" refY="0" viewBox="-7 -7 14 14" markerWidth="7" markerHeight="7" markerUnits="userSpaceOnUse"><path id="kity_path_3" fill="rgb(115, 191, 118)" stroke="none" d="M6,0A6,6,0,1,1,-6,0A6,6,0,1,1,6,0"></path></marker></defs><g id="kity_g_8"><g id="minder1" text-rendering="optimize-speed"><g id="minder_connect_group1"><path id="kity_path_31" fill="none" stroke="rgb(115, 191, 118)" stroke-width="1" d="M265.5,139.5A118,84,0,0,0,147.5,55.5"></path><path id="kity_path_33" fill="none" stroke="rgb(115, 191, 118)" stroke-width="1" d="M265.5,139.5A117,26,0,0,0,148.5,113.5"></path><path id="kity_path_35" fill="none" stroke="rgb(115, 191, 118)" stroke-width="1" d="M265.5,139.5A116,32,0,0,1,149.5,171.5"></path><path id="kity_path_37" fill="none" stroke="rgb(115, 191, 118)" stroke-width="1" d="M265.5,139.5A114,82,0,0,1,151.5,221.5"></path><path id="kity_path_39" fill="none" stroke="rgb(115, 191, 118)" stroke-width="1" d="M265.5,139.5A117,130,0,0,1,148.5,269.5"></path><path id="kity_path_41" fill="none" stroke="rgb(115, 191, 118)" stroke-width="1" d="M265.5,139.5A117,97,0,0,1,382.5,42.5"></path><path id="kity_path_43" fill="none" stroke="rgb(115, 191, 118)" stroke-width="1" d="M482.5,42.5C485.5,42.5,485.5,41.5,488.5,41.5L558.5,41.5"></path><path id="kity_path_45" fill="none" stroke="rgb(115, 191, 118)" stroke-width="1" d="M482.5,42.5C485.5,42.5,485.5,67.5,488.5,67.5L569.5,67.5"></path><path id="kity_path_47" fill="none" stroke="rgb(115, 191, 118)" stroke-width="1" d="M265.5,139.5A116,14,0,0,0,381.5,153.5"></path><path id="kity_path_49" fill="none" stroke="rgb(115, 191, 118)" stroke-width="1" d="M481.5,153.5C484.5,153.5,484.5,113.5,487.5,113.5L557.5,113.5"></path><path id="kity_path_51" fill="none" stroke="rgb(115, 191, 118)" stroke-width="1" d="M481.5,153.5C484.5,153.5,484.5,139.5,487.5,139.5L581.5,139.5"></path><path id="kity_path_53" fill="none" stroke="rgb(115, 191, 118)" stroke-width="1" d="M481.5,153.5C484.5,153.5,484.5,165.5,487.5,165.5L592.5,165.5"></path><path id="kity_path_55" fill="none" stroke="rgb(115, 191, 118)" stroke-width="1" d="M481.5,153.5C484.5,153.5,484.5,191.5,487.5,191.5L581.5,191.5"></path><path id="kity_path_57" fill="none" stroke="rgb(115, 191, 118)" stroke-width="1" d="M481.5,153.5C484.5,153.5,484.5,217.5,487.5,217.5L581.5,217.5"></path><path id="kity_path_59" fill="none" stroke="rgb(115, 191, 118)" stroke-width="1" d="M265.5,139.5A122,129,0,0,0,387.5,268.5"></path><path id="kity_path_61" fill="none" stroke="rgb(115, 191, 118)" stroke-width="1" d="M515.5,268.5C518.5,268.5,518.5,254.5,521.5,254.5L591.5,254.5"></path><path id="kity_path_63" fill="none" stroke="rgb(115, 191, 118)" stroke-width="1" d="M515.5,268.5C518.5,268.5,518.5,280.5,521.5,280.5L590.5,280.5"></path><path id="kity_path_65" fill="none" stroke="rgb(115, 191, 118)" stroke-width="1" d="M515.5,268.5C518.5,268.5,518.5,306.5,521.5,306.5L591.5,306.5"></path></g><g id="minder_node1"><path id="node_outline1" fill="rgb(115, 191, 118)" stroke="rgb(57, 96, 58)" d="M179.5,125.5h172a5,5,0,0,1,5,5v18a5,5,0,0,1,-5,5h-172a5,5,0,0,1,-5,-5v-18a5,5,0,0,1,5,-5z" stroke-width="3"></path><g id="node_text1" fill="white"><text id="kity_text_22" text-rendering="inherit" font-size="16" dy=".8em" y="129.09999990463257" x="186.5">JavaScript之理解对象</text></g></g><g id="kity_g_12"><path id="kity_path_13" fill="none" stroke="none" d="M186.5,139.5h0v0h0z"></path></g><g id="kity_g_14"><path id="kity_path_15" fill="none" stroke="none" d="M186.5,139.5h0v0h0z"></path><path id="kity_path_16" fill="none" stroke="none"></path></g><g id="minder_node2"><g id="node_expander1" display="none" style="cursor: pointer;"><path id="kity_path_121" fill="white" stroke="gray" d="M19.5,55.5A6,6,0,1,1,7.5,55.5A6,6,0,1,1,19.5,55.5"></path><path id="kity_path_122" fill="none" stroke="gray"></path></g><path id="node_outline2" fill="rgb(238, 246, 238)" stroke="rgb(115, 191, 118)" d="M23.5,42.5h119a3,3,0,0,1,3,3v20a3,3,0,0,1,-3,3h-119a3,3,0,0,1,-3,-3v-20a3,3,0,0,1,3,-3z" stroke-width="1"></path><g id="node_text2" fill="black"><text id="kity_text_67" text-rendering="inherit" font-size="14" dy=".8em" y="46.40000009536743" x="40.5">什么是对象？</text></g></g><g id="minder_node3"><g id="node_expander2" display="none" style="cursor: pointer;"><path id="kity_path_124" fill="white" stroke="gray" d="M47.5,113.5A6,6,0,1,1,35.5,113.5A6,6,0,1,1,47.5,113.5"></path><path id="kity_path_125" fill="none" stroke="gray"></path></g><path id="node_outline3" fill="rgb(238, 246, 238)" stroke="rgb(115, 191, 118)" d="M51.5,100.5h92a3,3,0,0,1,3,3v20a3,3,0,0,1,-3,3h-92a3,3,0,0,1,-3,-3v-20a3,3,0,0,1,3,-3z" stroke-width="1"></path><g id="node_text3" fill="black"><text id="kity_text_69" text-rendering="inherit" font-size="14" dy=".8em" y="104.40000009536743" x="68.5">定义属性</text></g></g><g id="minder_node4"><g id="node_expander3" display="none" style="cursor: pointer;"><path id="kity_path_127" fill="white" stroke="gray" d="M49.5,171.5A6,6,0,1,1,37.5,171.5A6,6,0,1,1,49.5,171.5"></path><path id="kity_path_128" fill="none" stroke="gray"></path></g><path id="node_outline4" fill="rgb(238, 246, 238)" stroke="rgb(115, 191, 118)" d="M53.5,158.5h91a3,3,0,0,1,3,3v20a3,3,0,0,1,-3,3h-91a3,3,0,0,1,-3,-3v-20a3,3,0,0,1,3,-3z" stroke-width="1"></path><g id="node_text4" fill="black"><text id="kity_text_71" text-rendering="inherit" font-size="14" dy=".8em" y="162.40000009536743" x="70.5">属性探测</text></g></g><g id="minder_node5"><g id="node_expander4" display="none" style="cursor: pointer;"><path id="kity_path_130" fill="white" stroke="gray" d="M50.5,221.5A6,6,0,1,1,38.5,221.5A6,6,0,1,1,50.5,221.5"></path><path id="kity_path_131" fill="none" stroke="gray"></path></g><path id="node_outline5" fill="rgb(238, 246, 238)" stroke="rgb(115, 191, 118)" d="M54.5,208.5h92a3,3,0,0,1,3,3v20a3,3,0,0,1,-3,3h-92a3,3,0,0,1,-3,-3v-20a3,3,0,0,1,3,-3z" stroke-width="1"></path><g id="node_text5" fill="black"><text id="kity_text_73" text-rendering="inherit" font-size="14" dy=".8em" y="212.40000009536743" x="71.5">删除属性</text></g></g><g id="minder_node6"><g id="node_expander5" display="none" style="cursor: pointer;"><path id="kity_path_133" fill="white" stroke="gray" d="M159.5,269.5A6,6,0,1,1,147.5,269.5A6,6,0,1,1,159.5,269.5"></path><path id="kity_path_134" fill="none" stroke="gray"></path></g><path id="node_outline6" fill="rgb(238, 246, 238)" stroke="rgb(115, 191, 118)" d="M51.5,256.5h92a3,3,0,0,1,3,3v20a3,3,0,0,1,-3,3h-92a3,3,0,0,1,-3,-3v-20a3,3,0,0,1,3,-3z" stroke-width="1"></path><g id="node_text6" fill="black"><text id="kity_text_75" text-rendering="inherit" font-size="14" dy=".8em" y="260.40000009536743" x="68.5">属性枚举</text></g></g><g id="minder_node7"><g id="node_expander8" style="cursor: pointer;"><path id="kity_path_142" fill="white" stroke="gray" d="M495.5,42.5A6,6,0,1,1,483.5,42.5A6,6,0,1,1,495.5,42.5"></path><path id="kity_path_143" fill="none" stroke="gray" d="M485,42.5L494,42.5"></path></g><path id="node_outline9" fill="rgb(238, 246, 238)" stroke="rgb(115, 191, 118)" d="M387.5,29.5h92a3,3,0,0,1,3,3v20a3,3,0,0,1,-3,3h-92a3,3,0,0,1,-3,-3v-20a3,3,0,0,1,3,-3z" stroke-width="1"></path><g id="node_text9" fill="black"><text id="kity_text_81" text-rendering="inherit" font-size="14" dy=".8em" y="33.40000009536743" x="404.5">属性类型</text></g></g><g id="minder_node8"><g id="node_expander6" display="none" style="cursor: pointer;"><path id="kity_path_136" fill="white" stroke="gray" d="M498.5,29.5A6,6,0,1,1,486.5,29.5A6,6,0,1,1,498.5,29.5"></path><path id="kity_path_137" fill="none" stroke="gray"></path></g><path id="node_outline7" fill="none" stroke="none" d="M503.5,20.5h50a5,5,0,0,1,5,5v8a5,5,0,0,1,-5,5h-50a5,5,0,0,1,-5,-5v-8a5,5,0,0,1,5,-5z"></path><g id="node_text7" fill="black"><text id="kity_text_77" text-rendering="inherit" font-size="12" dy=".8em" y="21.700000047683716" x="503.5">数据属性</text></g></g><g id="minder_node9"><g id="node_expander7" display="none" style="cursor: pointer;"><path id="kity_path_139" fill="white" stroke="gray" d="M498.5,55.5A6,6,0,1,1,486.5,55.5A6,6,0,1,1,498.5,55.5"></path><path id="kity_path_140" fill="none" stroke="gray"></path></g><path id="node_outline8" fill="none" stroke="none" d="M503.5,46.5h61a5,5,0,0,1,5,5v8a5,5,0,0,1,-5,5h-61a5,5,0,0,1,-5,-5v-8a5,5,0,0,1,5,-5z"></path><g id="node_text8" fill="black"><text id="kity_text_79" text-rendering="inherit" font-size="12" dy=".8em" y="47.700000047683716" x="503.5">访问器属性</text></g></g><g id="minder_node10"><g id="node_expander14" style="cursor: pointer;"><path id="kity_path_160" fill="white" stroke="gray" d="M494.5,153.5A6,6,0,1,1,482.5,153.5A6,6,0,1,1,494.5,153.5"></path><path id="kity_path_161" fill="none" stroke="gray" d="M484,153.5L493,153.5"></path></g><path id="node_outline15" fill="rgb(238, 246, 238)" stroke="rgb(115, 191, 118)" d="M386.5,140.5h92a3,3,0,0,1,3,3v20a3,3,0,0,1,-3,3h-92a3,3,0,0,1,-3,-3v-20a3,3,0,0,1,3,-3z" stroke-width="1"></path><g id="node_text15" fill="black"><text id="kity_text_93" text-rendering="inherit" font-size="14" dy=".8em" y="144.40000009536743" x="403.5">属性特征</text></g></g><g id="minder_node11"><g id="node_expander9" display="none" style="cursor: pointer;"><path id="kity_path_145" fill="white" stroke="gray" d="M497.5,101.5A6,6,0,1,1,485.5,101.5A6,6,0,1,1,497.5,101.5"></path><path id="kity_path_146" fill="none" stroke="gray"></path></g><path id="node_outline10" fill="none" stroke="none" d="M502.5,92.5h50a5,5,0,0,1,5,5v8a5,5,0,0,1,-5,5h-50a5,5,0,0,1,-5,-5v-8a5,5,0,0,1,5,-5z"></path><g id="node_text10" fill="black"><text id="kity_text_83" text-rendering="inherit" font-size="12" dy=".8em" y="93.70000004768372" x="502.5">通用特征</text></g></g><g id="minder_node12"><g id="node_expander10" display="none" style="cursor: pointer;"><path id="kity_path_148" fill="white" stroke="gray" d="M497.5,127.5A6,6,0,1,1,485.5,127.5A6,6,0,1,1,497.5,127.5"></path><path id="kity_path_149" fill="none" stroke="gray"></path></g><path id="node_outline11" fill="none" stroke="none" d="M502.5,118.5h74a5,5,0,0,1,5,5v8a5,5,0,0,1,-5,5h-74a5,5,0,0,1,-5,-5v-8a5,5,0,0,1,5,-5z"></path><g id="node_text11" fill="black"><text id="kity_text_85" text-rendering="inherit" font-size="12" dy=".8em" y="119.70000004768372" x="502.5">数据属性特征</text></g></g><g id="minder_node13"><g id="node_expander11" display="none" style="cursor: pointer;"><path id="kity_path_151" fill="white" stroke="gray" d="M497.5,153.5A6,6,0,1,1,485.5,153.5A6,6,0,1,1,497.5,153.5"></path><path id="kity_path_152" fill="none" stroke="gray"></path></g><path id="node_outline12" fill="none" stroke="none" d="M502.5,144.5h85a5,5,0,0,1,5,5v8a5,5,0,0,1,-5,5h-85a5,5,0,0,1,-5,-5v-8a5,5,0,0,1,5,-5z"></path><g id="node_text12" fill="black"><text id="kity_text_87" text-rendering="inherit" font-size="12" dy=".8em" y="145.70000004768372" x="502.5">访问器属性特征</text></g></g><g id="minder_node14"><g id="node_expander12" display="none" style="cursor: pointer;"><path id="kity_path_154" fill="white" stroke="gray" d="M497.5,179.5A6,6,0,1,1,485.5,179.5A6,6,0,1,1,497.5,179.5"></path><path id="kity_path_155" fill="none" stroke="gray"></path></g><path id="node_outline13" fill="none" stroke="none" d="M502.5,170.5h74a5,5,0,0,1,5,5v8a5,5,0,0,1,-5,5h-74a5,5,0,0,1,-5,-5v-8a5,5,0,0,1,5,-5z"></path><g id="node_text13" fill="black"><text id="kity_text_89" text-rendering="inherit" font-size="12" dy=".8em" y="171.70000004768372" x="502.5">定义多重属性</text></g></g><g id="minder_node15"><g id="node_expander13" display="none" style="cursor: pointer;"><path id="kity_path_157" fill="white" stroke="gray" d="M497.5,205.5A6,6,0,1,1,485.5,205.5A6,6,0,1,1,497.5,205.5"></path><path id="kity_path_158" fill="none" stroke="gray"></path></g><path id="node_outline14" fill="none" stroke="none" d="M502.5,196.5h74a5,5,0,0,1,5,5v8a5,5,0,0,1,-5,5h-74a5,5,0,0,1,-5,-5v-8a5,5,0,0,1,5,-5z"></path><g id="node_text14" fill="black"><text id="kity_text_91" text-rendering="inherit" font-size="12" dy=".8em" y="197.70000004768372" x="502.5">获取属性特征</text></g></g><g id="minder_node16"><g id="node_expander18" style="cursor: pointer;"><path id="kity_path_172" fill="white" stroke="gray" d="M528.5,268.5A6,6,0,1,1,516.5,268.5A6,6,0,1,1,528.5,268.5"></path><path id="kity_path_173" fill="none" stroke="gray" d="M518,268.5L527,268.5"></path></g><path id="node_outline19" fill="rgb(238, 246, 238)" stroke="rgb(115, 191, 118)" d="M392.5,255.5h120a3,3,0,0,1,3,3v20a3,3,0,0,1,-3,3h-120a3,3,0,0,1,-3,-3v-20a3,3,0,0,1,3,-3z" stroke-width="1"></path><g id="node_text19" fill="black"><text id="kity_text_101" text-rendering="inherit" font-size="14" dy=".8em" y="259.40000009536743" x="409.5">禁止修改对象</text></g></g><g id="minder_node17"><g id="node_expander15" display="none" style="cursor: pointer;"><path id="kity_path_163" fill="white" stroke="gray" d="M531.5,242.5A6,6,0,1,1,519.5,242.5A6,6,0,1,1,531.5,242.5"></path><path id="kity_path_164" fill="none" stroke="gray"></path></g><path id="node_outline16" fill="none" stroke="none" d="M536.5,233.5h50a5,5,0,0,1,5,5v8a5,5,0,0,1,-5,5h-50a5,5,0,0,1,-5,-5v-8a5,5,0,0,1,5,-5z"></path><g id="node_text16" fill="black"><text id="kity_text_95" text-rendering="inherit" font-size="12" dy=".8em" y="234.70000004768372" x="536.5">禁止扩展</text></g></g><g id="minder_node18"><g id="node_expander16" display="none" style="cursor: pointer;"><path id="kity_path_166" fill="white" stroke="gray" d="M531.5,268.5A6,6,0,1,1,519.5,268.5A6,6,0,1,1,531.5,268.5"></path><path id="kity_path_167" fill="none" stroke="gray"></path></g><path id="node_outline17" fill="none" stroke="none" d="M536.5,259.5h49a5,5,0,0,1,5,5v8a5,5,0,0,1,-5,5h-49a5,5,0,0,1,-5,-5v-8a5,5,0,0,1,5,-5z"></path><g id="node_text17" fill="black"><text id="kity_text_97" text-rendering="inherit" font-size="12" dy=".8em" y="260.7000000476837" x="536.5">对象封印</text></g></g><g id="minder_node19"><g id="node_expander17" display="none" style="cursor: pointer;"><path id="kity_path_169" fill="white" stroke="gray" d="M531.5,294.5A6,6,0,1,1,519.5,294.5A6,6,0,1,1,531.5,294.5"></path><path id="kity_path_170" fill="none" stroke="gray"></path></g><path id="node_outline18" fill="none" stroke="none" d="M536.5,285.5h50a5,5,0,0,1,5,5v8a5,5,0,0,1,-5,5h-50a5,5,0,0,1,-5,-5v-8a5,5,0,0,1,5,-5z"></path><g id="node_text18" fill="black"><text id="kity_text_99" text-rendering="inherit" font-size="12" dy=".8em" y="286.7000000476837" x="536.5">对象冻结</text></g></g></g></g></svg>