<svg id="kity_svg_6" xmlns="http://www.w3.org/2000/svg" xmlns:xlink="http://www.w3.org/1999/xlink" version="1.1" width="821" height="364" style="background: rgb(251, 251, 251); visibility: visible;" viewBox="0 0 821 364"><defs id="kity_defs_7"><linearGradient id="kity_linearGradient_17" x1="0" y1="0" x2="0" y2="1"><stop id="kity_stop_18" offset="0" stop-color="rgb(255, 255, 255)"></stop><stop id="kity_stop_19" offset="1" stop-color="rgb(204, 204, 204)"></stop></linearGradient><marker id="kity_marker_2" orient="auto" refX="6" refY="0" viewBox="-7 -7 14 14" markerWidth="7" markerHeight="7" markerUnits="userSpaceOnUse"><path id="kity_path_3" fill="rgb(115, 161, 191)" stroke="none" d="M6,0A6,6,0,1,1,-6,0A6,6,0,1,1,6,0"></path></marker></defs><g id="kity_g_8"><g id="minder1" text-rendering="optimize-speed"><g id="minder_connect_group1"><path id="kity_path_31" fill="none" stroke="rgb(115, 161, 191)" stroke-width="1" d="M356,173.5A121.5,104,0,0,1,477.5,69.5"></path><path id="kity_path_33" fill="none" stroke="rgb(115, 161, 191)" stroke-width="1" d="M356,173.5A122.5,35,0,0,1,478.5,138.5"></path><path id="kity_path_35" fill="none" stroke="rgb(115, 161, 191)" stroke-width="1" d="M606.5,138.5C609.5,138.5,609.5,85.5,612.5,85.5L689.5,85.5"></path><path id="kity_path_37" fill="none" stroke="rgb(115, 161, 191)" stroke-width="1" d="M606.5,138.5C609.5,138.5,609.5,111.5,612.5,111.5L801.5,111.5"></path><path id="kity_path_39" fill="none" stroke="rgb(115, 161, 191)" stroke-width="1" d="M606.5,138.5C609.5,138.5,609.5,137.5,612.5,137.5L705.5,137.5"></path><path id="kity_path_41" fill="none" stroke="rgb(115, 161, 191)" stroke-width="1" d="M606.5,138.5C609.5,138.5,609.5,163.5,612.5,163.5L676.5,163.5"></path><path id="kity_path_43" fill="none" stroke="rgb(115, 161, 191)" stroke-width="1" d="M606.5,138.5C609.5,138.5,609.5,189.5,612.5,189.5L720.5,189.5"></path><path id="kity_path_45" fill="none" stroke="rgb(115, 161, 191)" stroke-width="1" d="M606.5,138.5C609.5,138.5,609.5,215.5,612.5,215.5L771.5,215.5"></path><path id="kity_path_47" fill="none" stroke="rgb(115, 161, 191)" stroke-width="1" d="M356,173.5A85.5,60,0,0,0,441.5,233.5"></path><path id="kity_path_49" fill="none" stroke="rgb(115, 161, 191)" stroke-width="1" d="M356,173.5A82.5,103,0,0,0,438.5,276.5"></path><path id="kity_path_51" fill="none" stroke="rgb(115, 161, 191)" stroke-width="1" d="M356,173.5A81.5,140,0,0,0,274.5,33.5"></path><path id="kity_path_53" fill="none" stroke="rgb(115, 161, 191)" stroke-width="1" d="M356,173.5A81.5,141,0,0,0,437.5,314.5"></path><path id="kity_path_55" fill="none" stroke="rgb(115, 161, 191)" stroke-width="1" d="M356,173.5A78.5,82,0,0,0,277.5,91.5"></path><path id="kity_path_57" fill="none" stroke="rgb(115, 161, 191)" stroke-width="1" d="M356,173.5A77.5,36,0,0,0,278.5,137.5"></path><path id="kity_path_59" fill="none" stroke="rgb(115, 161, 191)" stroke-width="1" d="M356,173.5A82.5,18,0,0,1,273.5,191.5"></path><path id="kity_path_61" fill="none" stroke="rgb(115, 161, 191)" stroke-width="1" d="M356,173.5A102.5,107,0,0,1,253.5,280.5"></path><path id="kity_path_63" fill="none" stroke="rgb(115, 161, 191)" stroke-width="1" d="M167.5,280.5C164.5,280.5,164.5,240.5,161.5,240.5L43.5,240.5"></path><path id="kity_path_65" fill="none" stroke="rgb(115, 161, 191)" stroke-width="1" d="M167.5,280.5C164.5,280.5,164.5,266.5,161.5,266.5L43.5,266.5"></path><path id="kity_path_67" fill="none" stroke="rgb(115, 161, 191)" stroke-width="1" d="M167.5,280.5C164.5,280.5,164.5,292.5,161.5,292.5L20.5,292.5"></path><path id="kity_path_69" fill="none" stroke="rgb(115, 161, 191)" stroke-width="1" d="M167.5,280.5C164.5,280.5,164.5,318.5,161.5,318.5L55.5,318.5"></path><path id="kity_path_71" fill="none" stroke="rgb(115, 161, 191)" stroke-width="1" d="M167.5,280.5C164.5,280.5,164.5,344.5,161.5,344.5L67.5,344.5"></path></g><g id="minder_node1"><path id="node_outline1" fill="rgb(115, 161, 191)" stroke="rgb(115, 161, 191)" d="M294.5,159.5h123a5,5,0,0,1,5,5v18a5,5,0,0,1,-5,5h-123a5,5,0,0,1,-5,-5v-18a5,5,0,0,1,5,-5z" stroke-width="3"></path><g id="node_text1" fill="white"><text id="kity_text_22" text-rendering="inherit" font-size="16" dy=".8em" y="163.09999990463257" x="301.5">JavaScript原型</text></g></g><g id="kity_g_12"><path id="kity_path_13" fill="none" stroke="none" d="M301.5,173.5h0v0h0z"></path></g><g id="kity_g_14"><path id="kity_path_15" fill="none" stroke="none" d="M301.5,173.5h0v0h0z"></path><path id="kity_path_16" fill="none" stroke="none"></path></g><g id="minder_node2"><g id="node_expander1" display="none" style="cursor: pointer;"><path id="kity_path_136" fill="white" stroke="gray" d="M478.5,69.5A6,6,0,1,1,466.5,69.5A6,6,0,1,1,478.5,69.5"></path><path id="kity_path_137" fill="none" stroke="gray"></path></g><path id="node_outline2" fill="rgb(238, 243, 246)" stroke="rgb(115, 161, 191)" d="M482.5,56.5h106a3,3,0,0,1,3,3v20a3,3,0,0,1,-3,3h-106a3,3,0,0,1,-3,-3v-20a3,3,0,0,1,3,-3z" stroke-width="1"></path><g id="node_text2" fill="black"><text id="kity_text_73" text-rendering="inherit" font-size="14" dy=".8em" y="60.40000009536743" x="499.5">什么是原型</text></g></g><g id="minder_node3"><g id="node_expander8" style="cursor: pointer;"><path id="kity_path_157" fill="white" stroke="gray" d="M479.5,138.5A6,6,0,1,1,467.5,138.5A6,6,0,1,1,479.5,138.5"></path><path id="kity_path_158" fill="none" stroke="gray" d="M469,138.5L478,138.5"></path></g><path id="node_outline9" fill="rgb(238, 243, 246)" stroke="rgb(115, 161, 191)" d="M483.5,125.5h120a3,3,0,0,1,3,3v20a3,3,0,0,1,-3,3h-120a3,3,0,0,1,-3,-3v-20a3,3,0,0,1,3,-3z" stroke-width="1"></path><g id="node_text9" fill="black"><text id="kity_text_87" text-rendering="inherit" font-size="14" dy=".8em" y="129.40000009536743" x="500.5">理解原型对象</text></g></g><g id="minder_node4"><g id="node_expander2" display="none" style="cursor: pointer;"><path id="kity_path_139" fill="white" stroke="gray" d="M622.5,73.5A6,6,0,1,1,610.5,73.5A6,6,0,1,1,622.5,73.5"></path><path id="kity_path_140" fill="none" stroke="gray"></path></g><path id="node_outline3" fill="none" stroke="none" d="M627.5,64.5h57a5,5,0,0,1,5,5v8a5,5,0,0,1,-5,5h-57a5,5,0,0,1,-5,-5v-8a5,5,0,0,1,5,-5z"></path><g id="node_text3" fill="black"><text id="kity_text_75" text-rendering="inherit" font-size="12" dy=".8em" y="65.70000004768372" x="627.5">prototype</text></g></g><g id="minder_node5"><g id="node_expander3" display="none" style="cursor: pointer;"><path id="kity_path_142" fill="white" stroke="gray" d="M622.5,99.5A6,6,0,1,1,610.5,99.5A6,6,0,1,1,622.5,99.5"></path><path id="kity_path_143" fill="none" stroke="gray"></path></g><path id="node_outline4" fill="none" stroke="none" d="M627.5,90.5h169a5,5,0,0,1,5,5v8a5,5,0,0,1,-5,5h-169a5,5,0,0,1,-5,-5v-8a5,5,0,0,1,5,-5z"></path><g id="node_text4" fill="black"><text id="kity_text_77" text-rendering="inherit" font-size="12" dy=".8em" y="91.70000004768372" x="627.5">Person.prototype.constructor</text></g></g><g id="minder_node6"><g id="node_expander4" display="none" style="cursor: pointer;"><path id="kity_path_145" fill="white" stroke="gray" d="M622.5,125.5A6,6,0,1,1,610.5,125.5A6,6,0,1,1,622.5,125.5"></path><path id="kity_path_146" fill="none" stroke="gray"></path></g><path id="node_outline5" fill="none" stroke="none" d="M627.5,116.5h73a5,5,0,0,1,5,5v8a5,5,0,0,1,-5,5h-73a5,5,0,0,1,-5,-5v-8a5,5,0,0,1,5,-5z"></path><g id="node_text5" fill="black"><text id="kity_text_79" text-rendering="inherit" font-size="12" dy=".8em" y="117.70000004768372" x="627.5">[[Prototype]]</text></g></g><g id="minder_node7"><g id="node_expander5" display="none" style="cursor: pointer;"><path id="kity_path_148" fill="white" stroke="gray" d="M622.5,151.5A6,6,0,1,1,610.5,151.5A6,6,0,1,1,622.5,151.5"></path><path id="kity_path_149" fill="none" stroke="gray"></path></g><path id="node_outline6" fill="none" stroke="none" d="M627.5,142.5h44a5,5,0,0,1,5,5v8a5,5,0,0,1,-5,5h-44a5,5,0,0,1,-5,-5v-8a5,5,0,0,1,5,-5z"></path><g id="node_text6" fill="black"><text id="kity_text_81" text-rendering="inherit" font-size="12" dy=".8em" y="143.70000004768372" x="627.5">_proto_</text></g></g><g id="minder_node8"><g id="node_expander6" display="none" style="cursor: pointer;"><path id="kity_path_151" fill="white" stroke="gray" d="M622.5,177.5A6,6,0,1,1,610.5,177.5A6,6,0,1,1,622.5,177.5"></path><path id="kity_path_152" fill="none" stroke="gray"></path></g><path id="node_outline7" fill="none" stroke="none" d="M627.5,168.5h88a5,5,0,0,1,5,5v8a5,5,0,0,1,-5,5h-88a5,5,0,0,1,-5,-5v-8a5,5,0,0,1,5,-5z"></path><g id="node_text7" fill="black"><text id="kity_text_83" text-rendering="inherit" font-size="12" dy=".8em" y="169.70000004768372" x="627.5">isPrototypeOf()</text></g></g><g id="minder_node9"><g id="node_expander7" display="none" style="cursor: pointer;"><path id="kity_path_154" fill="white" stroke="gray" d="M622.5,203.5A6,6,0,1,1,610.5,203.5A6,6,0,1,1,622.5,203.5"></path><path id="kity_path_155" fill="none" stroke="gray"></path></g><path id="node_outline8" fill="none" stroke="none" d="M627.5,194.5h139a5,5,0,0,1,5,5v8a5,5,0,0,1,-5,5h-139a5,5,0,0,1,-5,-5v-8a5,5,0,0,1,5,-5z"></path><g id="node_text8" fill="black"><text id="kity_text_85" text-rendering="inherit" font-size="12" dy=".8em" y="195.70000004768372" x="627.5">Object.getPrototypeOf()</text></g></g><g id="minder_node10"><g id="node_expander9" display="none" style="cursor: pointer;"><path id="kity_path_160" fill="white" stroke="gray" d="M442.5,233.5A6,6,0,1,1,430.5,233.5A6,6,0,1,1,442.5,233.5"></path><path id="kity_path_161" fill="none" stroke="gray"></path></g><path id="node_outline10" fill="rgb(238, 243, 246)" stroke="rgb(115, 161, 191)" d="M446.5,220.5h132a3,3,0,0,1,3,3v20a3,3,0,0,1,-3,3h-132a3,3,0,0,1,-3,-3v-20a3,3,0,0,1,3,-3z" stroke-width="1"></path><g id="node_text10" fill="black"><text id="kity_text_89" text-rendering="inherit" font-size="14" dy=".8em" y="224.40000009536743" x="463.5">原型与in操作符</text></g></g><g id="minder_node11"><g id="node_expander10" display="none" style="cursor: pointer;"><path id="kity_path_163" fill="white" stroke="gray" d="M439.5,276.5A6,6,0,1,1,427.5,276.5A6,6,0,1,1,439.5,276.5"></path><path id="kity_path_164" fill="none" stroke="gray"></path></g><path id="node_outline11" fill="rgb(238, 243, 246)" stroke="rgb(115, 161, 191)" d="M443.5,263.5h148a3,3,0,0,1,3,3v20a3,3,0,0,1,-3,3h-148a3,3,0,0,1,-3,-3v-20a3,3,0,0,1,3,-3z" stroke-width="1"></path><g id="node_text11" fill="black"><text id="kity_text_91" text-rendering="inherit" font-size="14" dy=".8em" y="267.40000009536743" x="460.5">更简单的原型语法</text></g></g><g id="minder_node12"><g id="node_expander11" display="none" style="cursor: pointer;"><path id="kity_path_166" fill="white" stroke="gray" d="M145.5,33.5A6,6,0,1,1,133.5,33.5A6,6,0,1,1,145.5,33.5"></path><path id="kity_path_167" fill="none" stroke="gray"></path></g><path id="node_outline12" fill="rgb(238, 243, 246)" stroke="rgb(115, 161, 191)" d="M149.5,20.5h120a3,3,0,0,1,3,3v20a3,3,0,0,1,-3,3h-120a3,3,0,0,1,-3,-3v-20a3,3,0,0,1,3,-3z" stroke-width="1"></path><g id="node_text12" fill="black"><text id="kity_text_93" text-rendering="inherit" font-size="14" dy=".8em" y="24.40000009536743" x="166.5">原型的动态性</text></g></g><g id="minder_node13"><g id="node_expander12" display="none" style="cursor: pointer;"><path id="kity_path_169" fill="white" stroke="gray" d="M592.5,314.5A6,6,0,1,1,580.5,314.5A6,6,0,1,1,592.5,314.5"></path><path id="kity_path_170" fill="none" stroke="gray"></path></g><path id="node_outline13" fill="rgb(238, 243, 246)" stroke="rgb(115, 161, 191)" d="M442.5,301.5h134a3,3,0,0,1,3,3v20a3,3,0,0,1,-3,3h-134a3,3,0,0,1,-3,-3v-20a3,3,0,0,1,3,-3z" stroke-width="1"></path><g id="node_text13" fill="black"><text id="kity_text_95" text-rendering="inherit" font-size="14" dy=".8em" y="305.40000009536743" x="459.5">原生对象的原型</text></g></g><g id="minder_node14"><g id="node_expander13" display="none" style="cursor: pointer;"><path id="kity_path_172" fill="white" stroke="gray" d="M288.5,91.5A6,6,0,1,1,276.5,91.5A6,6,0,1,1,288.5,91.5"></path><path id="kity_path_173" fill="none" stroke="gray"></path></g><path id="node_outline14" fill="rgb(238, 243, 246)" stroke="rgb(115, 161, 191)" d="M138.5,78.5h134a3,3,0,0,1,3,3v20a3,3,0,0,1,-3,3h-134a3,3,0,0,1,-3,-3v-20a3,3,0,0,1,3,-3z" stroke-width="1"></path><g id="node_text14" fill="black"><text id="kity_text_97" text-rendering="inherit" font-size="14" dy=".8em" y="82.40000009536743" x="155.5">原型对象的问题</text></g></g><g id="minder_node15"><g id="node_expander14" display="none" style="cursor: pointer;"><path id="kity_path_175" fill="white" stroke="gray" d="M289.5,137.5A6,6,0,1,1,277.5,137.5A6,6,0,1,1,289.5,137.5"></path><path id="kity_path_176" fill="none" stroke="gray"></path></g><path id="node_outline15" fill="rgb(238, 243, 246)" stroke="rgb(115, 161, 191)" d="M181.5,124.5h92a3,3,0,0,1,3,3v20a3,3,0,0,1,-3,3h-92a3,3,0,0,1,-3,-3v-20a3,3,0,0,1,3,-3z" stroke-width="1"></path><g id="node_text15" fill="black"><text id="kity_text_99" text-rendering="inherit" font-size="14" dy=".8em" y="128.40000009536743" x="198.5">原型模式</text></g></g><g id="minder_node16"><g id="node_expander15" display="none" style="cursor: pointer;"><path id="kity_path_178" fill="white" stroke="gray" d="M284.5,191.5A6,6,0,1,1,272.5,191.5A6,6,0,1,1,284.5,191.5"></path><path id="kity_path_179" fill="none" stroke="gray"></path></g><path id="node_outline16" fill="rgb(238, 243, 246)" stroke="rgb(115, 161, 191)" d="M149.5,178.5h119a3,3,0,0,1,3,3v20a3,3,0,0,1,-3,3h-119a3,3,0,0,1,-3,-3v-20a3,3,0,0,1,3,-3z" stroke-width="1"></path><g id="node_text16" fill="black"><text id="kity_text_101" text-rendering="inherit" font-size="14" dy=".8em" y="182.40000009536743" x="166.5">动态原型模式</text></g></g><g id="minder_node17"><g id="node_expander21" style="cursor: pointer;"><path id="kity_path_196" fill="white" stroke="gray" d="M264.5,280.5A6,6,0,1,1,252.5,280.5A6,6,0,1,1,264.5,280.5"></path><path id="kity_path_197" fill="none" stroke="gray" d="M254,280.5L263,280.5"></path></g><path id="node_outline22" fill="rgb(238, 243, 246)" stroke="rgb(115, 161, 191)" d="M170.5,267.5h78a3,3,0,0,1,3,3v20a3,3,0,0,1,-3,3h-78a3,3,0,0,1,-3,-3v-20a3,3,0,0,1,3,-3z" stroke-width="1"></path><g id="node_text22" fill="black"><text id="kity_text_113" text-rendering="inherit" font-size="14" dy=".8em" y="271.40000009536743" x="187.5">原型链</text></g></g><g id="minder_node18"><g id="node_expander16" display="none" style="cursor: pointer;"><path id="kity_path_181" fill="white" stroke="gray" d="M163.5,228.5A6,6,0,1,1,151.5,228.5A6,6,0,1,1,163.5,228.5"></path><path id="kity_path_182" fill="none" stroke="gray"></path></g><path id="node_outline17" fill="none" stroke="none" d="M48.5,219.5h98a5,5,0,0,1,5,5v8a5,5,0,0,1,-5,5h-98a5,5,0,0,1,-5,-5v-8a5,5,0,0,1,5,-5z"></path><g id="node_text17" fill="black"><text id="kity_text_103" text-rendering="inherit" font-size="12" dy=".8em" y="220.70000004768372" x="48.5">理解原型链的概念</text></g></g><g id="minder_node19"><g id="node_expander17" display="none" style="cursor: pointer;"><path id="kity_path_184" fill="white" stroke="gray" d="M163.5,254.5A6,6,0,1,1,151.5,254.5A6,6,0,1,1,163.5,254.5"></path><path id="kity_path_185" fill="none" stroke="gray"></path></g><path id="node_outline18" fill="none" stroke="none" d="M48.5,245.5h98a5,5,0,0,1,5,5v8a5,5,0,0,1,-5,5h-98a5,5,0,0,1,-5,-5v-8a5,5,0,0,1,5,-5z"></path><g id="node_text18" fill="black"><text id="kity_text_105" text-rendering="inherit" font-size="12" dy=".8em" y="246.70000004768372" x="48.5">别忘记默认的原型</text></g></g><g id="minder_node20"><g id="node_expander18" display="none" style="cursor: pointer;"><path id="kity_path_187" fill="white" stroke="gray" d="M163.5,280.5A6,6,0,1,1,151.5,280.5A6,6,0,1,1,163.5,280.5"></path><path id="kity_path_188" fill="none" stroke="gray"></path></g><path id="node_outline19" fill="none" stroke="none" d="M25.5,271.5h121a5,5,0,0,1,5,5v8a5,5,0,0,1,-5,5h-121a5,5,0,0,1,-5,-5v-8a5,5,0,0,1,5,-5z"></path><g id="node_text19" fill="black"><text id="kity_text_107" text-rendering="inherit" font-size="12" dy=".8em" y="272.7000000476837" x="25.5">确定原型和实例的关系</text></g></g><g id="minder_node21"><g id="node_expander19" display="none" style="cursor: pointer;"><path id="kity_path_190" fill="white" stroke="gray" d="M163.5,306.5A6,6,0,1,1,151.5,306.5A6,6,0,1,1,163.5,306.5"></path><path id="kity_path_191" fill="none" stroke="gray"></path></g><path id="node_outline20" fill="none" stroke="none" d="M60.5,297.5h86a5,5,0,0,1,5,5v8a5,5,0,0,1,-5,5h-86a5,5,0,0,1,-5,-5v-8a5,5,0,0,1,5,-5z"></path><g id="node_text20" fill="black"><text id="kity_text_109" text-rendering="inherit" font-size="12" dy=".8em" y="298.7000000476837" x="60.5">谨慎地定义方法</text></g></g><g id="minder_node22"><g id="node_expander20" display="none" style="cursor: pointer;"><path id="kity_path_193" fill="white" stroke="gray" d="M163.5,332.5A6,6,0,1,1,151.5,332.5A6,6,0,1,1,163.5,332.5"></path><path id="kity_path_194" fill="none" stroke="gray"></path></g><path id="node_outline21" fill="none" stroke="none" d="M72.5,323.5h74a5,5,0,0,1,5,5v8a5,5,0,0,1,-5,5h-74a5,5,0,0,1,-5,-5v-8a5,5,0,0,1,5,-5z"></path><g id="node_text21" fill="black"><text id="kity_text_111" text-rendering="inherit" font-size="12" dy=".8em" y="324.7000000476837" x="72.5">原型链的问题</text></g></g></g></g></svg>