<svg id="kity_svg_6" xmlns="http://www.w3.org/2000/svg" xmlns:xlink="http://www.w3.org/1999/xlink" version="1.1" width="844" height="580" style="background: rgb(251, 251, 251); visibility: visible;" viewBox="0 0 844 580"><defs id="kity_defs_7"><linearGradient id="kity_linearGradient_17" x1="0" y1="0" x2="0" y2="1"><stop id="kity_stop_18" offset="0" stop-color="rgb(255, 255, 255)"></stop><stop id="kity_stop_19" offset="1" stop-color="rgb(204, 204, 204)"></stop></linearGradient><marker id="kity_marker_2" orient="auto" refX="6" refY="0" viewBox="-7 -7 14 14" markerWidth="7" markerHeight="7" markerUnits="userSpaceOnUse"><path id="kity_path_3" fill="rgb(115, 191, 118)" stroke="none" d="M6,0A6,6,0,1,1,-6,0A6,6,0,1,1,6,0"></path></marker></defs><g id="kity_g_8"><g id="minder1" text-rendering="optimize-speed"><g id="minder_connect_group1"><path id="kity_path_31" fill="none" stroke="rgb(115, 191, 118)" stroke-width="1" d="M362,278.5A70.5,166,0,0,1,432.5,112.5"></path><path id="kity_path_45" fill="none" stroke="rgb(115, 191, 118)" stroke-width="1" d="M362,278.5A79.5,115,0,0,0,441.5,393.5"></path><path id="kity_path_314" fill="none" stroke="rgb(115, 191, 118)" stroke-width="1" d="M362,278.5A84.5,155,0,0,0,277.5,123.5"></path><path id="kity_path_322" fill="none" stroke="rgb(115, 191, 118)" stroke-width="1" d="M362,278.5A74.5,83,0,0,0,287.5,195.5"></path><path id="kity_path_330" fill="none" stroke="rgb(115, 191, 118)" stroke-width="1" d="M362,278.5A73.5,14,0,0,0,288.5,264.5"></path><path id="kity_path_338" fill="none" stroke="rgb(115, 191, 118)" stroke-width="1" d="M362,278.5A73.5,74,0,0,1,288.5,352.5"></path><path id="kity_path_432" fill="none" stroke="rgb(115, 191, 118)" stroke-width="1" d="M173.5,352.5C170.5,352.5,170.5,335.5,167.5,335.5L91.5,335.5"></path><path id="kity_path_433" fill="none" stroke="rgb(115, 191, 118)" stroke-width="1" d="M173.5,352.5C170.5,352.5,170.5,367.5,167.5,367.5L57.5,367.5"></path><path id="kity_path_434" fill="none" stroke="rgb(115, 191, 118)" stroke-width="1" d="M173.5,352.5C170.5,352.5,170.5,399.5,167.5,399.5L20.5,399.5"></path><path id="kity_path_435" fill="none" stroke="rgb(115, 191, 118)" stroke-width="1" d="M172.5,264.5C169.5,264.5,169.5,263.5,166.5,263.5L72.5,263.5"></path><path id="kity_path_436" fill="none" stroke="rgb(115, 191, 118)" stroke-width="1" d="M172.5,264.5C169.5,264.5,169.5,295.5,166.5,295.5L54.5,295.5"></path><path id="kity_path_437" fill="none" stroke="rgb(115, 191, 118)" stroke-width="1" d="M591.5,393.5C594.5,393.5,594.5,272.5,597.5,272.5L674.5,272.5"></path><path id="kity_path_438" fill="none" stroke="rgb(115, 191, 118)" stroke-width="1" d="M591.5,393.5C594.5,393.5,594.5,304.5,597.5,304.5L664.5,304.5"></path><path id="kity_path_439" fill="none" stroke="rgb(115, 191, 118)" stroke-width="1" d="M591.5,393.5C594.5,393.5,594.5,336.5,597.5,336.5L658.5,336.5"></path><path id="kity_path_440" fill="none" stroke="rgb(115, 191, 118)" stroke-width="1" d="M591.5,393.5C594.5,393.5,594.5,368.5,597.5,368.5L681.5,368.5"></path><path id="kity_path_441" fill="none" stroke="rgb(115, 191, 118)" stroke-width="1" d="M591.5,393.5C594.5,393.5,594.5,400.5,597.5,400.5L692.5,400.5"></path><path id="kity_path_442" fill="none" stroke="rgb(115, 191, 118)" stroke-width="1" d="M726.5,464.5C729.5,464.5,729.5,432.5,732.5,432.5L822.5,432.5"></path><path id="kity_path_443" fill="none" stroke="rgb(115, 191, 118)" stroke-width="1" d="M726.5,464.5C729.5,464.5,729.5,464.5,732.5,464.5L824.5,464.5"></path><path id="kity_path_444" fill="none" stroke="rgb(115, 191, 118)" stroke-width="1" d="M726.5,464.5C729.5,464.5,729.5,496.5,732.5,496.5L803.5,496.5"></path><path id="kity_path_445" fill="none" stroke="rgb(115, 191, 118)" stroke-width="1" d="M591.5,393.5C594.5,393.5,594.5,464.5,597.5,464.5L726.5,464.5"></path><path id="kity_path_446" fill="none" stroke="rgb(115, 191, 118)" stroke-width="1" d="M726.5,544.5C729.5,544.5,729.5,528.5,732.5,528.5L808.5,528.5"></path><path id="kity_path_447" fill="none" stroke="rgb(115, 191, 118)" stroke-width="1" d="M726.5,544.5C729.5,544.5,729.5,560.5,732.5,560.5L797.5,560.5"></path><path id="kity_path_448" fill="none" stroke="rgb(115, 191, 118)" stroke-width="1" d="M591.5,393.5C594.5,393.5,594.5,544.5,597.5,544.5L726.5,544.5"></path><path id="kity_path_461" fill="none" stroke="rgb(115, 191, 118)" stroke-width="1" d="M583.5,112.5C586.5,112.5,586.5,47.5,589.5,47.5L660.5,47.5"></path><path id="kity_path_462" fill="none" stroke="rgb(115, 191, 118)" stroke-width="1" d="M583.5,112.5C586.5,112.5,586.5,79.5,589.5,79.5L681.5,79.5"></path><path id="kity_path_463" fill="none" stroke="rgb(115, 191, 118)" stroke-width="1" d="M583.5,112.5C586.5,112.5,586.5,111.5,589.5,111.5L679.5,111.5"></path><path id="kity_path_464" fill="none" stroke="rgb(115, 191, 118)" stroke-width="1" d="M583.5,112.5C586.5,112.5,586.5,143.5,589.5,143.5L644.5,143.5"></path><path id="kity_path_465" fill="none" stroke="rgb(115, 191, 118)" stroke-width="1" d="M583.5,112.5C586.5,112.5,586.5,175.5,589.5,175.5L699.5,175.5"></path><path id="kity_path_466" fill="none" stroke="rgb(115, 191, 118)" stroke-width="1" d="M583.5,112.5C586.5,112.5,586.5,207.5,589.5,207.5L745.5,207.5"></path></g><g id="minder_node1"><path id="kity_path_216" fill="rgba(0, 0, 0, .25)" stroke="none" d="M380,204.5h0a79,79,0,0,1,79,79v0a79,79,0,0,1,-79,79h0a79,79,0,0,1,-79,-79v0a79,79,0,0,1,79,-79z" display="none"></path><path id="node_outline1" fill="rgb(115, 191, 118)" stroke="rgb(115, 191, 118)" d="M309.5,263.5h105a5,5,0,0,1,5,5v20a5,5,0,0,1,-5,5h-105a5,5,0,0,1,-5,-5v-20a5,5,0,0,1,5,-5z" stroke-width="3"></path><g id="node_text1" fill="white"><text id="kity_text_22" text-rendering="inherit" font-size="18" dy=".8em" y="266.7999999523163" x="316.5">JS数据类型</text></g></g><g id="kity_g_14" display="none"><path id="kity_path_15" fill="rgba(0, 153, 5, 0.5)" stroke="none" d="M155.5,177.5h131v8h-131z"></path><path id="kity_path_16" fill="none" stroke="rgb(0, 128, 4)" d="M155.5,185.5L286.5,185.5" stroke-width="1"></path></g><g id="minder_node2" opacity="1"><path id="kity_path_214" fill="rgba(0, 0, 0, .25)" stroke="none" d="M513,50.5h0a67,67,0,0,1,67,67v0a67,67,0,0,1,-67,67h0a67,67,0,0,1,-67,-67v0a67,67,0,0,1,67,-67z" display="none"></path><g id="node_expander7" style="cursor: pointer;"><path id="kity_path_149" fill="white" stroke="gray" d="M433.5,112.5A6,6,0,1,1,421.5,112.5A6,6,0,1,1,433.5,112.5"></path><path id="kity_path_150" fill="none" stroke="gray" d="M423,112.5L432,112.5"></path></g><path id="node_outline8" fill="rgb(238, 246, 238)" stroke="rgb(115, 191, 118)" d="M437.5,97.5h143a3,3,0,0,1,3,3v24a3,3,0,0,1,-3,3h-143a3,3,0,0,1,-3,-3v-24a3,3,0,0,1,3,-3z" stroke-width="1"></path><g id="node_text8" fill="black"><text id="kity_text_83" text-rendering="inherit" font-size="18" dy=".8em" font-weight="bold" y="100.79999995231628" x="454.5">基本数据类型</text></g></g><g id="minder_node9" opacity="1"><path id="kity_path_215" fill="rgba(0, 0, 0, .25)" stroke="none" d="M521.5,331.5h0a67,67,0,0,1,67,67v0a67,67,0,0,1,-67,67h0a67,67,0,0,1,-67,-67v0a67,67,0,0,1,67,-67z" display="none"></path><g id="node_expander20" style="cursor: pointer;"><path id="kity_path_188" fill="white" stroke="gray" d="M442.5,393.5A6,6,0,1,1,430.5,393.5A6,6,0,1,1,442.5,393.5"></path><path id="kity_path_189" fill="none" stroke="gray" d="M432,393.5L441,393.5"></path></g><path id="node_outline21" fill="rgb(238, 246, 238)" stroke="rgb(115, 191, 118)" d="M446.5,378.5h142a3,3,0,0,1,3,3v24a3,3,0,0,1,-3,3h-142a3,3,0,0,1,-3,-3v-24a3,3,0,0,1,3,-3z" stroke-width="1"></path><g id="node_text21" fill="black"><text id="kity_text_109" text-rendering="inherit" font-size="18" dy=".8em" font-weight="bold" y="381.7999999523163" x="463.5">引用数据类型</text></g></g><g id="minder_node22" opacity="1"><g id="node_expander21" style="cursor: pointer;" display="none"><path id="kity_path_319" fill="white" stroke="gray" d="M161.5,123.5A6,6,0,1,1,149.5,123.5A6,6,0,1,1,161.5,123.5"></path><path id="kity_path_320" fill="none" stroke="gray"></path></g><path id="node_outline22" fill="rgb(238, 246, 238)" stroke="rgb(115, 191, 118)" d="M165.5,108.5h107a3,3,0,0,1,3,3v24a3,3,0,0,1,-3,3h-107a3,3,0,0,1,-3,-3v-24a3,3,0,0,1,3,-3z" stroke-width="1"></path><g id="node_text22" fill="black"><text id="kity_text_316" text-rendering="inherit" font-size="18" dy=".8em" y="111.79999995231628" x="182.5">动态属性</text></g></g><g id="minder_node23" opacity="1"><g id="node_expander22" style="cursor: pointer;" display="none"><path id="kity_path_327" fill="white" stroke="gray" d="M298.5,195.5A6,6,0,1,1,286.5,195.5A6,6,0,1,1,298.5,195.5"></path><path id="kity_path_328" fill="none" stroke="gray"></path></g><path id="node_outline23" fill="rgb(238, 246, 238)" stroke="rgb(115, 191, 118)" d="M156.5,180.5h126a3,3,0,0,1,3,3v24a3,3,0,0,1,-3,3h-126a3,3,0,0,1,-3,-3v-24a3,3,0,0,1,3,-3z" stroke-width="1"></path><g id="node_text23" fill="black"><text id="kity_text_324" text-rendering="inherit" font-size="18" dy=".8em" y="183.79999995231628" x="173.5">复制变量值</text></g></g><g id="minder_node24" opacity="1"><g id="node_expander23" style="cursor: pointer;"><path id="kity_path_335" fill="white" stroke="gray" d="M299.5,264.5A6,6,0,1,1,287.5,264.5A6,6,0,1,1,299.5,264.5"></path><path id="kity_path_336" fill="none" stroke="gray" d="M289,264.5L298,264.5"></path></g><path id="node_outline24" fill="rgb(238, 246, 238)" stroke="rgb(115, 191, 118)" d="M175.5,249.5h108a3,3,0,0,1,3,3v24a3,3,0,0,1,-3,3h-108a3,3,0,0,1,-3,-3v-24a3,3,0,0,1,3,-3z" stroke-width="1"></path><g id="node_text24" fill="black"><text id="kity_text_332" text-rendering="inherit" font-size="18" dy=".8em" y="252.79999995231628" x="192.5">传递参数</text></g></g><g id="minder_node25" opacity="1"><g id="node_expander24" style="cursor: pointer;"><path id="kity_path_343" fill="white" stroke="gray" d="M299.5,352.5A6,6,0,1,1,287.5,352.5A6,6,0,1,1,299.5,352.5"></path><path id="kity_path_344" fill="none" stroke="gray" d="M289,352.5L298,352.5"></path></g><path id="node_outline25" fill="rgb(238, 246, 238)" stroke="rgb(115, 191, 118)" d="M176.5,337.5h107a3,3,0,0,1,3,3v24a3,3,0,0,1,-3,3h-107a3,3,0,0,1,-3,-3v-24a3,3,0,0,1,3,-3z" stroke-width="1"></path><g id="node_text25" fill="black"><text id="kity_text_340" text-rendering="inherit" font-size="18" dy=".8em" y="340.7999999523163" x="193.5">检测类型</text></g></g><g id="minder_node28"><g id="node_expander27" style="cursor: pointer;" display="none"><path id="kity_path_367" fill="white" stroke="gray" d="M169.5,320.5A6,6,0,1,1,157.5,320.5A6,6,0,1,1,169.5,320.5"></path><path id="kity_path_368" fill="none" stroke="gray"></path></g><path id="node_outline28" fill="none" stroke="none" d="M96.5,308.5h56a5,5,0,0,1,5,5v14a5,5,0,0,1,-5,5h-56a5,5,0,0,1,-5,-5v-14a5,5,0,0,1,5,-5z" stroke-width="3"></path><g id="node_text28" fill="black"><text id="kity_text_364" text-rendering="inherit" font-size="18" dy=".8em" y="308.7999999523163" x="96.5">typeof</text></g></g><g id="minder_node29"><g id="node_expander28" style="cursor: pointer;" display="none"><path id="kity_path_375" fill="white" stroke="gray" d="M169.5,352.5A6,6,0,1,1,157.5,352.5A6,6,0,1,1,169.5,352.5"></path><path id="kity_path_376" fill="none" stroke="gray"></path></g><path id="node_outline29" fill="none" stroke="none" d="M62.5,340.5h90a5,5,0,0,1,5,5v14a5,5,0,0,1,-5,5h-90a5,5,0,0,1,-5,-5v-14a5,5,0,0,1,5,-5z" stroke-width="3"></path><g id="node_text29" fill="black"><text id="kity_text_372" text-rendering="inherit" font-size="18" dy=".8em" y="340.7999999523163" x="62.5">instanceof</text></g></g><g id="minder_node30"><g id="node_expander29" style="cursor: pointer;" display="none"><path id="kity_path_383" fill="white" stroke="gray" d="M169.5,384.5A6,6,0,1,1,157.5,384.5A6,6,0,1,1,169.5,384.5"></path><path id="kity_path_384" fill="none" stroke="gray"></path></g><path id="node_outline30" fill="none" stroke="none" d="M25.5,372.5h127a5,5,0,0,1,5,5v14a5,5,0,0,1,-5,5h-127a5,5,0,0,1,-5,-5v-14a5,5,0,0,1,5,-5z" stroke-width="3"></path><g id="node_text30" fill="black"><text id="kity_text_380" text-rendering="inherit" font-size="18" dy=".8em" y="372.7999999523163" x="25.5">数组类型的检测</text></g></g><g id="minder_node26"><g id="node_expander25" style="cursor: pointer;" display="none"><path id="kity_path_351" fill="white" stroke="gray" d="M168.5,248.5A6,6,0,1,1,156.5,248.5A6,6,0,1,1,168.5,248.5"></path><path id="kity_path_352" fill="none" stroke="gray"></path></g><path id="node_outline26" fill="none" stroke="none" d="M77.5,236.5h74a5,5,0,0,1,5,5v14a5,5,0,0,1,-5,5h-74a5,5,0,0,1,-5,-5v-14a5,5,0,0,1,5,-5z" stroke-width="3"></path><g id="node_text26" fill="black"><text id="kity_text_348" text-rendering="inherit" font-size="18" dy=".8em" y="236.79999995231628" x="77.5">按值传递</text></g></g><g id="minder_node27"><g id="node_expander26" style="cursor: pointer;" display="none"><path id="kity_path_359" fill="white" stroke="gray" d="M168.5,280.5A6,6,0,1,1,156.5,280.5A6,6,0,1,1,168.5,280.5"></path><path id="kity_path_360" fill="none" stroke="gray"></path></g><path id="node_outline27" fill="none" stroke="none" d="M59.5,268.5h92a5,5,0,0,1,5,5v14a5,5,0,0,1,-5,5h-92a5,5,0,0,1,-5,-5v-14a5,5,0,0,1,5,-5z" stroke-width="3"></path><g id="node_text27" fill="black"><text id="kity_text_356" text-rendering="inherit" font-size="18" dy=".8em" y="268.7999999523163" x="59.5">按引用传递</text></g></g><g id="kity_g_12" display="none"><path id="kity_path_13" fill="none" stroke="rgb(66, 112, 68)" d="M158.5,190.5h125a3,3,0,0,1,3,3v24a3,3,0,0,1,-3,3h-125a3,3,0,0,1,-3,-3v-24a3,3,0,0,1,3,-3z" stroke-width="5"></path></g><g id="minder_node10"><path id="kity_path_223" fill="rgba(0, 0, 0, .25)" stroke="none" d="M645,226.5h0a36,36,0,0,1,36,36v0a36,36,0,0,1,-36,36h0a36,36,0,0,1,-36,-36v0a36,36,0,0,1,36,-36z" display="none"></path><g id="node_expander8" style="cursor: pointer;" display="none"><path id="kity_path_152" fill="white" stroke="gray" d="M607.5,257.5A6,6,0,1,1,595.5,257.5A6,6,0,1,1,607.5,257.5"></path><path id="kity_path_153" fill="none" stroke="gray"></path></g><path id="node_outline9" fill="none" stroke="none" d="M612.5,245.5h57a5,5,0,0,1,5,5v14a5,5,0,0,1,-5,5h-57a5,5,0,0,1,-5,-5v-14a5,5,0,0,1,5,-5z"></path><g id="node_text9" fill="black"><text id="kity_text_85" text-rendering="inherit" font-size="18" dy=".8em" y="245.79999995231628" x="612.5">Object</text></g></g><g id="minder_node11"><path id="kity_path_224" fill="rgba(0, 0, 0, .25)" stroke="none" d="M640,262.5h0a32,32,0,0,1,32,32v0a32,32,0,0,1,-32,32h0a32,32,0,0,1,-32,-32v0a32,32,0,0,1,32,-32z" display="none"></path><g id="node_expander9" style="cursor: pointer;" display="none"><path id="kity_path_155" fill="white" stroke="gray" d="M607.5,289.5A6,6,0,1,1,595.5,289.5A6,6,0,1,1,607.5,289.5"></path><path id="kity_path_156" fill="none" stroke="gray"></path></g><path id="node_outline10" fill="none" stroke="none" d="M612.5,277.5h47a5,5,0,0,1,5,5v14a5,5,0,0,1,-5,5h-47a5,5,0,0,1,-5,-5v-14a5,5,0,0,1,5,-5z"></path><g id="node_text10" fill="black"><text id="kity_text_87" text-rendering="inherit" font-size="18" dy=".8em" y="277.7999999523163" x="612.5">Array</text></g></g><g id="minder_node12"><path id="kity_path_225" fill="rgba(0, 0, 0, .25)" stroke="none" d="M637,297.5h0a29,29,0,0,1,29,29v0a29,29,0,0,1,-29,29h0a29,29,0,0,1,-29,-29v0a29,29,0,0,1,29,-29z" display="none"></path><g id="node_expander10" style="cursor: pointer;" display="none"><path id="kity_path_158" fill="white" stroke="gray" d="M607.5,321.5A6,6,0,1,1,595.5,321.5A6,6,0,1,1,607.5,321.5"></path><path id="kity_path_159" fill="none" stroke="gray"></path></g><path id="node_outline11" fill="none" stroke="none" d="M612.5,309.5h41a5,5,0,0,1,5,5v14a5,5,0,0,1,-5,5h-41a5,5,0,0,1,-5,-5v-14a5,5,0,0,1,5,-5z"></path><g id="node_text11" fill="black"><text id="kity_text_89" text-rendering="inherit" font-size="18" dy=".8em" y="309.7999999523163" x="612.5">Date</text></g></g><g id="minder_node13"><path id="kity_path_226" fill="rgba(0, 0, 0, .25)" stroke="none" d="M648.5,318.5h0a40,40,0,0,1,40,40v0a40,40,0,0,1,-40,40h0a40,40,0,0,1,-40,-40v0a40,40,0,0,1,40,-40z" display="none"></path><g id="node_expander11" style="cursor: pointer;" display="none"><path id="kity_path_161" fill="white" stroke="gray" d="M607.5,353.5A6,6,0,1,1,595.5,353.5A6,6,0,1,1,607.5,353.5"></path><path id="kity_path_162" fill="none" stroke="gray"></path></g><path id="node_outline12" fill="none" stroke="none" d="M612.5,341.5h64a5,5,0,0,1,5,5v14a5,5,0,0,1,-5,5h-64a5,5,0,0,1,-5,-5v-14a5,5,0,0,1,5,-5z"></path><g id="node_text12" fill="black"><text id="kity_text_91" text-rendering="inherit" font-size="18" dy=".8em" y="341.7999999523163" x="612.5">RegExp</text></g></g><g id="minder_node14"><path id="kity_path_227" fill="rgba(0, 0, 0, .25)" stroke="none" d="M654,345.5h0a45,45,0,0,1,45,45v0a45,45,0,0,1,-45,45h0a45,45,0,0,1,-45,-45v0a45,45,0,0,1,45,-45z" display="none"></path><g id="node_expander12" style="cursor: pointer;" display="none"><path id="kity_path_164" fill="white" stroke="gray" d="M607.5,385.5A6,6,0,1,1,595.5,385.5A6,6,0,1,1,607.5,385.5"></path><path id="kity_path_165" fill="none" stroke="gray"></path></g><path id="node_outline13" fill="none" stroke="none" d="M612.5,373.5h75a5,5,0,0,1,5,5v14a5,5,0,0,1,-5,5h-75a5,5,0,0,1,-5,-5v-14a5,5,0,0,1,5,-5z"></path><g id="node_text13" fill="black"><text id="kity_text_93" text-rendering="inherit" font-size="18" dy=".8em" y="373.7999999523163" x="612.5">Function</text></g></g><g id="minder_node16"><path id="kity_path_228" fill="rgba(0, 0, 0, .25)" stroke="none" d="M786.5,380.5h0a42,42,0,0,1,42,42v0a42,42,0,0,1,-42,42h0a42,42,0,0,1,-42,-42v0a42,42,0,0,1,42,-42z" display="none"></path><g id="node_expander13" style="cursor: pointer;" display="none"><path id="kity_path_167" fill="white" stroke="gray" d="M742.5,417.5A6,6,0,1,1,730.5,417.5A6,6,0,1,1,742.5,417.5"></path><path id="kity_path_168" fill="none" stroke="gray"></path></g><path id="node_outline14" fill="none" stroke="none" d="M747.5,405.5h70a5,5,0,0,1,5,5v14a5,5,0,0,1,-5,5h-70a5,5,0,0,1,-5,-5v-14a5,5,0,0,1,5,-5z"></path><g id="node_text14" fill="black"><text id="kity_text_95" text-rendering="inherit" font-size="18" dy=".8em" y="405.7999999523163" x="747.5">Boolean</text></g></g><g id="minder_node17"><path id="kity_path_229" fill="rgba(0, 0, 0, .25)" stroke="none" d="M787.5,411.5h0a43,43,0,0,1,43,43v0a43,43,0,0,1,-43,43h0a43,43,0,0,1,-43,-43v0a43,43,0,0,1,43,-43z" display="none"></path><g id="node_expander14" style="cursor: pointer;" display="none"><path id="kity_path_170" fill="white" stroke="gray" d="M742.5,449.5A6,6,0,1,1,730.5,449.5A6,6,0,1,1,742.5,449.5"></path><path id="kity_path_171" fill="none" stroke="gray"></path></g><path id="node_outline15" fill="none" stroke="none" d="M747.5,437.5h72a5,5,0,0,1,5,5v14a5,5,0,0,1,-5,5h-72a5,5,0,0,1,-5,-5v-14a5,5,0,0,1,5,-5z"></path><g id="node_text15" fill="black"><text id="kity_text_97" text-rendering="inherit" font-size="18" dy=".8em" y="437.7999999523163" x="747.5">Number</text></g></g><g id="minder_node18"><path id="kity_path_230" fill="rgba(0, 0, 0, .25)" stroke="none" d="M777,452.5h0a34,34,0,0,1,34,34v0a34,34,0,0,1,-34,34h0a34,34,0,0,1,-34,-34v0a34,34,0,0,1,34,-34z" display="none"></path><g id="node_expander15" style="cursor: pointer;" display="none"><path id="kity_path_173" fill="white" stroke="gray" d="M742.5,481.5A6,6,0,1,1,730.5,481.5A6,6,0,1,1,742.5,481.5"></path><path id="kity_path_174" fill="none" stroke="gray"></path></g><path id="node_outline16" fill="none" stroke="none" d="M747.5,469.5h51a5,5,0,0,1,5,5v14a5,5,0,0,1,-5,5h-51a5,5,0,0,1,-5,-5v-14a5,5,0,0,1,5,-5z"></path><g id="node_text16" fill="black"><text id="kity_text_99" text-rendering="inherit" font-size="18" dy=".8em" y="469.7999999523163" x="747.5">String</text></g></g><g id="minder_node15"><path id="kity_path_231" fill="rgba(0, 0, 0, .25)" stroke="none" d="M671,393.5h0a61,61,0,0,1,61,61v0a61,61,0,0,1,-61,61h0a61,61,0,0,1,-61,-61v0a61,61,0,0,1,61,-61z" display="none"></path><g id="node_expander16" style="cursor: pointer;"><path id="kity_path_176" fill="white" stroke="gray" d="M607.5,449.5A6,6,0,1,1,595.5,449.5A6,6,0,1,1,607.5,449.5"></path><path id="kity_path_177" fill="none" stroke="gray" d="M597,449.5L606,449.5"></path></g><path id="node_outline17" fill="none" stroke="none" d="M612.5,437.5h109a5,5,0,0,1,5,5v14a5,5,0,0,1,-5,5h-109a5,5,0,0,1,-5,-5v-14a5,5,0,0,1,5,-5z"></path><g id="node_text17" fill="black"><text id="kity_text_101" text-rendering="inherit" font-size="18" dy=".8em" y="437.7999999523163" x="612.5">基本包装类型</text></g></g><g id="minder_node20"><path id="kity_path_232" fill="rgba(0, 0, 0, .25)" stroke="none" d="M779.5,482.5h0a36,36,0,0,1,36,36v0a36,36,0,0,1,-36,36h0a36,36,0,0,1,-36,-36v0a36,36,0,0,1,36,-36z" display="none"></path><g id="node_expander17" style="cursor: pointer;" display="none"><path id="kity_path_179" fill="white" stroke="gray" d="M742.5,513.5A6,6,0,1,1,730.5,513.5A6,6,0,1,1,742.5,513.5"></path><path id="kity_path_180" fill="none" stroke="gray"></path></g><path id="node_outline18" fill="none" stroke="none" d="M747.5,501.5h56a5,5,0,0,1,5,5v14a5,5,0,0,1,-5,5h-56a5,5,0,0,1,-5,-5v-14a5,5,0,0,1,5,-5z"></path><g id="node_text18" fill="black"><text id="kity_text_103" text-rendering="inherit" font-size="18" dy=".8em" y="501.7999999523163" x="747.5">Global</text></g></g><g id="minder_node21"><path id="kity_path_233" fill="rgba(0, 0, 0, .25)" stroke="none" d="M774,519.5h0a31,31,0,0,1,31,31v0a31,31,0,0,1,-31,31h0a31,31,0,0,1,-31,-31v0a31,31,0,0,1,31,-31z" display="none"></path><g id="node_expander18" style="cursor: pointer;" display="none"><path id="kity_path_182" fill="white" stroke="gray" d="M742.5,545.5A6,6,0,1,1,730.5,545.5A6,6,0,1,1,742.5,545.5"></path><path id="kity_path_183" fill="none" stroke="gray"></path></g><path id="node_outline19" fill="none" stroke="none" d="M747.5,533.5h45a5,5,0,0,1,5,5v14a5,5,0,0,1,-5,5h-45a5,5,0,0,1,-5,-5v-14a5,5,0,0,1,5,-5z"></path><g id="node_text19" fill="black"><text id="kity_text_105" text-rendering="inherit" font-size="18" dy=".8em" y="533.7999999523163" x="747.5">Math</text></g></g><g id="minder_node19"><path id="kity_path_234" fill="rgba(0, 0, 0, .25)" stroke="none" d="M671,473.5h0a61,61,0,0,1,61,61v0a61,61,0,0,1,-61,61h0a61,61,0,0,1,-61,-61v0a61,61,0,0,1,61,-61z" display="none"></path><g id="node_expander19" style="cursor: pointer;"><path id="kity_path_185" fill="white" stroke="gray" d="M607.5,529.5A6,6,0,1,1,595.5,529.5A6,6,0,1,1,607.5,529.5"></path><path id="kity_path_186" fill="none" stroke="gray" d="M597,529.5L606,529.5"></path></g><path id="node_outline20" fill="none" stroke="none" d="M612.5,517.5h109a5,5,0,0,1,5,5v14a5,5,0,0,1,-5,5h-109a5,5,0,0,1,-5,-5v-14a5,5,0,0,1,5,-5z"></path><g id="node_text20" fill="black"><text id="kity_text_107" text-rendering="inherit" font-size="18" dy=".8em" y="517.7999999523163" x="612.5">单体内置对象</text></g></g><g id="minder_node3" opacity="1"><path id="kity_path_217" fill="rgba(0, 0, 0, .25)" stroke="none" d="M634,3.5h0a34,34,0,0,1,34,34v0a34,34,0,0,1,-34,34h0a34,34,0,0,1,-34,-34v0a34,34,0,0,1,34,-34z" display="none"></path><g id="node_expander1" style="cursor: pointer;" display="none"><path id="kity_path_131" fill="white" stroke="gray" d="M599.5,32.5A6,6,0,1,1,587.5,32.5A6,6,0,1,1,599.5,32.5"></path><path id="kity_path_132" fill="none" stroke="gray"></path></g><path id="node_outline2" fill="none" stroke="none" d="M604.5,20.5h51a5,5,0,0,1,5,5v14a5,5,0,0,1,-5,5h-51a5,5,0,0,1,-5,-5v-14a5,5,0,0,1,5,-5z" stroke-width="3"></path><g id="node_text2" fill="black"><text id="kity_text_71" text-rendering="inherit" font-size="18" dy=".8em" y="20.799999952316284" x="604.5">String</text></g></g><g id="minder_node4" opacity="1"><path id="kity_path_218" fill="rgba(0, 0, 0, .25)" stroke="none" d="M644.5,26.5h0a43,43,0,0,1,43,43v0a43,43,0,0,1,-43,43h0a43,43,0,0,1,-43,-43v0a43,43,0,0,1,43,-43z" display="none"></path><g id="node_expander2" style="cursor: pointer;" display="none"><path id="kity_path_134" fill="white" stroke="gray" d="M599.5,64.5A6,6,0,1,1,587.5,64.5A6,6,0,1,1,599.5,64.5"></path><path id="kity_path_135" fill="none" stroke="gray"></path></g><path id="node_outline3" fill="none" stroke="none" d="M604.5,52.5h72a5,5,0,0,1,5,5v14a5,5,0,0,1,-5,5h-72a5,5,0,0,1,-5,-5v-14a5,5,0,0,1,5,-5z" stroke-width="3"></path><g id="node_text3" fill="black"><text id="kity_text_73" text-rendering="inherit" font-size="18" dy=".8em" y="52.799999952316284" x="604.5">Number</text></g></g><g id="minder_node5" opacity="1"><path id="kity_path_219" fill="rgba(0, 0, 0, .25)" stroke="none" d="M643.5,59.5h0a42,42,0,0,1,42,42v0a42,42,0,0,1,-42,42h0a42,42,0,0,1,-42,-42v0a42,42,0,0,1,42,-42z" display="none"></path><g id="node_expander3" style="cursor: pointer;" display="none"><path id="kity_path_137" fill="white" stroke="gray" d="M599.5,96.5A6,6,0,1,1,587.5,96.5A6,6,0,1,1,599.5,96.5"></path><path id="kity_path_138" fill="none" stroke="gray"></path></g><path id="node_outline4" fill="none" stroke="none" d="M604.5,84.5h70a5,5,0,0,1,5,5v14a5,5,0,0,1,-5,5h-70a5,5,0,0,1,-5,-5v-14a5,5,0,0,1,5,-5z" stroke-width="3"></path><g id="node_text4" fill="black"><text id="kity_text_75" text-rendering="inherit" font-size="18" dy=".8em" y="84.79999995231628" x="604.5">Boolean</text></g></g><g id="minder_node6"><path id="kity_path_220" fill="rgba(0, 0, 0, .25)" stroke="none" d="M626,106.5h0a27,27,0,0,1,27,27v0a27,27,0,0,1,-27,27h0a27,27,0,0,1,-27,-27v0a27,27,0,0,1,27,-27z" display="none"></path><g id="node_expander4" style="cursor: pointer;" display="none"><path id="kity_path_140" fill="white" stroke="gray" d="M599.5,128.5A6,6,0,1,1,587.5,128.5A6,6,0,1,1,599.5,128.5"></path><path id="kity_path_141" fill="none" stroke="gray"></path></g><path id="node_outline5" fill="none" stroke="none" d="M604.5,116.5h35a5,5,0,0,1,5,5v14a5,5,0,0,1,-5,5h-35a5,5,0,0,1,-5,-5v-14a5,5,0,0,1,5,-5z"></path><g id="node_text5" fill="black"><text id="kity_text_77" text-rendering="inherit" font-size="18" dy=".8em" y="116.79999995231628" x="604.5">Null</text></g></g><g id="minder_node7"><path id="kity_path_221" fill="rgba(0, 0, 0, .25)" stroke="none" d="M653.5,113.5h0a52,52,0,0,1,52,52v0a52,52,0,0,1,-52,52h0a52,52,0,0,1,-52,-52v0a52,52,0,0,1,52,-52z" display="none"></path><g id="node_expander5" style="cursor: pointer;" display="none"><path id="kity_path_143" fill="white" stroke="gray" d="M599.5,160.5A6,6,0,1,1,587.5,160.5A6,6,0,1,1,599.5,160.5"></path><path id="kity_path_144" fill="none" stroke="gray"></path></g><path id="node_outline6" fill="none" stroke="none" d="M604.5,148.5h90a5,5,0,0,1,5,5v14a5,5,0,0,1,-5,5h-90a5,5,0,0,1,-5,-5v-14a5,5,0,0,1,5,-5z"></path><g id="node_text6" fill="black"><text id="kity_text_79" text-rendering="inherit" font-size="18" dy=".8em" y="148.79999995231628" x="604.5">Undefined</text></g></g><g id="minder_node8"><path id="kity_path_222" fill="rgba(0, 0, 0, .25)" stroke="none" d="M676.5,123.5h0a74,74,0,0,1,74,74v0a74,74,0,0,1,-74,74h0a74,74,0,0,1,-74,-74v0a74,74,0,0,1,74,-74z" display="none"></path><g id="node_expander6" style="cursor: pointer;" display="none"><path id="kity_path_146" fill="white" stroke="gray" d="M599.5,192.5A6,6,0,1,1,587.5,192.5A6,6,0,1,1,599.5,192.5"></path><path id="kity_path_147" fill="none" stroke="gray"></path></g><path id="node_outline7" fill="none" stroke="none" d="M604.5,180.5h136a5,5,0,0,1,5,5v14a5,5,0,0,1,-5,5h-136a5,5,0,0,1,-5,-5v-14a5,5,0,0,1,5,-5z"></path><g id="node_text7" fill="black"><text id="kity_text_81" text-rendering="inherit" font-size="18" dy=".8em" font-weight="bold" y="180.79999995231628" x="604.5">Symbol（ES6）</text></g></g></g></g></svg>