<svg id="kity_svg_6" xmlns="http://www.w3.org/2000/svg" xmlns:xlink="http://www.w3.org/1999/xlink" version="1.1" width="1447" height="889" style="background: rgb(251, 251, 251); visibility: visible;" viewBox="0 0 1447 889"><defs id="kity_defs_7"><linearGradient id="kity_linearGradient_17" x1="0" y1="0" x2="0" y2="1"><stop id="kity_stop_18" offset="0" stop-color="rgb(255, 255, 255)"></stop><stop id="kity_stop_19" offset="1" stop-color="rgb(204, 204, 204)"></stop></linearGradient><marker id="kity_marker_2" orient="auto" refX="6" refY="0" viewBox="-7 -7 14 14" markerWidth="7" markerHeight="7" markerUnits="userSpaceOnUse"><path id="kity_path_3" fill="rgb(115, 161, 191)" stroke="none" d="M6,0A6,6,0,1,1,-6,0A6,6,0,1,1,6,0"></path></marker></defs><g id="kity_g_8"><g id="minder1" text-rendering="optimize-speed"><g id="minder_connect_group1"><path id="kity_path_31" fill="none" stroke="rgb(115, 161, 191)" stroke-width="1" d="M578.5,412.5A67,271,0,0,1,645.5,141.5"></path><path id="kity_path_33" fill="none" stroke="rgb(115, 161, 191)" stroke-width="1" d="M858.5,141.5C861.5,141.5,861.5,114.5,864.5,114.5L1052.5,114.5"></path><path id="kity_path_35" fill="none" stroke="rgb(115, 161, 191)" stroke-width="1" d="M858.5,141.5C861.5,141.5,861.5,140.5,864.5,140.5L1031.5,140.5"></path><path id="kity_path_37" fill="none" stroke="rgb(115, 161, 191)" stroke-width="1" d="M858.5,141.5C861.5,141.5,861.5,166.5,864.5,166.5L1002.5,166.5"></path><path id="kity_path_39" fill="none" stroke="rgb(115, 161, 191)" stroke-width="1" d="M858.5,141.5C861.5,141.5,861.5,192.5,864.5,192.5L1026.5,192.5"></path><path id="kity_path_41" fill="none" stroke="rgb(115, 161, 191)" stroke-width="1" d="M578.5,412.5A67,146,0,0,1,645.5,266.5"></path><path id="kity_path_43" fill="none" stroke="rgb(115, 161, 191)" stroke-width="1" d="M903.5,266.5C906.5,266.5,906.5,226.5,909.5,226.5L1108.5,226.5"></path><path id="kity_path_45" fill="none" stroke="rgb(115, 161, 191)" stroke-width="1" d="M903.5,266.5C906.5,266.5,906.5,252.5,909.5,252.5L1100.5,252.5"></path><path id="kity_path_47" fill="none" stroke="rgb(115, 161, 191)" stroke-width="1" d="M903.5,266.5C906.5,266.5,906.5,278.5,909.5,278.5L1007.5,278.5"></path><path id="kity_path_49" fill="none" stroke="rgb(115, 161, 191)" stroke-width="1" d="M903.5,266.5C906.5,266.5,906.5,304.5,909.5,304.5L1043.5,304.5"></path><path id="kity_path_51" fill="none" stroke="rgb(115, 161, 191)" stroke-width="1" d="M903.5,266.5C906.5,266.5,906.5,330.5,909.5,330.5L1427.5,330.5"></path><path id="kity_path_53" fill="none" stroke="rgb(115, 161, 191)" stroke-width="1" d="M578.5,412.5A67,18,0,0,0,645.5,430.5"></path><path id="kity_path_55" fill="none" stroke="rgb(115, 161, 191)" stroke-width="1" d="M886.5,430.5C889.5,430.5,889.5,364.5,892.5,364.5L1145.5,364.5"></path><path id="kity_path_57" fill="none" stroke="rgb(115, 161, 191)" stroke-width="1" d="M886.5,430.5C889.5,430.5,889.5,390.5,892.5,390.5L1208.5,390.5"></path><path id="kity_path_59" fill="none" stroke="rgb(115, 161, 191)" stroke-width="1" d="M886.5,430.5C889.5,430.5,889.5,416.5,892.5,416.5L1241.5,416.5"></path><path id="kity_path_61" fill="none" stroke="rgb(115, 161, 191)" stroke-width="1" d="M886.5,430.5C889.5,430.5,889.5,442.5,892.5,442.5L1379.5,442.5"></path><path id="kity_path_63" fill="none" stroke="rgb(115, 161, 191)" stroke-width="1" d="M886.5,430.5C889.5,430.5,889.5,468.5,892.5,468.5L1229.5,468.5"></path><path id="kity_path_65" fill="none" stroke="rgb(115, 161, 191)" stroke-width="1" d="M886.5,430.5C889.5,430.5,889.5,494.5,892.5,494.5L1227.5,494.5"></path><path id="kity_path_67" fill="none" stroke="rgb(115, 161, 191)" stroke-width="1" d="M886.5,430.5C889.5,430.5,889.5,520.5,892.5,520.5L1225.5,520.5"></path><path id="kity_path_69" fill="none" stroke="rgb(115, 161, 191)" stroke-width="1" d="M578.5,412.5A67,182,0,0,0,645.5,594.5"></path><path id="kity_path_71" fill="none" stroke="rgb(115, 161, 191)" stroke-width="1" d="M959.5,594.5C962.5,594.5,962.5,554.5,965.5,554.5L1015.5,554.5"></path><path id="kity_path_73" fill="none" stroke="rgb(115, 161, 191)" stroke-width="1" d="M959.5,594.5C962.5,594.5,962.5,580.5,965.5,580.5L1035.5,580.5"></path><path id="kity_path_75" fill="none" stroke="rgb(115, 161, 191)" stroke-width="1" d="M959.5,594.5C962.5,594.5,962.5,606.5,965.5,606.5L1028.5,606.5"></path><path id="kity_path_77" fill="none" stroke="rgb(115, 161, 191)" stroke-width="1" d="M959.5,594.5C962.5,594.5,962.5,632.5,965.5,632.5L1028.5,632.5"></path><path id="kity_path_79" fill="none" stroke="rgb(115, 161, 191)" stroke-width="1" d="M959.5,594.5C962.5,594.5,962.5,658.5,965.5,658.5L1026.5,658.5"></path><path id="kity_path_81" fill="none" stroke="rgb(115, 161, 191)" stroke-width="1" d="M578.5,412.5A67,272,0,0,0,645.5,684.5"></path><path id="kity_path_83" fill="none" stroke="rgb(115, 161, 191)" stroke-width="1" d="M955.5,684.5C958.5,684.5,958.5,696.5,961.5,696.5L1302.5,696.5"></path><path id="kity_path_85" fill="none" stroke="rgb(115, 161, 191)" stroke-width="1" d="M578.5,412.5A67,379,0,0,0,511.5,33.5"></path><path id="kity_path_87" fill="none" stroke="rgb(115, 161, 191)" stroke-width="1" d="M369.5,33.5C366.5,33.5,366.5,45.5,363.5,45.5L147.5,45.5"></path><path id="kity_path_89" fill="none" stroke="rgb(115, 161, 191)" stroke-width="1" d="M578.5,412.5A67,337,0,0,0,511.5,75.5"></path><path id="kity_path_91" fill="none" stroke="rgb(115, 161, 191)" stroke-width="1" d="M179.5,75.5C176.5,75.5,176.5,87.5,173.5,87.5L119.5,87.5"></path><path id="kity_path_93" fill="none" stroke="rgb(115, 161, 191)" stroke-width="1" d="M578.5,412.5A67,156,0,0,0,511.5,256.5"></path><path id="kity_path_95" fill="none" stroke="rgb(115, 161, 191)" stroke-width="1" d="M219.5,256.5C216.5,256.5,216.5,125.5,213.5,125.5L129.5,125.5"></path><path id="kity_path_97" fill="none" stroke="rgb(115, 161, 191)" stroke-width="1" d="M219.5,256.5C216.5,256.5,216.5,151.5,213.5,151.5L131.5,151.5"></path><path id="kity_path_99" fill="none" stroke="rgb(115, 161, 191)" stroke-width="1" d="M219.5,256.5C216.5,256.5,216.5,177.5,213.5,177.5L159.5,177.5"></path><path id="kity_path_101" fill="none" stroke="rgb(115, 161, 191)" stroke-width="1" d="M219.5,256.5C216.5,256.5,216.5,203.5,213.5,203.5L106.5,203.5"></path><path id="kity_path_103" fill="none" stroke="rgb(115, 161, 191)" stroke-width="1" d="M219.5,256.5C216.5,256.5,216.5,229.5,213.5,229.5L81.5,229.5"></path><path id="kity_path_105" fill="none" stroke="rgb(115, 161, 191)" stroke-width="1" d="M219.5,256.5C216.5,256.5,216.5,255.5,213.5,255.5L101.5,255.5"></path><path id="kity_path_107" fill="none" stroke="rgb(115, 161, 191)" stroke-width="1" d="M219.5,256.5C216.5,256.5,216.5,281.5,213.5,281.5L76.5,281.5"></path><path id="kity_path_109" fill="none" stroke="rgb(115, 161, 191)" stroke-width="1" d="M219.5,256.5C216.5,256.5,216.5,307.5,213.5,307.5L114.5,307.5"></path><path id="kity_path_111" fill="none" stroke="rgb(115, 161, 191)" stroke-width="1" d="M219.5,256.5C216.5,256.5,216.5,333.5,213.5,333.5L124.5,333.5"></path><path id="kity_path_113" fill="none" stroke="rgb(115, 161, 191)" stroke-width="1" d="M219.5,256.5C216.5,256.5,216.5,359.5,213.5,359.5L126.5,359.5"></path><path id="kity_path_115" fill="none" stroke="rgb(115, 161, 191)" stroke-width="1" d="M219.5,256.5C216.5,256.5,216.5,385.5,213.5,385.5L111.5,385.5"></path><path id="kity_path_117" fill="none" stroke="rgb(115, 161, 191)" stroke-width="1" d="M219.5,256.5C216.5,256.5,216.5,411.5,213.5,411.5L146.5,411.5"></path><path id="kity_path_119" fill="none" stroke="rgb(115, 161, 191)" stroke-width="1" d="M578.5,412.5A67,151,0,0,1,511.5,563.5"></path><path id="kity_path_121" fill="none" stroke="rgb(115, 161, 191)" stroke-width="1" d="M124.5,563.5C121.5,563.5,121.5,445.5,118.5,445.5L49.5,445.5"></path><path id="kity_path_123" fill="none" stroke="rgb(115, 161, 191)" stroke-width="1" d="M124.5,563.5C121.5,563.5,121.5,471.5,118.5,471.5L47.5,471.5"></path><path id="kity_path_125" fill="none" stroke="rgb(115, 161, 191)" stroke-width="1" d="M124.5,563.5C121.5,563.5,121.5,497.5,118.5,497.5L39.5,497.5"></path><path id="kity_path_127" fill="none" stroke="rgb(115, 161, 191)" stroke-width="1" d="M124.5,563.5C121.5,563.5,121.5,523.5,118.5,523.5L35.5,523.5"></path><path id="kity_path_129" fill="none" stroke="rgb(115, 161, 191)" stroke-width="1" d="M124.5,563.5C121.5,563.5,121.5,549.5,118.5,549.5L46.5,549.5"></path><path id="kity_path_131" fill="none" stroke="rgb(115, 161, 191)" stroke-width="1" d="M124.5,563.5C121.5,563.5,121.5,575.5,118.5,575.5L47.5,575.5"></path><path id="kity_path_133" fill="none" stroke="rgb(115, 161, 191)" stroke-width="1" d="M124.5,563.5C121.5,563.5,121.5,601.5,118.5,601.5L48.5,601.5"></path><path id="kity_path_135" fill="none" stroke="rgb(115, 161, 191)" stroke-width="1" d="M124.5,563.5C121.5,563.5,121.5,627.5,118.5,627.5L46.5,627.5"></path><path id="kity_path_137" fill="none" stroke="rgb(115, 161, 191)" stroke-width="1" d="M124.5,563.5C121.5,563.5,121.5,653.5,118.5,653.5L20.5,653.5"></path><path id="kity_path_139" fill="none" stroke="rgb(115, 161, 191)" stroke-width="1" d="M124.5,563.5C121.5,563.5,121.5,679.5,118.5,679.5L58.5,679.5"></path><path id="kity_path_141" fill="none" stroke="rgb(115, 161, 191)" stroke-width="1" d="M124.5,563.5C121.5,563.5,121.5,705.5,118.5,705.5L68.5,705.5"></path><path id="kity_path_143" fill="none" stroke="rgb(115, 161, 191)" stroke-width="1" d="M578.5,412.5A67,380,0,0,1,511.5,792.5"></path><path id="kity_path_145" fill="none" stroke="rgb(115, 161, 191)" stroke-width="1" d="M300.5,792.5C297.5,792.5,297.5,739.5,294.5,739.5L217.5,739.5"></path><path id="kity_path_147" fill="none" stroke="rgb(115, 161, 191)" stroke-width="1" d="M300.5,792.5C297.5,792.5,297.5,765.5,294.5,765.5L206.5,765.5"></path><path id="kity_path_149" fill="none" stroke="rgb(115, 161, 191)" stroke-width="1" d="M300.5,792.5C297.5,792.5,297.5,791.5,294.5,791.5L220.5,791.5"></path><path id="kity_path_151" fill="none" stroke="rgb(115, 161, 191)" stroke-width="1" d="M300.5,792.5C297.5,792.5,297.5,817.5,294.5,817.5L210.5,817.5"></path><path id="kity_path_153" fill="none" stroke="rgb(115, 161, 191)" stroke-width="1" d="M300.5,792.5C297.5,792.5,297.5,843.5,294.5,843.5L230.5,843.5"></path><path id="kity_path_155" fill="none" stroke="rgb(115, 161, 191)" stroke-width="1" d="M300.5,792.5C297.5,792.5,297.5,869.5,294.5,869.5L241.5,869.5"></path></g><g id="minder_node1"><path id="node_outline1" fill="rgb(115, 161, 191)" stroke="rgb(57, 80, 96)" d="M532.5,398.5h92a5,5,0,0,1,5,5v18a5,5,0,0,1,-5,5h-92a5,5,0,0,1,-5,-5v-18a5,5,0,0,1,5,-5z" stroke-width="3"></path><g id="node_text1" fill="white"><text id="kity_text_22" text-rendering="inherit" font-size="16" dy=".8em" y="402.09999990463257" x="539.5">CSS选择器</text></g></g><g id="kity_g_12"><path id="kity_path_13" fill="none" stroke="none" d="M539.5,412.5h0v0h0z"></path></g><g id="kity_g_14"><path id="kity_path_15" fill="none" stroke="none" d="M539.5,412.5h0v0h0z"></path><path id="kity_path_16" fill="none" stroke="none"></path></g><g id="minder_node2"><g id="node_expander5" style="cursor: pointer;"><path id="kity_path_358" fill="white" stroke="gray" d="M646.5,141.5A6,6,0,1,1,634.5,141.5A6,6,0,1,1,646.5,141.5"></path><path id="kity_path_359" fill="none" stroke="gray" d="M636,141.5L645,141.5"></path></g><path id="node_outline6" fill="rgb(238, 243, 246)" stroke="rgb(115, 161, 191)" d="M650.5,128.5h205a3,3,0,0,1,3,3v20a3,3,0,0,1,-3,3h-205a3,3,0,0,1,-3,-3v-20a3,3,0,0,1,3,-3z" stroke-width="1"></path><g id="node_text6" fill="black"><text id="kity_text_165" text-rendering="inherit" font-size="14" dy=".8em" y="132.40000009536743" x="667.5">Basic Selector(基本选择器)</text></g></g><g id="minder_node3"><g id="node_expander1" display="none" style="cursor: pointer;"><path id="kity_path_346" fill="white" stroke="gray" d="M874.5,102.5A6,6,0,1,1,862.5,102.5A6,6,0,1,1,874.5,102.5"></path><path id="kity_path_347" fill="none" stroke="gray"></path></g><path id="node_outline2" fill="none" stroke="none" d="M879.5,93.5h168a5,5,0,0,1,5,5v8a5,5,0,0,1,-5,5h-168a5,5,0,0,1,-5,-5v-8a5,5,0,0,1,5,-5z"></path><g id="node_text2" fill="black"><text id="kity_text_157" text-rendering="inherit" font-size="12" dy=".8em" y="94.70000004768372" x="879.5">universal selector(通配选择器)</text></g></g><g id="minder_node4"><g id="node_expander2" display="none" style="cursor: pointer;"><path id="kity_path_349" fill="white" stroke="gray" d="M874.5,128.5A6,6,0,1,1,862.5,128.5A6,6,0,1,1,874.5,128.5"></path><path id="kity_path_350" fill="none" stroke="gray"></path></g><path id="node_outline3" fill="none" stroke="none" d="M879.5,119.5h147a5,5,0,0,1,5,5v8a5,5,0,0,1,-5,5h-147a5,5,0,0,1,-5,-5v-8a5,5,0,0,1,5,-5z"></path><g id="node_text3" fill="black"><text id="kity_text_159" text-rendering="inherit" font-size="12" dy=".8em" y="120.70000004768372" x="879.5">Type Selector(元素选择器)</text></g></g><g id="minder_node5"><g id="node_expander3" display="none" style="cursor: pointer;"><path id="kity_path_352" fill="white" stroke="gray" d="M874.5,154.5A6,6,0,1,1,862.5,154.5A6,6,0,1,1,874.5,154.5"></path><path id="kity_path_353" fill="none" stroke="gray"></path></g><path id="node_outline4" fill="none" stroke="none" d="M879.5,145.5h118a5,5,0,0,1,5,5v8a5,5,0,0,1,-5,5h-118a5,5,0,0,1,-5,-5v-8a5,5,0,0,1,5,-5z"></path><g id="node_text4" fill="black"><text id="kity_text_161" text-rendering="inherit" font-size="12" dy=".8em" y="146.70000004768372" x="879.5">ID Selector(id选择器)</text></g></g><g id="minder_node6"><g id="node_expander4" display="none" style="cursor: pointer;"><path id="kity_path_355" fill="white" stroke="gray" d="M874.5,180.5A6,6,0,1,1,862.5,180.5A6,6,0,1,1,874.5,180.5"></path><path id="kity_path_356" fill="none" stroke="gray"></path></g><path id="node_outline5" fill="none" stroke="none" d="M879.5,171.5h142a5,5,0,0,1,5,5v8a5,5,0,0,1,-5,5h-142a5,5,0,0,1,-5,-5v-8a5,5,0,0,1,5,-5z"></path><g id="node_text5" fill="black"><text id="kity_text_163" text-rendering="inherit" font-size="12" dy=".8em" y="172.70000004768372" x="879.5">CLASS Selector(类选择器)</text></g></g><g id="minder_node7"><g id="node_expander11" style="cursor: pointer;"><path id="kity_path_376" fill="white" stroke="gray" d="M646.5,266.5A6,6,0,1,1,634.5,266.5A6,6,0,1,1,646.5,266.5"></path><path id="kity_path_377" fill="none" stroke="gray" d="M636,266.5L645,266.5"></path></g><path id="node_outline12" fill="rgb(238, 243, 246)" stroke="rgb(115, 161, 191)" d="M650.5,253.5h250a3,3,0,0,1,3,3v20a3,3,0,0,1,-3,3h-250a3,3,0,0,1,-3,-3v-20a3,3,0,0,1,3,-3z" stroke-width="1"></path><g id="node_text12" fill="black"><text id="kity_text_177" text-rendering="inherit" font-size="14" dy=".8em" y="257.40000009536743" x="667.5">Hierarchical Selector(层次选择器)</text></g></g><g id="minder_node8"><g id="node_expander6" display="none" style="cursor: pointer;"><path id="kity_path_361" fill="white" stroke="gray" d="M919.5,214.5A6,6,0,1,1,907.5,214.5A6,6,0,1,1,919.5,214.5"></path><path id="kity_path_362" fill="none" stroke="gray"></path></g><path id="node_outline7" fill="none" stroke="none" d="M924.5,205.5h179a5,5,0,0,1,5,5v8a5,5,0,0,1,-5,5h-179a5,5,0,0,1,-5,-5v-8a5,5,0,0,1,5,-5z"></path><g id="node_text7" fill="black"><text id="kity_text_167" text-rendering="inherit" font-size="12" dy=".8em" y="206.70000004768372" x="924.5">E~F&#xa0; 标签组合选择器/通用选择器</text></g></g><g id="minder_node9"><g id="node_expander7" display="none" style="cursor: pointer;"><path id="kity_path_364" fill="white" stroke="gray" d="M919.5,240.5A6,6,0,1,1,907.5,240.5A6,6,0,1,1,919.5,240.5"></path><path id="kity_path_365" fill="none" stroke="gray"></path></g><path id="node_outline8" fill="none" stroke="none" d="M924.5,231.5h171a5,5,0,0,1,5,5v8a5,5,0,0,1,-5,5h-171a5,5,0,0,1,-5,-5v-8a5,5,0,0,1,5,-5z"></path><g id="node_text8" fill="black"><text id="kity_text_169" text-rendering="inherit" font-size="12" dy=".8em" y="232.70000004768372" x="924.5">E &#xa0;F&#xa0;&#xa0;后代选择器（包含选择器）</text></g></g><g id="minder_node10"><g id="node_expander8" display="none" style="cursor: pointer;"><path id="kity_path_367" fill="white" stroke="gray" d="M919.5,266.5A6,6,0,1,1,907.5,266.5A6,6,0,1,1,919.5,266.5"></path><path id="kity_path_368" fill="none" stroke="gray"></path></g><path id="node_outline9" fill="none" stroke="none" d="M924.5,257.5h78a5,5,0,0,1,5,5v8a5,5,0,0,1,-5,5h-78a5,5,0,0,1,-5,-5v-8a5,5,0,0,1,5,-5z"></path><g id="node_text9" fill="black"><text id="kity_text_171" text-rendering="inherit" font-size="12" dy=".8em" y="258.7000000476837" x="924.5">E&gt;F&#xa0;&#xa0;子选择器  </text></g></g><g id="minder_node11"><g id="node_expander9" display="none" style="cursor: pointer;"><path id="kity_path_370" fill="white" stroke="gray" d="M919.5,292.5A6,6,0,1,1,907.5,292.5A6,6,0,1,1,919.5,292.5"></path><path id="kity_path_371" fill="none" stroke="gray"></path></g><path id="node_outline10" fill="none" stroke="none" d="M924.5,283.5h114a5,5,0,0,1,5,5v8a5,5,0,0,1,-5,5h-114a5,5,0,0,1,-5,-5v-8a5,5,0,0,1,5,-5z"></path><g id="node_text10" fill="black"><text id="kity_text_173" text-rendering="inherit" font-size="12" dy=".8em" y="284.7000000476837" x="924.5">E+F&#xa0;&#xa0;相邻兄弟选择器</text></g></g><g id="minder_node12"><g id="node_expander10" display="none" style="cursor: pointer;"><path id="kity_path_373" fill="white" stroke="gray" d="M919.5,318.5A6,6,0,1,1,907.5,318.5A6,6,0,1,1,919.5,318.5"></path><path id="kity_path_374" fill="none" stroke="gray"></path></g><path id="node_outline11" fill="none" stroke="none" d="M924.5,309.5h498a5,5,0,0,1,5,5v8a5,5,0,0,1,-5,5h-498a5,5,0,0,1,-5,-5v-8a5,5,0,0,1,5,-5z"></path><g id="node_text11" fill="black"><text id="kity_text_175" text-rendering="inherit" font-size="12" dy=".8em" y="310.7000000476837" x="924.5">DEF&#xa0; 群组选择器 -&gt;&#xa0;将具有相同样式的元素分组放在一起，每个选择器之间使用逗号“,”隔开</text></g></g><g id="minder_node13"><g id="node_expander19" style="cursor: pointer;"><path id="kity_path_400" fill="white" stroke="gray" d="M646.5,430.5A6,6,0,1,1,634.5,430.5A6,6,0,1,1,646.5,430.5"></path><path id="kity_path_401" fill="none" stroke="gray" d="M636,430.5L645,430.5"></path></g><path id="node_outline20" fill="rgb(238, 243, 246)" stroke="rgb(115, 161, 191)" d="M650.5,417.5h233a3,3,0,0,1,3,3v20a3,3,0,0,1,-3,3h-233a3,3,0,0,1,-3,-3v-20a3,3,0,0,1,3,-3z" stroke-width="1"></path><g id="node_text20" fill="black"><text id="kity_text_193" text-rendering="inherit" font-size="14" dy=".8em" y="421.40000009536743" x="667.5">Attribute Selector(属性选择器)</text></g></g><g id="minder_node14"><g id="node_expander12" display="none" style="cursor: pointer;"><path id="kity_path_379" fill="white" stroke="gray" d="M902.5,352.5A6,6,0,1,1,890.5,352.5A6,6,0,1,1,902.5,352.5"></path><path id="kity_path_380" fill="none" stroke="gray"></path></g><path id="node_outline13" fill="none" stroke="none" d="M907.5,343.5h233a5,5,0,0,1,5,5v8a5,5,0,0,1,-5,5h-233a5,5,0,0,1,-5,-5v-8a5,5,0,0,1,5,-5z"></path><g id="node_text13" fill="black"><text id="kity_text_179" text-rendering="inherit" font-size="12" dy=".8em" y="344.7000000476837" x="907.5">[attribute]&#xa0;&#xa0;用于选取带有指定属性的元素。</text></g></g><g id="minder_node15"><g id="node_expander13" display="none" style="cursor: pointer;"><path id="kity_path_382" fill="white" stroke="gray" d="M902.5,378.5A6,6,0,1,1,890.5,378.5A6,6,0,1,1,902.5,378.5"></path><path id="kity_path_383" fill="none" stroke="gray"></path></g><path id="node_outline14" fill="none" stroke="none" d="M907.5,369.5h296a5,5,0,0,1,5,5v8a5,5,0,0,1,-5,5h-296a5,5,0,0,1,-5,-5v-8a5,5,0,0,1,5,-5z"></path><g id="node_text14" fill="black"><text id="kity_text_181" text-rendering="inherit" font-size="12" dy=".8em" y="370.7000000476837" x="907.5">[attribute=value]&#xa0;&#xa0;用于选取带有指定属性和值的元素。</text></g></g><g id="minder_node16"><g id="node_expander14" display="none" style="cursor: pointer;"><path id="kity_path_385" fill="white" stroke="gray" d="M902.5,404.5A6,6,0,1,1,890.5,404.5A6,6,0,1,1,902.5,404.5"></path><path id="kity_path_386" fill="none" stroke="gray"></path></g><path id="node_outline15" fill="none" stroke="none" d="M907.5,395.5h329a5,5,0,0,1,5,5v8a5,5,0,0,1,-5,5h-329a5,5,0,0,1,-5,-5v-8a5,5,0,0,1,5,-5z"></path><g id="node_text15" fill="black"><text id="kity_text_183" text-rendering="inherit" font-size="12" dy=".8em" y="396.7000000476837" x="907.5">[attribute~=value]&#xa0;&#xa0;用于选取属性值中包含指定词汇的元素。</text></g></g><g id="minder_node17"><g id="node_expander15" display="none" style="cursor: pointer;"><path id="kity_path_388" fill="white" stroke="gray" d="M902.5,430.5A6,6,0,1,1,890.5,430.5A6,6,0,1,1,902.5,430.5"></path><path id="kity_path_389" fill="none" stroke="gray"></path></g><path id="node_outline16" fill="none" stroke="none" d="M907.5,421.5h467a5,5,0,0,1,5,5v8a5,5,0,0,1,-5,5h-467a5,5,0,0,1,-5,-5v-8a5,5,0,0,1,5,-5z"></path><g id="node_text16" fill="black"><text id="kity_text_185" text-rendering="inherit" font-size="12" dy=".8em" y="422.7000000476837" x="907.5">[attribute|=value]&#xa0;&#xa0;用于选取带有以指定值开头的属性值的元素，该值必须是整个单词。</text></g></g><g id="minder_node18"><g id="node_expander16" display="none" style="cursor: pointer;"><path id="kity_path_391" fill="white" stroke="gray" d="M902.5,456.5A6,6,0,1,1,890.5,456.5A6,6,0,1,1,902.5,456.5"></path><path id="kity_path_392" fill="none" stroke="gray"></path></g><path id="node_outline17" fill="none" stroke="none" d="M907.5,447.5h317a5,5,0,0,1,5,5v8a5,5,0,0,1,-5,5h-317a5,5,0,0,1,-5,-5v-8a5,5,0,0,1,5,-5z"></path><g id="node_text17" fill="black"><text id="kity_text_187" text-rendering="inherit" font-size="12" dy=".8em" y="448.7000000476837" x="907.5">[attribute^=value]&#xa0;&#xa0;匹配属性值以指定值开头的每个元素。</text></g></g><g id="minder_node19"><g id="node_expander17" display="none" style="cursor: pointer;"><path id="kity_path_394" fill="white" stroke="gray" d="M902.5,482.5A6,6,0,1,1,890.5,482.5A6,6,0,1,1,902.5,482.5"></path><path id="kity_path_395" fill="none" stroke="gray"></path></g><path id="node_outline18" fill="none" stroke="none" d="M907.5,473.5h315a5,5,0,0,1,5,5v8a5,5,0,0,1,-5,5h-315a5,5,0,0,1,-5,-5v-8a5,5,0,0,1,5,-5z"></path><g id="node_text18" fill="black"><text id="kity_text_189" text-rendering="inherit" font-size="12" dy=".8em" y="474.7000000476837" x="907.5">[attribute$=value]&#xa0;&#xa0;匹配属性值以指定值结尾的每个元素。</text></g></g><g id="minder_node20"><g id="node_expander18" display="none" style="cursor: pointer;"><path id="kity_path_397" fill="white" stroke="gray" d="M902.5,508.5A6,6,0,1,1,890.5,508.5A6,6,0,1,1,902.5,508.5"></path><path id="kity_path_398" fill="none" stroke="gray"></path></g><path id="node_outline19" fill="none" stroke="none" d="M907.5,499.5h313a5,5,0,0,1,5,5v8a5,5,0,0,1,-5,5h-313a5,5,0,0,1,-5,-5v-8a5,5,0,0,1,5,-5z"></path><g id="node_text19" fill="black"><text id="kity_text_191" text-rendering="inherit" font-size="12" dy=".8em" y="500.7000000476837" x="907.5">[attribute*=value]&#xa0;&#xa0;匹配属性值中包含指定值的每个元素。</text></g></g><g id="minder_node21"><g id="node_expander25" style="cursor: pointer;"><path id="kity_path_418" fill="white" stroke="gray" d="M646.5,594.5A6,6,0,1,1,634.5,594.5A6,6,0,1,1,646.5,594.5"></path><path id="kity_path_419" fill="none" stroke="gray" d="M636,594.5L645,594.5"></path></g><path id="node_outline26" fill="rgb(238, 243, 246)" stroke="rgb(115, 161, 191)" d="M650.5,581.5h306a3,3,0,0,1,3,3v20a3,3,0,0,1,-3,3h-306a3,3,0,0,1,-3,-3v-20a3,3,0,0,1,3,-3z" stroke-width="1"></path><g id="node_text26" fill="black"><text id="kity_text_205" text-rendering="inherit" font-size="14" dy=".8em" y="585.4000000953674" x="667.5">Dynamic pseudo-classes(动态伪类选择器)</text></g></g><g id="minder_node22"><g id="node_expander20" display="none" style="cursor: pointer;"><path id="kity_path_403" fill="white" stroke="gray" d="M975.5,542.5A6,6,0,1,1,963.5,542.5A6,6,0,1,1,975.5,542.5"></path><path id="kity_path_404" fill="none" stroke="gray"></path></g><path id="node_outline21" fill="none" stroke="none" d="M980.5,533.5h30a5,5,0,0,1,5,5v8a5,5,0,0,1,-5,5h-30a5,5,0,0,1,-5,-5v-8a5,5,0,0,1,5,-5z"></path><g id="node_text21" fill="black"><text id="kity_text_195" text-rendering="inherit" font-size="12" dy=".8em" y="534.7000000476837" x="980.5">E:link</text></g></g><g id="minder_node23"><g id="node_expander21" display="none" style="cursor: pointer;"><path id="kity_path_406" fill="white" stroke="gray" d="M975.5,568.5A6,6,0,1,1,963.5,568.5A6,6,0,1,1,975.5,568.5"></path><path id="kity_path_407" fill="none" stroke="gray"></path></g><path id="node_outline22" fill="none" stroke="none" d="M980.5,559.5h50a5,5,0,0,1,5,5v8a5,5,0,0,1,-5,5h-50a5,5,0,0,1,-5,-5v-8a5,5,0,0,1,5,-5z"></path><g id="node_text22" fill="black"><text id="kity_text_197" text-rendering="inherit" font-size="12" dy=".8em" y="560.7000000476837" x="980.5">E:visited&#xa0;</text></g></g><g id="minder_node24"><g id="node_expander22" display="none" style="cursor: pointer;"><path id="kity_path_409" fill="white" stroke="gray" d="M975.5,594.5A6,6,0,1,1,963.5,594.5A6,6,0,1,1,975.5,594.5"></path><path id="kity_path_410" fill="none" stroke="gray"></path></g><path id="node_outline23" fill="none" stroke="none" d="M980.5,585.5h43a5,5,0,0,1,5,5v8a5,5,0,0,1,-5,5h-43a5,5,0,0,1,-5,-5v-8a5,5,0,0,1,5,-5z"></path><g id="node_text23" fill="black"><text id="kity_text_199" text-rendering="inherit" font-size="12" dy=".8em" y="586.7000000476837" x="980.5">E:active</text></g></g><g id="minder_node25"><g id="node_expander23" display="none" style="cursor: pointer;"><path id="kity_path_412" fill="white" stroke="gray" d="M975.5,620.5A6,6,0,1,1,963.5,620.5A6,6,0,1,1,975.5,620.5"></path><path id="kity_path_413" fill="none" stroke="gray"></path></g><path id="node_outline24" fill="none" stroke="none" d="M980.5,611.5h43a5,5,0,0,1,5,5v8a5,5,0,0,1,-5,5h-43a5,5,0,0,1,-5,-5v-8a5,5,0,0,1,5,-5z"></path><g id="node_text24" fill="black"><text id="kity_text_201" text-rendering="inherit" font-size="12" dy=".8em" y="612.7000000476837" x="980.5">E:hover</text></g></g><g id="minder_node26"><g id="node_expander24" display="none" style="cursor: pointer;"><path id="kity_path_415" fill="white" stroke="gray" d="M975.5,646.5A6,6,0,1,1,963.5,646.5A6,6,0,1,1,975.5,646.5"></path><path id="kity_path_416" fill="none" stroke="gray"></path></g><path id="node_outline25" fill="none" stroke="none" d="M980.5,637.5h41a5,5,0,0,1,5,5v8a5,5,0,0,1,-5,5h-41a5,5,0,0,1,-5,-5v-8a5,5,0,0,1,5,-5z"></path><g id="node_text25" fill="black"><text id="kity_text_203" text-rendering="inherit" font-size="12" dy=".8em" y="638.7000000476837" x="980.5">E:focus</text></g></g><g id="minder_node27"><g id="node_expander27" style="cursor: pointer;"><path id="kity_path_424" fill="white" stroke="gray" d="M646.5,684.5A6,6,0,1,1,634.5,684.5A6,6,0,1,1,646.5,684.5"></path><path id="kity_path_425" fill="none" stroke="gray" d="M636,684.5L645,684.5"></path></g><path id="node_outline28" fill="rgb(238, 243, 246)" stroke="rgb(115, 161, 191)" d="M650.5,671.5h302a3,3,0,0,1,3,3v20a3,3,0,0,1,-3,3h-302a3,3,0,0,1,-3,-3v-20a3,3,0,0,1,3,-3z" stroke-width="1"></path><g id="node_text28" fill="black"><text id="kity_text_209" text-rendering="inherit" font-size="14" dy=".8em" y="675.4000000953674" x="667.5">The target pseudo-class(目标伪类选择器)</text></g></g><g id="minder_node28"><g id="node_expander26" display="none" style="cursor: pointer;"><path id="kity_path_421" fill="white" stroke="gray" d="M971.5,684.5A6,6,0,1,1,959.5,684.5A6,6,0,1,1,971.5,684.5"></path><path id="kity_path_422" fill="none" stroke="gray"></path></g><path id="node_outline27" fill="none" stroke="none" d="M976.5,675.5h321a5,5,0,0,1,5,5v8a5,5,0,0,1,-5,5h-321a5,5,0,0,1,-5,-5v-8a5,5,0,0,1,5,-5z"></path><g id="node_text27" fill="black"><text id="kity_text_207" text-rendering="inherit" font-size="12" dy=".8em" y="676.7000000476837" x="976.5">E:target&#xa0;&#xa0;选择匹配E的所有元素，且匹配元素被相关URL指向</text></g></g><g id="minder_node29"><g id="node_expander29" style="cursor: pointer;"><path id="kity_path_430" fill="white" stroke="gray" d="M522.5,33.5A6,6,0,1,1,510.5,33.5A6,6,0,1,1,522.5,33.5"></path><path id="kity_path_431" fill="none" stroke="gray" d="M512,33.5L521,33.5"></path></g><path id="node_outline30" fill="rgb(238, 243, 246)" stroke="rgb(115, 161, 191)" d="M372.5,20.5h134a3,3,0,0,1,3,3v20a3,3,0,0,1,-3,3h-134a3,3,0,0,1,-3,-3v-20a3,3,0,0,1,3,-3z" stroke-width="1"></path><g id="node_text30" fill="black"><text id="kity_text_213" text-rendering="inherit" font-size="14" dy=".8em" y="24.40000009536743" x="389.5">否定伪类选择器</text></g></g><g id="minder_node30"><g id="node_expander28" display="none" style="cursor: pointer;"><path id="kity_path_427" fill="white" stroke="gray" d="M365.5,33.5A6,6,0,1,1,353.5,33.5A6,6,0,1,1,365.5,33.5"></path><path id="kity_path_428" fill="none" stroke="gray"></path></g><path id="node_outline29" fill="none" stroke="none" d="M152.5,24.5h196a5,5,0,0,1,5,5v8a5,5,0,0,1,-5,5h-196a5,5,0,0,1,-5,-5v-8a5,5,0,0,1,5,-5z"></path><g id="node_text29" fill="black"><text id="kity_text_211" text-rendering="inherit" font-size="12" dy=".8em" y="25.700000047683716" x="152.5">E:not(F)&#xa0;&#xa0;匹配所有除元素F外的E元素</text></g></g><g id="minder_node31"><g id="node_expander31" style="cursor: pointer;"><path id="kity_path_436" fill="white" stroke="gray" d="M522.5,75.5A6,6,0,1,1,510.5,75.5A6,6,0,1,1,522.5,75.5"></path><path id="kity_path_437" fill="none" stroke="gray" d="M512,75.5L521,75.5"></path></g><path id="node_outline32" fill="rgb(238, 243, 246)" stroke="rgb(115, 161, 191)" d="M182.5,62.5h324a3,3,0,0,1,3,3v20a3,3,0,0,1,-3,3h-324a3,3,0,0,1,-3,-3v-20a3,3,0,0,1,3,-3z" stroke-width="1"></path><g id="node_text32" fill="black"><text id="kity_text_217" text-rendering="inherit" font-size="14" dy=".8em" y="66.40000009536743" x="199.5">The language pseudo-class(语言伪类选择器)</text></g></g><g id="minder_node32"><g id="node_expander30" display="none" style="cursor: pointer;"><path id="kity_path_433" fill="white" stroke="gray" d="M175.5,75.5A6,6,0,1,1,163.5,75.5A6,6,0,1,1,175.5,75.5"></path><path id="kity_path_434" fill="none" stroke="gray"></path></g><path id="node_outline31" fill="none" stroke="none" d="M124.5,66.5h34a5,5,0,0,1,5,5v8a5,5,0,0,1,-5,5h-34a5,5,0,0,1,-5,-5v-8a5,5,0,0,1,5,-5z"></path><g id="node_text31" fill="black"><text id="kity_text_215" text-rendering="inherit" font-size="12" dy=".8em" y="67.70000004768372" x="124.5">E:lang</text></g></g><g id="minder_node33"><g id="node_expander44" style="cursor: pointer;"><path id="kity_path_475" fill="white" stroke="gray" d="M522.5,256.5A6,6,0,1,1,510.5,256.5A6,6,0,1,1,522.5,256.5"></path><path id="kity_path_476" fill="none" stroke="gray" d="M512,256.5L521,256.5"></path></g><path id="node_outline45" fill="rgb(238, 243, 246)" stroke="rgb(115, 161, 191)" d="M222.5,243.5h284a3,3,0,0,1,3,3v20a3,3,0,0,1,-3,3h-284a3,3,0,0,1,-3,-3v-20a3,3,0,0,1,3,-3z" stroke-width="1"></path><g id="node_text45" fill="black"><text id="kity_text_243" text-rendering="inherit" font-size="14" dy=".8em" y="247.40000009536743" x="239.5">Structural pseudo-classes(结构性伪类)</text></g></g><g id="minder_node34"><g id="node_expander32" display="none" style="cursor: pointer;"><path id="kity_path_439" fill="white" stroke="gray" d="M215.5,113.5A6,6,0,1,1,203.5,113.5A6,6,0,1,1,215.5,113.5"></path><path id="kity_path_440" fill="none" stroke="gray"></path></g><path id="node_outline33" fill="none" stroke="none" d="M134.5,104.5h64a5,5,0,0,1,5,5v8a5,5,0,0,1,-5,5h-64a5,5,0,0,1,-5,-5v-8a5,5,0,0,1,5,-5z"></path><g id="node_text33" fill="black"><text id="kity_text_219" text-rendering="inherit" font-size="12" dy=".8em" y="105.70000004768372" x="134.5">E:fisrt-child</text></g></g><g id="minder_node35"><g id="node_expander33" display="none" style="cursor: pointer;"><path id="kity_path_442" fill="white" stroke="gray" d="M215.5,139.5A6,6,0,1,1,203.5,139.5A6,6,0,1,1,215.5,139.5"></path><path id="kity_path_443" fill="none" stroke="gray"></path></g><path id="node_outline34" fill="none" stroke="none" d="M136.5,130.5h62a5,5,0,0,1,5,5v8a5,5,0,0,1,-5,5h-62a5,5,0,0,1,-5,-5v-8a5,5,0,0,1,5,-5z"></path><g id="node_text34" fill="black"><text id="kity_text_221" text-rendering="inherit" font-size="12" dy=".8em" y="131.70000004768372" x="136.5">E:last-child</text></g></g><g id="minder_node36"><g id="node_expander34" display="none" style="cursor: pointer;"><path id="kity_path_445" fill="white" stroke="gray" d="M215.5,165.5A6,6,0,1,1,203.5,165.5A6,6,0,1,1,215.5,165.5"></path><path id="kity_path_446" fill="none" stroke="gray"></path></g><path id="node_outline35" fill="none" stroke="none" d="M164.5,156.5h34a5,5,0,0,1,5,5v8a5,5,0,0,1,-5,5h-34a5,5,0,0,1,-5,-5v-8a5,5,0,0,1,5,-5z"></path><g id="node_text35" fill="black"><text id="kity_text_223" text-rendering="inherit" font-size="12" dy=".8em" y="157.70000004768372" x="164.5">E:root</text></g></g><g id="minder_node37"><g id="node_expander35" display="none" style="cursor: pointer;"><path id="kity_path_448" fill="white" stroke="gray" d="M215.5,191.5A6,6,0,1,1,203.5,191.5A6,6,0,1,1,215.5,191.5"></path><path id="kity_path_449" fill="none" stroke="gray"></path></g><path id="node_outline36" fill="none" stroke="none" d="M111.5,182.5h87a5,5,0,0,1,5,5v8a5,5,0,0,1,-5,5h-87a5,5,0,0,1,-5,-5v-8a5,5,0,0,1,5,-5z"></path><g id="node_text36" fill="black"><text id="kity_text_225" text-rendering="inherit" font-size="12" dy=".8em" y="183.70000004768372" x="111.5">E F:nth-child(n)</text></g></g><g id="minder_node38"><g id="node_expander36" display="none" style="cursor: pointer;"><path id="kity_path_451" fill="white" stroke="gray" d="M215.5,217.5A6,6,0,1,1,203.5,217.5A6,6,0,1,1,215.5,217.5"></path><path id="kity_path_452" fill="none" stroke="gray"></path></g><path id="node_outline37" fill="none" stroke="none" d="M86.5,208.5h112a5,5,0,0,1,5,5v8a5,5,0,0,1,-5,5h-112a5,5,0,0,1,-5,-5v-8a5,5,0,0,1,5,-5z"></path><g id="node_text37" fill="black"><text id="kity_text_227" text-rendering="inherit" font-size="12" dy=".8em" y="209.70000004768372" x="86.5">E F:nth-last-child(n)</text></g></g><g id="minder_node39"><g id="node_expander37" display="none" style="cursor: pointer;"><path id="kity_path_454" fill="white" stroke="gray" d="M215.5,243.5A6,6,0,1,1,203.5,243.5A6,6,0,1,1,215.5,243.5"></path><path id="kity_path_455" fill="none" stroke="gray"></path></g><path id="node_outline38" fill="none" stroke="none" d="M106.5,234.5h92a5,5,0,0,1,5,5v8a5,5,0,0,1,-5,5h-92a5,5,0,0,1,-5,-5v-8a5,5,0,0,1,5,-5z"></path><g id="node_text38" fill="black"><text id="kity_text_229" text-rendering="inherit" font-size="12" dy=".8em" y="235.70000004768372" x="106.5">E:nth-of-type(n)</text></g></g><g id="minder_node40"><g id="node_expander38" display="none" style="cursor: pointer;"><path id="kity_path_457" fill="white" stroke="gray" d="M215.5,269.5A6,6,0,1,1,203.5,269.5A6,6,0,1,1,215.5,269.5"></path><path id="kity_path_458" fill="none" stroke="gray"></path></g><path id="node_outline39" fill="none" stroke="none" d="M81.5,260.5h117a5,5,0,0,1,5,5v8a5,5,0,0,1,-5,5h-117a5,5,0,0,1,-5,-5v-8a5,5,0,0,1,5,-5z"></path><g id="node_text39" fill="black"><text id="kity_text_231" text-rendering="inherit" font-size="12" dy=".8em" y="261.7000000476837" x="81.5">E:nth-last-of-type(n)</text></g></g><g id="minder_node41"><g id="node_expander39" display="none" style="cursor: pointer;"><path id="kity_path_460" fill="white" stroke="gray" d="M215.5,295.5A6,6,0,1,1,203.5,295.5A6,6,0,1,1,215.5,295.5"></path><path id="kity_path_461" fill="none" stroke="gray"></path></g><path id="node_outline40" fill="none" stroke="none" d="M119.5,286.5h79a5,5,0,0,1,5,5v8a5,5,0,0,1,-5,5h-79a5,5,0,0,1,-5,-5v-8a5,5,0,0,1,5,-5z"></path><g id="node_text40" fill="black"><text id="kity_text_233" text-rendering="inherit" font-size="12" dy=".8em" y="287.7000000476837" x="119.5">E:first-of-type</text></g></g><g id="minder_node42"><g id="node_expander40" display="none" style="cursor: pointer;"><path id="kity_path_463" fill="white" stroke="gray" d="M215.5,321.5A6,6,0,1,1,203.5,321.5A6,6,0,1,1,215.5,321.5"></path><path id="kity_path_464" fill="none" stroke="gray"></path></g><path id="node_outline41" fill="none" stroke="none" d="M129.5,312.5h69a5,5,0,0,1,5,5v8a5,5,0,0,1,-5,5h-69a5,5,0,0,1,-5,-5v-8a5,5,0,0,1,5,-5z"></path><g id="node_text41" fill="black"><text id="kity_text_235" text-rendering="inherit" font-size="12" dy=".8em" y="313.7000000476837" x="129.5">E:last-of-tye</text></g></g><g id="minder_node43"><g id="node_expander41" display="none" style="cursor: pointer;"><path id="kity_path_466" fill="white" stroke="gray" d="M215.5,347.5A6,6,0,1,1,203.5,347.5A6,6,0,1,1,215.5,347.5"></path><path id="kity_path_467" fill="none" stroke="gray"></path></g><path id="node_outline42" fill="none" stroke="none" d="M131.5,338.5h67a5,5,0,0,1,5,5v8a5,5,0,0,1,-5,5h-67a5,5,0,0,1,-5,-5v-8a5,5,0,0,1,5,-5z"></path><g id="node_text42" fill="black"><text id="kity_text_237" text-rendering="inherit" font-size="12" dy=".8em" y="339.7000000476837" x="131.5">E:only-child</text></g></g><g id="minder_node44"><g id="node_expander42" display="none" style="cursor: pointer;"><path id="kity_path_469" fill="white" stroke="gray" d="M215.5,373.5A6,6,0,1,1,203.5,373.5A6,6,0,1,1,215.5,373.5"></path><path id="kity_path_470" fill="none" stroke="gray"></path></g><path id="node_outline43" fill="none" stroke="none" d="M116.5,364.5h82a5,5,0,0,1,5,5v8a5,5,0,0,1,-5,5h-82a5,5,0,0,1,-5,-5v-8a5,5,0,0,1,5,-5z"></path><g id="node_text43" fill="black"><text id="kity_text_239" text-rendering="inherit" font-size="12" dy=".8em" y="365.7000000476837" x="116.5">E:only-of-type</text></g></g><g id="minder_node45"><g id="node_expander43" display="none" style="cursor: pointer;"><path id="kity_path_472" fill="white" stroke="gray" d="M215.5,399.5A6,6,0,1,1,203.5,399.5A6,6,0,1,1,215.5,399.5"></path><path id="kity_path_473" fill="none" stroke="gray"></path></g><path id="node_outline44" fill="none" stroke="none" d="M151.5,390.5h47a5,5,0,0,1,5,5v8a5,5,0,0,1,-5,5h-47a5,5,0,0,1,-5,-5v-8a5,5,0,0,1,5,-5z"></path><g id="node_text44" fill="black"><text id="kity_text_241" text-rendering="inherit" font-size="12" dy=".8em" y="391.7000000476837" x="151.5">E:empty</text></g></g><g id="minder_node46"><g id="node_expander56" style="cursor: pointer;"><path id="kity_path_511" fill="white" stroke="gray" d="M522.5,563.5A6,6,0,1,1,510.5,563.5A6,6,0,1,1,522.5,563.5"></path><path id="kity_path_512" fill="none" stroke="gray" d="M512,563.5L521,563.5"></path></g><path id="node_outline57" fill="rgb(238, 243, 246)" stroke="rgb(115, 161, 191)" d="M127.5,550.5h379a3,3,0,0,1,3,3v20a3,3,0,0,1,-3,3h-379a3,3,0,0,1,-3,-3v-20a3,3,0,0,1,3,-3z" stroke-width="1"></path><g id="node_text57" fill="black"><text id="kity_text_267" text-rendering="inherit" font-size="14" dy=".8em" y="554.4000000953674" x="144.5">The UI element states pseudo-classes(UI状态选择器)</text></g></g><g id="minder_node47"><g id="node_expander45" display="none" style="cursor: pointer;"><path id="kity_path_478" fill="white" stroke="gray" d="M120.5,433.5A6,6,0,1,1,108.5,433.5A6,6,0,1,1,120.5,433.5"></path><path id="kity_path_479" fill="none" stroke="gray"></path></g><path id="node_outline46" fill="none" stroke="none" d="M54.5,424.5h49a5,5,0,0,1,5,5v8a5,5,0,0,1,-5,5h-49a5,5,0,0,1,-5,-5v-8a5,5,0,0,1,5,-5z"></path><g id="node_text46" fill="black"><text id="kity_text_245" text-rendering="inherit" font-size="12" dy=".8em" y="425.7000000476837" x="54.5">:enabled</text></g></g><g id="minder_node48"><g id="node_expander46" display="none" style="cursor: pointer;"><path id="kity_path_481" fill="white" stroke="gray" d="M120.5,459.5A6,6,0,1,1,108.5,459.5A6,6,0,1,1,120.5,459.5"></path><path id="kity_path_482" fill="none" stroke="gray"></path></g><path id="node_outline47" fill="none" stroke="none" d="M52.5,450.5h51a5,5,0,0,1,5,5v8a5,5,0,0,1,-5,5h-51a5,5,0,0,1,-5,-5v-8a5,5,0,0,1,5,-5z"></path><g id="node_text47" fill="black"><text id="kity_text_247" text-rendering="inherit" font-size="12" dy=".8em" y="451.7000000476837" x="52.5">:disabled</text></g></g><g id="minder_node49"><g id="node_expander47" display="none" style="cursor: pointer;"><path id="kity_path_484" fill="white" stroke="gray" d="M120.5,485.5A6,6,0,1,1,108.5,485.5A6,6,0,1,1,120.5,485.5"></path><path id="kity_path_485" fill="none" stroke="gray"></path></g><path id="node_outline48" fill="none" stroke="none" d="M44.5,476.5h59a5,5,0,0,1,5,5v8a5,5,0,0,1,-5,5h-59a5,5,0,0,1,-5,-5v-8a5,5,0,0,1,5,-5z"></path><g id="node_text48" fill="black"><text id="kity_text_249" text-rendering="inherit" font-size="12" dy=".8em" y="477.7000000476837" x="44.5">:read-only</text></g></g><g id="minder_node50"><g id="node_expander48" display="none" style="cursor: pointer;"><path id="kity_path_487" fill="white" stroke="gray" d="M120.5,511.5A6,6,0,1,1,108.5,511.5A6,6,0,1,1,120.5,511.5"></path><path id="kity_path_488" fill="none" stroke="gray"></path></g><path id="node_outline49" fill="none" stroke="none" d="M40.5,502.5h63a5,5,0,0,1,5,5v8a5,5,0,0,1,-5,5h-63a5,5,0,0,1,-5,-5v-8a5,5,0,0,1,5,-5z"></path><g id="node_text49" fill="black"><text id="kity_text_251" text-rendering="inherit" font-size="12" dy=".8em" y="503.7000000476837" x="40.5">:read-write</text></g></g><g id="minder_node51"><g id="node_expander49" display="none" style="cursor: pointer;"><path id="kity_path_490" fill="white" stroke="gray" d="M120.5,537.5A6,6,0,1,1,108.5,537.5A6,6,0,1,1,120.5,537.5"></path><path id="kity_path_491" fill="none" stroke="gray"></path></g><path id="node_outline50" fill="none" stroke="none" d="M51.5,528.5h52a5,5,0,0,1,5,5v8a5,5,0,0,1,-5,5h-52a5,5,0,0,1,-5,-5v-8a5,5,0,0,1,5,-5z"></path><g id="node_text50" fill="black"><text id="kity_text_253" text-rendering="inherit" font-size="12" dy=".8em" y="529.7000000476837" x="51.5">:required</text></g></g><g id="minder_node52"><g id="node_expander50" display="none" style="cursor: pointer;"><path id="kity_path_493" fill="white" stroke="gray" d="M120.5,563.5A6,6,0,1,1,108.5,563.5A6,6,0,1,1,120.5,563.5"></path><path id="kity_path_494" fill="none" stroke="gray"></path></g><path id="node_outline51" fill="none" stroke="none" d="M52.5,554.5h51a5,5,0,0,1,5,5v8a5,5,0,0,1,-5,5h-51a5,5,0,0,1,-5,-5v-8a5,5,0,0,1,5,-5z"></path><g id="node_text51" fill="black"><text id="kity_text_255" text-rendering="inherit" font-size="12" dy=".8em" y="555.7000000476837" x="52.5">:optional</text></g></g><g id="minder_node53"><g id="node_expander51" display="none" style="cursor: pointer;"><path id="kity_path_496" fill="white" stroke="gray" d="M120.5,589.5A6,6,0,1,1,108.5,589.5A6,6,0,1,1,120.5,589.5"></path><path id="kity_path_497" fill="none" stroke="gray"></path></g><path id="node_outline52" fill="none" stroke="none" d="M53.5,580.5h50a5,5,0,0,1,5,5v8a5,5,0,0,1,-5,5h-50a5,5,0,0,1,-5,-5v-8a5,5,0,0,1,5,-5z"></path><g id="node_text52" fill="black"><text id="kity_text_257" text-rendering="inherit" font-size="12" dy=".8em" y="581.7000000476837" x="53.5">:checked</text></g></g><g id="minder_node54"><g id="node_expander52" display="none" style="cursor: pointer;"><path id="kity_path_499" fill="white" stroke="gray" d="M120.5,615.5A6,6,0,1,1,108.5,615.5A6,6,0,1,1,120.5,615.5"></path><path id="kity_path_500" fill="none" stroke="gray"></path></g><path id="node_outline53" fill="none" stroke="none" d="M51.5,606.5h52a5,5,0,0,1,5,5v8a5,5,0,0,1,-5,5h-52a5,5,0,0,1,-5,-5v-8a5,5,0,0,1,5,-5z"></path><g id="node_text53" fill="black"><text id="kity_text_259" text-rendering="inherit" font-size="12" dy=".8em" y="607.7000000476837" x="51.5">:in-range</text></g></g><g id="minder_node55"><g id="node_expander53" display="none" style="cursor: pointer;"><path id="kity_path_502" fill="white" stroke="gray" d="M120.5,641.5A6,6,0,1,1,108.5,641.5A6,6,0,1,1,120.5,641.5"></path><path id="kity_path_503" fill="none" stroke="gray"></path></g><path id="node_outline54" fill="none" stroke="none" d="M25.5,632.5h78a5,5,0,0,1,5,5v8a5,5,0,0,1,-5,5h-78a5,5,0,0,1,-5,-5v-8a5,5,0,0,1,5,-5z"></path><g id="node_text54" fill="black"><text id="kity_text_261" text-rendering="inherit" font-size="12" dy=".8em" y="633.7000000476837" x="25.5">:out-of-range</text></g></g><g id="minder_node56"><g id="node_expander54" display="none" style="cursor: pointer;"><path id="kity_path_505" fill="white" stroke="gray" d="M120.5,667.5A6,6,0,1,1,108.5,667.5A6,6,0,1,1,120.5,667.5"></path><path id="kity_path_506" fill="none" stroke="gray"></path></g><path id="node_outline55" fill="none" stroke="none" d="M63.5,658.5h40a5,5,0,0,1,5,5v8a5,5,0,0,1,-5,5h-40a5,5,0,0,1,-5,-5v-8a5,5,0,0,1,5,-5z"></path><g id="node_text55" fill="black"><text id="kity_text_263" text-rendering="inherit" font-size="12" dy=".8em" y="659.7000000476837" x="63.5">:invalid</text></g></g><g id="minder_node57"><g id="node_expander55" display="none" style="cursor: pointer;"><path id="kity_path_508" fill="white" stroke="gray" d="M120.5,693.5A6,6,0,1,1,108.5,693.5A6,6,0,1,1,120.5,693.5"></path><path id="kity_path_509" fill="none" stroke="gray"></path></g><path id="node_outline56" fill="none" stroke="none" d="M73.5,684.5h30a5,5,0,0,1,5,5v8a5,5,0,0,1,-5,5h-30a5,5,0,0,1,-5,-5v-8a5,5,0,0,1,5,-5z"></path><g id="node_text56" fill="black"><text id="kity_text_265" text-rendering="inherit" font-size="12" dy=".8em" y="685.7000000476837" x="73.5">:valid</text></g></g><g id="minder_node58"><g id="node_expander63" style="cursor: pointer;"><path id="kity_path_532" fill="white" stroke="gray" d="M522.5,792.5A6,6,0,1,1,510.5,792.5A6,6,0,1,1,522.5,792.5"></path><path id="kity_path_533" fill="none" stroke="gray" d="M512,792.5L521,792.5"></path></g><path id="node_outline64" fill="rgb(238, 243, 246)" stroke="rgb(115, 161, 191)" d="M303.5,779.5h203a3,3,0,0,1,3,3v20a3,3,0,0,1,-3,3h-203a3,3,0,0,1,-3,-3v-20a3,3,0,0,1,3,-3z" stroke-width="1"></path><g id="node_text64" fill="black"><text id="kity_text_281" text-rendering="inherit" font-size="14" dy=".8em" y="783.4000000953674" x="320.5">伪元素(Pseudo-elements)</text></g></g><g id="minder_node59"><g id="node_expander57" display="none" style="cursor: pointer;"><path id="kity_path_514" fill="white" stroke="gray" d="M296.5,727.5A6,6,0,1,1,284.5,727.5A6,6,0,1,1,296.5,727.5"></path><path id="kity_path_515" fill="none" stroke="gray"></path></g><path id="node_outline58" fill="none" stroke="none" d="M222.5,718.5h57a5,5,0,0,1,5,5v8a5,5,0,0,1,-5,5h-57a5,5,0,0,1,-5,-5v-8a5,5,0,0,1,5,-5z"></path><g id="node_text58" fill="black"><text id="kity_text_269" text-rendering="inherit" font-size="12" dy=".8em" y="719.7000000476837" x="222.5">::selection</text></g></g><g id="minder_node60"><g id="node_expander58" display="none" style="cursor: pointer;"><path id="kity_path_517" fill="white" stroke="gray" d="M296.5,753.5A6,6,0,1,1,284.5,753.5A6,6,0,1,1,296.5,753.5"></path><path id="kity_path_518" fill="none" stroke="gray"></path></g><path id="node_outline59" fill="none" stroke="none" d="M211.5,744.5h68a5,5,0,0,1,5,5v8a5,5,0,0,1,-5,5h-68a5,5,0,0,1,-5,-5v-8a5,5,0,0,1,5,-5z"></path><g id="node_text59" fill="black"><text id="kity_text_271" text-rendering="inherit" font-size="12" dy=".8em" y="745.7000000476837" x="211.5">placeholder</text></g></g><g id="minder_node61"><g id="node_expander59" display="none" style="cursor: pointer;"><path id="kity_path_520" fill="white" stroke="gray" d="M296.5,779.5A6,6,0,1,1,284.5,779.5A6,6,0,1,1,296.5,779.5"></path><path id="kity_path_521" fill="none" stroke="gray"></path></g><path id="node_outline60" fill="none" stroke="none" d="M225.5,770.5h54a5,5,0,0,1,5,5v8a5,5,0,0,1,-5,5h-54a5,5,0,0,1,-5,-5v-8a5,5,0,0,1,5,-5z"></path><g id="node_text60" fill="black"><text id="kity_text_273" text-rendering="inherit" font-size="12" dy=".8em" y="771.7000000476837" x="225.5">::first-line</text></g></g><g id="minder_node62"><g id="node_expander60" display="none" style="cursor: pointer;"><path id="kity_path_523" fill="white" stroke="gray" d="M296.5,805.5A6,6,0,1,1,284.5,805.5A6,6,0,1,1,296.5,805.5"></path><path id="kity_path_524" fill="none" stroke="gray"></path></g><path id="node_outline61" fill="none" stroke="none" d="M215.5,796.5h64a5,5,0,0,1,5,5v8a5,5,0,0,1,-5,5h-64a5,5,0,0,1,-5,-5v-8a5,5,0,0,1,5,-5z"></path><g id="node_text61" fill="black"><text id="kity_text_275" text-rendering="inherit" font-size="12" dy=".8em" y="797.7000000476837" x="215.5">::first-letter</text></g></g><g id="minder_node63"><g id="node_expander61" display="none" style="cursor: pointer;"><path id="kity_path_526" fill="white" stroke="gray" d="M296.5,831.5A6,6,0,1,1,284.5,831.5A6,6,0,1,1,296.5,831.5"></path><path id="kity_path_527" fill="none" stroke="gray"></path></g><path id="node_outline62" fill="none" stroke="none" d="M235.5,822.5h44a5,5,0,0,1,5,5v8a5,5,0,0,1,-5,5h-44a5,5,0,0,1,-5,-5v-8a5,5,0,0,1,5,-5z"></path><g id="node_text62" fill="black"><text id="kity_text_277" text-rendering="inherit" font-size="12" dy=".8em" y="823.7000000476837" x="235.5">::before</text></g></g><g id="minder_node64"><g id="node_expander62" display="none" style="cursor: pointer;"><path id="kity_path_529" fill="white" stroke="gray" d="M296.5,857.5A6,6,0,1,1,284.5,857.5A6,6,0,1,1,296.5,857.5"></path><path id="kity_path_530" fill="none" stroke="gray"></path></g><path id="node_outline63" fill="none" stroke="none" d="M246.5,848.5h33a5,5,0,0,1,5,5v8a5,5,0,0,1,-5,5h-33a5,5,0,0,1,-5,-5v-8a5,5,0,0,1,5,-5z"></path><g id="node_text63" fill="black"><text id="kity_text_279" text-rendering="inherit" font-size="12" dy=".8em" y="849.7000000476837" x="246.5">::after</text></g></g></g></g></svg>