<svg id="kity_svg_6" xmlns="http://www.w3.org/2000/svg" xmlns:xlink="http://www.w3.org/1999/xlink" version="1.1" width="1090" height="688" style="background: rgb(251, 251, 251); visibility: visible;" viewBox="0 0 1090 688"><defs id="kity_defs_7"><linearGradient id="kity_linearGradient_17" x1="0" y1="0" x2="0" y2="1"><stop id="kity_stop_18" offset="0" stop-color="rgb(255, 255, 255)"></stop><stop id="kity_stop_19" offset="1" stop-color="rgb(204, 204, 204)"></stop></linearGradient><marker id="kity_marker_2" orient="auto" refX="6" refY="0" viewBox="-7 -7 14 14" markerWidth="7" markerHeight="7" markerUnits="userSpaceOnUse"><path id="kity_path_3" fill="rgb(115, 161, 191)" stroke="none" d="M6,0A6,6,0,1,1,-6,0A6,6,0,1,1,6,0"></path></marker></defs><g id="kity_g_8"><g id="minder1" text-rendering="optimize-speed"><g id="minder_connect_group1"><path id="kity_path_31" fill="none" stroke="rgb(115, 161, 191)" stroke-width="1" d="M71,356.5A66.5,191,0,0,1,137.5,165.5"></path><path id="kity_path_39" fill="none" stroke="rgb(115, 161, 191)" stroke-width="1" d="M71,356.5A66.5,191,0,0,0,137.5,547.5"></path><path id="kity_path_47" fill="none" stroke="rgb(115, 161, 191)" stroke-width="1" d="M237.5,165.5C245.5,165.5,245.5,68.5,253.5,68.5"></path><path id="kity_path_63" fill="none" stroke="rgb(115, 161, 191)" stroke-width="1" d="M237.5,165.5C245.5,165.5,245.5,172.5,253.5,172.5"></path><path id="kity_path_71" fill="none" stroke="rgb(115, 161, 191)" stroke-width="1" d="M237.5,165.5C245.5,165.5,245.5,263.5,253.5,263.5"></path><path id="kity_path_79" fill="none" stroke="rgb(115, 161, 191)" stroke-width="1" d="M256.5,547.5C264.5,547.5,264.5,440.5,272.5,440.5"></path><path id="kity_path_87" fill="none" stroke="rgb(115, 161, 191)" stroke-width="1" d="M256.5,547.5C264.5,547.5,264.5,654.5,272.5,654.5"></path><path id="kity_path_95" fill="none" stroke="rgb(115, 161, 191)" stroke-width="1" d="M341.5,440.5C349.5,440.5,349.5,324.5,357.5,324.5"></path><path id="kity_path_103" fill="none" stroke="rgb(115, 161, 191)" stroke-width="1" d="M341.5,440.5C349.5,440.5,349.5,372.5,357.5,372.5"></path><path id="kity_path_111" fill="none" stroke="rgb(115, 161, 191)" stroke-width="1" d="M341.5,440.5C349.5,440.5,349.5,442.5,357.5,442.5"></path><path id="kity_path_119" fill="none" stroke="rgb(115, 161, 191)" stroke-width="1" d="M341.5,440.5C349.5,440.5,349.5,557.5,357.5,557.5"></path><path id="kity_path_127" fill="none" stroke="rgb(115, 161, 191)" stroke-width="1" d="M352.5,68.5C360.5,68.5,360.5,42.5,368.5,42.5"></path><path id="kity_path_135" fill="none" stroke="rgb(115, 161, 191)" stroke-width="1" d="M352.5,68.5C360.5,68.5,360.5,94.5,368.5,94.5"></path><path id="kity_path_143" fill="none" stroke="rgb(115, 161, 191)" stroke-width="1" d="M334.5,172.5C342.5,172.5,342.5,146.5,350.5,146.5"></path><path id="kity_path_151" fill="none" stroke="rgb(115, 161, 191)" stroke-width="1" d="M334.5,172.5C342.5,172.5,342.5,198.5,350.5,198.5"></path><path id="kity_path_159" fill="none" stroke="rgb(115, 161, 191)" stroke-width="1" d="M531.5,42.5C539.5,42.5,539.5,29.5,547.5,29.5"></path><path id="kity_path_175" fill="none" stroke="rgb(115, 161, 191)" stroke-width="1" d="M531.5,42.5C539.5,42.5,539.5,55.5,547.5,55.5"></path><path id="kity_path_183" fill="none" stroke="rgb(115, 161, 191)" stroke-width="1" d="M506.5,94.5C514.5,94.5,514.5,81.5,522.5,81.5"></path><path id="kity_path_191" fill="none" stroke="rgb(115, 161, 191)" stroke-width="1" d="M506.5,94.5C514.5,94.5,514.5,107.5,522.5,107.5"></path><path id="kity_path_199" fill="none" stroke="rgb(115, 161, 191)" stroke-width="1" d="M513.5,146.5C521.5,146.5,521.5,133.5,529.5,133.5"></path><path id="kity_path_207" fill="none" stroke="rgb(115, 161, 191)" stroke-width="1" d="M513.5,146.5C521.5,146.5,521.5,159.5,529.5,159.5"></path><path id="kity_path_215" fill="none" stroke="rgb(115, 161, 191)" stroke-width="1" d="M488.5,198.5C496.5,198.5,496.5,185.5,504.5,185.5"></path><path id="kity_path_223" fill="none" stroke="rgb(115, 161, 191)" stroke-width="1" d="M488.5,198.5C496.5,198.5,496.5,211.5,504.5,211.5"></path><path id="kity_path_231" fill="none" stroke="rgb(115, 161, 191)" stroke-width="1" d="M289.5,263.5C297.5,263.5,297.5,237.5,305.5,237.5"></path><path id="kity_path_239" fill="none" stroke="rgb(115, 161, 191)" stroke-width="1" d="M289.5,263.5C297.5,263.5,297.5,263.5,305.5,263.5"></path><path id="kity_path_247" fill="none" stroke="rgb(115, 161, 191)" stroke-width="1" d="M289.5,263.5C297.5,263.5,297.5,289.5,305.5,289.5"></path><path id="kity_path_255" fill="none" stroke="rgb(115, 161, 191)" stroke-width="1" d="M439.5,372.5C447.5,372.5,447.5,359.5,455.5,359.5"></path><path id="kity_path_264" fill="none" stroke="rgb(115, 161, 191)" stroke-width="1" d="M439.5,372.5C447.5,372.5,447.5,394.5,455.5,394.5"></path><path id="kity_path_272" fill="none" stroke="rgb(115, 161, 191)" stroke-width="1" d="M433.5,442.5C441.5,442.5,441.5,429.5,449.5,429.5"></path><path id="kity_path_281" fill="none" stroke="rgb(115, 161, 191)" stroke-width="1" d="M433.5,442.5C441.5,442.5,441.5,464.5,449.5,464.5"></path><path id="kity_path_289" fill="none" stroke="rgb(115, 161, 191)" stroke-width="1" d="M442.5,557.5C450.5,557.5,450.5,490.5,458.5,490.5"></path><path id="kity_path_297" fill="none" stroke="rgb(115, 161, 191)" stroke-width="1" d="M442.5,557.5C450.5,557.5,450.5,570.5,458.5,570.5"></path><path id="kity_path_311" fill="none" stroke="rgb(115, 161, 191)" stroke-width="1" d="M307.5,654.5C315.5,654.5,315.5,654.5,323.5,654.5"></path></g><g id="minder_node1"><path id="node_outline1" fill="rgb(115, 161, 191)" stroke="rgb(115, 161, 191)" d="M25.5,342.5h91a5,5,0,0,1,5,5v18a5,5,0,0,1,-5,5h-91a5,5,0,0,1,-5,-5v-18a5,5,0,0,1,5,-5z" stroke-width="3"></path><g id="node_text1" fill="white"><text id="kity_text_22" text-rendering="inherit" font-size="16" dy=".8em" y="346.09999990463257" x="32.5">CSS盒模型</text></g></g><g id="kity_g_12"><path id="kity_path_13" fill="none" stroke="none" d="M32.5,356.5h0v0h0z"></path></g><g id="kity_g_14"><path id="kity_path_15" fill="none" stroke="none" d="M32.5,356.5h0v0h0z"></path><path id="kity_path_16" fill="none" stroke="none"></path></g><g id="minder_node2"><g id="node_expander1" style="cursor: pointer;"><path id="kity_path_36" fill="white" stroke="gray" d="M138.5,165.5A6,6,0,1,1,126.5,165.5A6,6,0,1,1,138.5,165.5"></path><path id="kity_path_37" fill="none" stroke="gray" d="M128,165.5L137,165.5"></path></g><path id="node_outline2" fill="rgb(238, 243, 246)" stroke="rgb(115, 161, 191)" d="M142.5,152.5h92a3,3,0,0,1,3,3v20a3,3,0,0,1,-3,3h-92a3,3,0,0,1,-3,-3v-20a3,3,0,0,1,3,-3z" stroke-width="1"></path><g id="node_text2" fill="black"><text id="kity_text_33" text-rendering="inherit" font-size="14" dy=".8em" y="156.40000009536743" x="159.5">知识回顾</text></g></g><g id="minder_node3"><g id="node_expander2" style="cursor: pointer;"><path id="kity_path_44" fill="white" stroke="gray" d="M138.5,547.5A6,6,0,1,1,126.5,547.5A6,6,0,1,1,138.5,547.5"></path><path id="kity_path_45" fill="none" stroke="gray" d="M128,547.5L137,547.5"></path></g><path id="node_outline3" fill="rgb(238, 243, 246)" stroke="rgb(115, 161, 191)" d="M142.5,534.5h111a3,3,0,0,1,3,3v20a3,3,0,0,1,-3,3h-111a3,3,0,0,1,-3,-3v-20a3,3,0,0,1,3,-3z" stroke-width="1"></path><g id="node_text3" fill="black"><text id="kity_text_41" text-rendering="inherit" font-size="14" dy=".8em" y="538.4000000953674" x="159.5">CSS3盒模型</text></g></g><g id="minder_node4"><g id="node_expander3" style="cursor: pointer;"><path id="kity_path_52" fill="white" stroke="gray" d="M253.5,68.5A6,6,0,1,1,241.5,68.5A6,6,0,1,1,253.5,68.5"></path><path id="kity_path_53" fill="none" stroke="gray" d="M243,68.5L252,68.5"></path></g><path id="node_outline4" fill="none" stroke="none" d="M258.5,59.5h89a5,5,0,0,1,5,5v8a5,5,0,0,1,-5,5h-89a5,5,0,0,1,-5,-5v-8a5,5,0,0,1,5,-5z" stroke-width="3"></path><g id="node_text4" fill="black"><text id="kity_text_49" text-rendering="inherit" font-size="12" dy=".8em" y="60.700000047683716" x="258.5">W3C标准盒模型</text></g></g><g id="minder_node6"><g id="node_expander5" style="cursor: pointer;"><path id="kity_path_68" fill="white" stroke="gray" d="M253.5,172.5A6,6,0,1,1,241.5,172.5A6,6,0,1,1,253.5,172.5"></path><path id="kity_path_69" fill="none" stroke="gray" d="M243,172.5L252,172.5"></path></g><path id="node_outline6" fill="none" stroke="none" d="M258.5,163.5h71a5,5,0,0,1,5,5v8a5,5,0,0,1,-5,5h-71a5,5,0,0,1,-5,-5v-8a5,5,0,0,1,5,-5z" stroke-width="3"></path><g id="node_text6" fill="black"><text id="kity_text_65" text-rendering="inherit" font-size="12" dy=".8em" y="164.70000004768372" x="258.5">IE的怪异模型</text></g></g><g id="minder_node7"><g id="node_expander6" style="cursor: pointer;"><path id="kity_path_76" fill="white" stroke="gray" d="M253.5,263.5A6,6,0,1,1,241.5,263.5A6,6,0,1,1,253.5,263.5"></path><path id="kity_path_77" fill="none" stroke="gray" d="M243,263.5L252,263.5"></path></g><path id="node_outline7" fill="none" stroke="none" d="M258.5,254.5h26a5,5,0,0,1,5,5v8a5,5,0,0,1,-5,5h-26a5,5,0,0,1,-5,-5v-8a5,5,0,0,1,5,-5z" stroke-width="3"></path><g id="node_text7" fill="black"><text id="kity_text_73" text-rendering="inherit" font-size="12" dy=".8em" y="255.70000004768372" x="258.5">资料</text></g></g><g id="minder_node8"><g id="node_expander7" style="cursor: pointer;"><path id="kity_path_84" fill="white" stroke="gray" d="M272.5,440.5A6,6,0,1,1,260.5,440.5A6,6,0,1,1,272.5,440.5"></path><path id="kity_path_85" fill="none" stroke="gray" d="M262,440.5L271,440.5"></path></g><path id="node_outline8" fill="none" stroke="none" d="M277.5,431.5h59a5,5,0,0,1,5,5v8a5,5,0,0,1,-5,5h-59a5,5,0,0,1,-5,-5v-8a5,5,0,0,1,5,-5z" stroke-width="3"></path><g id="node_text8" fill="black"><text id="kity_text_81" text-rendering="inherit" font-size="12" dy=".8em" y="432.7000000476837" x="277.5">box-sizing</text></g></g><g id="minder_node9"><g id="node_expander8" style="cursor: pointer;"><path id="kity_path_92" fill="white" stroke="gray" d="M272.5,654.5A6,6,0,1,1,260.5,654.5A6,6,0,1,1,272.5,654.5"></path><path id="kity_path_93" fill="none" stroke="gray" d="M262,654.5L271,654.5"></path></g><path id="node_outline9" fill="none" stroke="none" d="M277.5,645.5h25a5,5,0,0,1,5,5v8a5,5,0,0,1,-5,5h-25a5,5,0,0,1,-5,-5v-8a5,5,0,0,1,5,-5z" stroke-width="3"></path><g id="node_text9" fill="black"><text id="kity_text_89" text-rendering="inherit" font-size="12" dy=".8em" y="646.7000000476837" x="277.5">素材</text></g></g><g id="minder_node10"><g id="node_expander9" style="cursor: pointer;" display="none"><path id="kity_path_100" fill="white" stroke="gray" d="M357.5,324.5A6,6,0,1,1,345.5,324.5A6,6,0,1,1,357.5,324.5"></path><path id="kity_path_101" fill="none" stroke="gray"></path></g><path id="node_outline10" fill="none" stroke="none" d="M362.5,315.5h145a5,5,0,0,1,5,5v8a5,5,0,0,1,-5,5h-145a5,5,0,0,1,-5,-5v-8a5,5,0,0,1,5,-5z" stroke-width="3"></path><g id="node_text10" fill="black"><text id="kity_text_97" text-rendering="inherit" font-size="12" dy=".8em" y="316.7000000476837" x="362.5">设置盒模型的尺寸解析方式</text></g></g><g id="minder_node11"><g id="node_expander10" style="cursor: pointer;"><path id="kity_path_108" fill="white" stroke="gray" d="M357.5,372.5A6,6,0,1,1,345.5,372.5A6,6,0,1,1,357.5,372.5"></path><path id="kity_path_109" fill="none" stroke="gray" d="M347,372.5L356,372.5"></path></g><path id="node_outline11" fill="none" stroke="none" d="M362.5,363.5h72a5,5,0,0,1,5,5v8a5,5,0,0,1,-5,5h-72a5,5,0,0,1,-5,-5v-8a5,5,0,0,1,5,-5z" stroke-width="3"></path><g id="node_text11" fill="black"><text id="kity_text_105" text-rendering="inherit" font-size="12" dy=".8em" y="364.7000000476837" x="362.5">content-box</text></g></g><g id="minder_node12"><g id="node_expander11" style="cursor: pointer;"><path id="kity_path_116" fill="white" stroke="gray" d="M357.5,442.5A6,6,0,1,1,345.5,442.5A6,6,0,1,1,357.5,442.5"></path><path id="kity_path_117" fill="none" stroke="gray" d="M347,442.5L356,442.5"></path></g><path id="node_outline12" fill="none" stroke="none" d="M362.5,433.5h66a5,5,0,0,1,5,5v8a5,5,0,0,1,-5,5h-66a5,5,0,0,1,-5,-5v-8a5,5,0,0,1,5,-5z" stroke-width="3"></path><g id="node_text12" fill="black"><text id="kity_text_113" text-rendering="inherit" font-size="12" dy=".8em" y="434.7000000476837" x="362.5">border-box</text></g></g><g id="minder_node13"><g id="node_expander12" style="cursor: pointer;"><path id="kity_path_124" fill="white" stroke="gray" d="M357.5,557.5A6,6,0,1,1,345.5,557.5A6,6,0,1,1,357.5,557.5"></path><path id="kity_path_125" fill="none" stroke="gray" d="M347,557.5L356,557.5"></path></g><path id="node_outline13" fill="none" stroke="none" d="M362.5,548.5h75a5,5,0,0,1,5,5v8a5,5,0,0,1,-5,5h-75a5,5,0,0,1,-5,-5v-8a5,5,0,0,1,5,-5z" stroke-width="3"></path><g id="node_text13" fill="black"><text id="kity_text_121" text-rendering="inherit" font-size="12" dy=".8em" y="549.7000000476837" x="362.5">padding-box</text></g></g><g id="minder_node14"><g id="node_expander13" style="cursor: pointer;"><path id="kity_path_132" fill="white" stroke="gray" d="M368.5,42.5A6,6,0,1,1,356.5,42.5A6,6,0,1,1,368.5,42.5"></path><path id="kity_path_133" fill="none" stroke="gray" d="M358,42.5L367,42.5"></path></g><path id="node_outline14" fill="none" stroke="none" d="M373.5,33.5h153a5,5,0,0,1,5,5v8a5,5,0,0,1,-5,5h-153a5,5,0,0,1,-5,-5v-8a5,5,0,0,1,5,-5z" stroke-width="3"></path><g id="node_text14" fill="black"><text id="kity_text_129" text-rendering="inherit" font-size="12" dy=".8em" y="34.700000047683716" x="373.5">外盒尺寸(元素所占空间大小)</text></g></g><g id="minder_node15"><g id="node_expander14" style="cursor: pointer;"><path id="kity_path_140" fill="white" stroke="gray" d="M368.5,94.5A6,6,0,1,1,356.5,94.5A6,6,0,1,1,368.5,94.5"></path><path id="kity_path_141" fill="none" stroke="gray" d="M358,94.5L367,94.5"></path></g><path id="node_outline15" fill="none" stroke="none" d="M373.5,85.5h128a5,5,0,0,1,5,5v8a5,5,0,0,1,-5,5h-128a5,5,0,0,1,-5,-5v-8a5,5,0,0,1,5,-5z" stroke-width="3"></path><g id="node_text15" fill="black"><text id="kity_text_137" text-rendering="inherit" font-size="12" dy=".8em" y="86.70000004768372" x="373.5">内盒尺寸(元素所占大小)</text></g></g><g id="minder_node16"><g id="node_expander15" style="cursor: pointer;"><path id="kity_path_148" fill="white" stroke="gray" d="M350.5,146.5A6,6,0,1,1,338.5,146.5A6,6,0,1,1,350.5,146.5"></path><path id="kity_path_149" fill="none" stroke="gray" d="M340,146.5L349,146.5"></path></g><path id="node_outline16" fill="none" stroke="none" d="M355.5,137.5h153a5,5,0,0,1,5,5v8a5,5,0,0,1,-5,5h-153a5,5,0,0,1,-5,-5v-8a5,5,0,0,1,5,-5z" stroke-width="3"></path><g id="node_text16" fill="black"><text id="kity_text_145" text-rendering="inherit" font-size="12" dy=".8em" y="138.70000004768372" x="355.5">外盒尺寸(元素所占空间大小)</text></g></g><g id="minder_node17"><g id="node_expander16" style="cursor: pointer;"><path id="kity_path_156" fill="white" stroke="gray" d="M350.5,198.5A6,6,0,1,1,338.5,198.5A6,6,0,1,1,350.5,198.5"></path><path id="kity_path_157" fill="none" stroke="gray" d="M340,198.5L349,198.5"></path></g><path id="node_outline17" fill="none" stroke="none" d="M355.5,189.5h128a5,5,0,0,1,5,5v8a5,5,0,0,1,-5,5h-128a5,5,0,0,1,-5,-5v-8a5,5,0,0,1,5,-5z" stroke-width="3"></path><g id="node_text17" fill="black"><text id="kity_text_153" text-rendering="inherit" font-size="12" dy=".8em" y="190.70000004768372" x="355.5">内盒尺寸(元素所占大小)</text></g></g><g id="minder_node18"><g id="node_expander17" style="cursor: pointer;" display="none"><path id="kity_path_164" fill="white" stroke="gray" d="M547.5,29.5A6,6,0,1,1,535.5,29.5A6,6,0,1,1,547.5,29.5"></path><path id="kity_path_165" fill="none" stroke="gray"></path></g><path id="node_outline18" fill="none" stroke="none" d="M552.5,20.5h334a5,5,0,0,1,5,5v8a5,5,0,0,1,-5,5h-334a5,5,0,0,1,-5,-5v-8a5,5,0,0,1,5,-5z" stroke-width="3"></path><g id="node_text18" fill="black"><text id="kity_text_161" text-rendering="inherit" font-size="12" dy=".8em" y="21.700000047683716" x="552.5">元素实际宽度 --&gt; content width+padding+border+margin</text></g></g><g id="minder_node20"><g id="node_expander19" style="cursor: pointer;" display="none"><path id="kity_path_180" fill="white" stroke="gray" d="M547.5,55.5A6,6,0,1,1,535.5,55.5A6,6,0,1,1,547.5,55.5"></path><path id="kity_path_181" fill="none" stroke="gray"></path></g><path id="node_outline20" fill="none" stroke="none" d="M552.5,46.5h338a5,5,0,0,1,5,5v8a5,5,0,0,1,-5,5h-338a5,5,0,0,1,-5,-5v-8a5,5,0,0,1,5,-5z" stroke-width="3"></path><g id="node_text20" fill="black"><text id="kity_text_177" text-rendering="inherit" font-size="12" dy=".8em" y="47.700000047683716" x="552.5">元素实际高度 --&gt; content height+padding+border+margin</text></g></g><g id="minder_node21"><g id="node_expander20" style="cursor: pointer;" display="none"><path id="kity_path_188" fill="white" stroke="gray" d="M522.5,81.5A6,6,0,1,1,510.5,81.5A6,6,0,1,1,522.5,81.5"></path><path id="kity_path_189" fill="none" stroke="gray"></path></g><path id="node_outline21" fill="none" stroke="none" d="M527.5,72.5h401a5,5,0,0,1,5,5v8a5,5,0,0,1,-5,5h-401a5,5,0,0,1,-5,-5v-8a5,5,0,0,1,5,-5z" stroke-width="3"></path><g id="node_text21" fill="black"><text id="kity_text_185" text-rendering="inherit" font-size="12" dy=".8em" y="73.70000004768372" x="527.5">元素的高度 --&gt; content height + padding + border (Height为内容高度)</text></g></g><g id="minder_node22"><g id="node_expander21" style="cursor: pointer;" display="none"><path id="kity_path_196" fill="white" stroke="gray" d="M522.5,107.5A6,6,0,1,1,510.5,107.5A6,6,0,1,1,522.5,107.5"></path><path id="kity_path_197" fill="none" stroke="gray"></path></g><path id="node_outline22" fill="none" stroke="none" d="M527.5,98.5h393a5,5,0,0,1,5,5v8a5,5,0,0,1,-5,5h-393a5,5,0,0,1,-5,-5v-8a5,5,0,0,1,5,-5z" stroke-width="3"></path><g id="node_text22" fill="black"><text id="kity_text_193" text-rendering="inherit" font-size="12" dy=".8em" y="99.70000004768372" x="527.5">元素的宽度 --&gt; content width + padding + border (Width为内容宽度)</text></g></g><g id="minder_node23"><g id="node_expander22" style="cursor: pointer;" display="none"><path id="kity_path_204" fill="white" stroke="gray" d="M529.5,133.5A6,6,0,1,1,517.5,133.5A6,6,0,1,1,529.5,133.5"></path><path id="kity_path_205" fill="none" stroke="gray"></path></g><path id="node_outline23" fill="none" stroke="none" d="M534.5,124.5h525a5,5,0,0,1,5,5v8a5,5,0,0,1,-5,5h-525a5,5,0,0,1,-5,-5v-8a5,5,0,0,1,5,-5z" stroke-width="3"></path><g id="node_text23" fill="black"><text id="kity_text_201" text-rendering="inherit" font-size="12" dy=".8em" y="125.70000004768372" x="534.5">元素实际宽度 --&gt; content Width + margin (Width包含了元素的内容宽度、边框宽度、内距宽度)</text></g></g><g id="minder_node24"><g id="node_expander23" style="cursor: pointer;" display="none"><path id="kity_path_212" fill="white" stroke="gray" d="M529.5,159.5A6,6,0,1,1,517.5,159.5A6,6,0,1,1,529.5,159.5"></path><path id="kity_path_213" fill="none" stroke="gray"></path></g><path id="node_outline24" fill="none" stroke="none" d="M534.5,150.5h521a5,5,0,0,1,5,5v8a5,5,0,0,1,-5,5h-521a5,5,0,0,1,-5,-5v-8a5,5,0,0,1,5,-5z" stroke-width="3"></path><g id="node_text24" fill="black"><text id="kity_text_209" text-rendering="inherit" font-size="12" dy=".8em" y="151.70000004768372" x="534.5">元素实际高度 --&gt; content Height + margin (Height包含了元素内容高度、边框高度、内距高度)</text></g></g><g id="minder_node25"><g id="node_expander24" style="cursor: pointer;" display="none"><path id="kity_path_220" fill="white" stroke="gray" d="M504.5,185.5A6,6,0,1,1,492.5,185.5A6,6,0,1,1,504.5,185.5"></path><path id="kity_path_221" fill="none" stroke="gray"></path></g><path id="node_outline25" fill="none" stroke="none" d="M509.5,176.5h445a5,5,0,0,1,5,5v8a5,5,0,0,1,-5,5h-445a5,5,0,0,1,-5,-5v-8a5,5,0,0,1,5,-5z" stroke-width="3"></path><g id="node_text25" fill="black"><text id="kity_text_217" text-rendering="inherit" font-size="12" dy=".8em" y="177.70000004768372" x="509.5">元素的宽度 --&gt; content Width (Width包含了元素内容宽度、边框宽度、内距宽度)</text></g></g><g id="minder_node26"><g id="node_expander25" style="cursor: pointer;" display="none"><path id="kity_path_228" fill="white" stroke="gray" d="M504.5,211.5A6,6,0,1,1,492.5,211.5A6,6,0,1,1,504.5,211.5"></path><path id="kity_path_229" fill="none" stroke="gray"></path></g><path id="node_outline26" fill="none" stroke="none" d="M509.5,202.5h464a5,5,0,0,1,5,5v8a5,5,0,0,1,-5,5h-464a5,5,0,0,1,-5,-5v-8a5,5,0,0,1,5,-5z" stroke-width="3"></path><g id="node_text26" fill="black"><text id="kity_text_225" text-rendering="inherit" font-size="12" dy=".8em" y="203.70000004768372" x="509.5">元素的高度 --&gt; content Height (Height包含了元素的内容宽度、边框宽度、内距宽度)</text></g></g><g id="minder_node27"><g id="node_expander26" style="cursor: pointer;" display="none"><path id="kity_path_236" fill="white" stroke="gray" d="M305.5,237.5A6,6,0,1,1,293.5,237.5A6,6,0,1,1,305.5,237.5"></path><path id="kity_path_237" fill="none" stroke="gray"></path></g><path id="node_outline27" fill="none" stroke="none" d="M310.5,228.5h239a5,5,0,0,1,5,5v8a5,5,0,0,1,-5,5h-239a5,5,0,0,1,-5,-5v-8a5,5,0,0,1,5,-5z" stroke-width="3"></path><g id="node_text27" fill="black"><text id="kity_text_233" text-rendering="inherit" font-size="12" dy=".8em" y="229.70000004768372" x="310.5">https://zh.wikipedia.org/wiki/IE盒模型缺陷</text></g></g><g id="minder_node28"><g id="node_expander27" style="cursor: pointer;" display="none"><path id="kity_path_244" fill="white" stroke="gray" d="M305.5,263.5A6,6,0,1,1,293.5,263.5A6,6,0,1,1,305.5,263.5"></path><path id="kity_path_245" fill="none" stroke="gray"></path></g><path id="node_outline28" fill="none" stroke="none" d="M310.5,254.5h218a5,5,0,0,1,5,5v8a5,5,0,0,1,-5,5h-218a5,5,0,0,1,-5,-5v-8a5,5,0,0,1,5,-5z" stroke-width="3"></path><g id="node_text28" fill="black"><text id="kity_text_241" text-rendering="inherit" font-size="12" dy=".8em" y="255.70000004768372" x="310.5">https://www.w3.org/TR/css2/box.html</text></g></g><g id="minder_node29"><g id="node_expander28" style="cursor: pointer;" display="none"><path id="kity_path_252" fill="white" stroke="gray" d="M305.5,289.5A6,6,0,1,1,293.5,289.5A6,6,0,1,1,305.5,289.5"></path><path id="kity_path_253" fill="none" stroke="gray"></path></g><path id="node_outline29" fill="none" stroke="none" d="M310.5,280.5h221a5,5,0,0,1,5,5v8a5,5,0,0,1,-5,5h-221a5,5,0,0,1,-5,-5v-8a5,5,0,0,1,5,-5z" stroke-width="3"></path><g id="node_text29" fill="black"><text id="kity_text_249" text-rendering="inherit" font-size="12" dy=".8em" y="281.7000000476837" x="310.5">http://www.w3help.org/zh-cn/kb/006/</text></g></g><g id="minder_node30"><g id="node_expander29" style="cursor: pointer;" display="none"><path id="kity_path_260" fill="white" stroke="gray" d="M455.5,359.5A6,6,0,1,1,443.5,359.5A6,6,0,1,1,455.5,359.5"></path><path id="kity_path_261" fill="none" stroke="gray"></path></g><path id="node_outline30" fill="none" stroke="none" d="M460.5,341.5h605a5,5,0,0,1,5,5v26a5,5,0,0,1,-5,5h-605a5,5,0,0,1,-5,-5v-26a5,5,0,0,1,5,-5z" stroke-width="3"></path><g id="node_text30" fill="black"><text id="kity_text_257" text-rendering="inherit" font-size="12" dy=".8em" y="342.7000000476837" x="460.5">默认值，padding和border不被包含在定义的width和height之内。</text><text id="kity_text_262" text-rendering="inherit" font-size="12" dy=".8em" y="360.7000000476837" x="460.5">对象的实际宽度等于设置的width值和border、padding之和，即(Element width = width + border + padding)</text></g></g><g id="minder_node31"><g id="node_expander30" style="cursor: pointer;" display="none"><path id="kity_path_269" fill="white" stroke="gray" d="M455.5,394.5A6,6,0,1,1,443.5,394.5A6,6,0,1,1,455.5,394.5"></path><path id="kity_path_270" fill="none" stroke="gray"></path></g><path id="node_outline31" fill="none" stroke="none" d="M460.5,385.5h161a5,5,0,0,1,5,5v8a5,5,0,0,1,-5,5h-161a5,5,0,0,1,-5,-5v-8a5,5,0,0,1,5,-5z" stroke-width="3"></path><g id="node_text31" fill="black"><text id="kity_text_266" text-rendering="inherit" font-size="12" dy=".8em" y="386.7000000476837" x="460.5">此属性表现为W3C的标准模式</text></g></g><g id="minder_node32"><g id="node_expander31" style="cursor: pointer;" display="none"><path id="kity_path_277" fill="white" stroke="gray" d="M449.5,429.5A6,6,0,1,1,437.5,429.5A6,6,0,1,1,449.5,429.5"></path><path id="kity_path_278" fill="none" stroke="gray"></path></g><path id="node_outline32" fill="none" stroke="none" d="M454.5,411.5h512a5,5,0,0,1,5,5v26a5,5,0,0,1,-5,5h-512a5,5,0,0,1,-5,-5v-26a5,5,0,0,1,5,-5z" stroke-width="3"></path><g id="node_text32" fill="black"><text id="kity_text_274" text-rendering="inherit" font-size="12" dy=".8em" y="412.7000000476837" x="454.5">padding和border被包含在定义的width和height之内。对象的实际宽度就等于设置的width值，</text><text id="kity_text_279" text-rendering="inherit" font-size="12" dy=".8em" y="430.7000000476837" x="454.5">即使定义有border和padding也不会改变对象的实际宽度，即(Element width = width)</text></g></g><g id="minder_node33"><g id="node_expander32" style="cursor: pointer;" display="none"><path id="kity_path_286" fill="white" stroke="gray" d="M449.5,464.5A6,6,0,1,1,437.5,464.5A6,6,0,1,1,449.5,464.5"></path><path id="kity_path_287" fill="none" stroke="gray"></path></g><path id="node_outline33" fill="none" stroke="none" d="M454.5,455.5h182a5,5,0,0,1,5,5v8a5,5,0,0,1,-5,5h-182a5,5,0,0,1,-5,-5v-8a5,5,0,0,1,5,-5z" stroke-width="3"></path><g id="node_text33" fill="black"><text id="kity_text_283" text-rendering="inherit" font-size="12" dy=".8em" y="456.7000000476837" x="454.5">此属性表现为怪异模式下的盒模型</text></g></g><g id="minder_node34"><g id="node_expander33" style="cursor: pointer;" display="none"><path id="kity_path_294" fill="white" stroke="gray" d="M458.5,490.5A6,6,0,1,1,446.5,490.5A6,6,0,1,1,458.5,490.5"></path><path id="kity_path_295" fill="none" stroke="gray"></path></g><path id="node_outline34" fill="none" stroke="none" d="M463.5,481.5h455a5,5,0,0,1,5,5v8a5,5,0,0,1,-5,5h-455a5,5,0,0,1,-5,-5v-8a5,5,0,0,1,5,-5z" stroke-width="3"></path><g id="node_text34" fill="black"><text id="kity_text_291" text-rendering="inherit" font-size="12" dy=".8em" y="482.7000000476837" x="463.5">firefox浏览器中可以使用，宽度或高度包括内容的宽度或高度+内边距，但不包含边框</text></g></g><g id="minder_node35"><g id="node_expander34" style="cursor: pointer;" display="none"><path id="kity_path_302" fill="white" stroke="gray" d="M458.5,570.5A6,6,0,1,1,446.5,570.5A6,6,0,1,1,458.5,570.5"></path><path id="kity_path_303" fill="none" stroke="gray"></path></g><path id="node_outline35" fill="none" stroke="none" d="M463.5,507.5h522a5,5,0,0,1,5,5v116a5,5,0,0,1,-5,5h-522a5,5,0,0,1,-5,-5v-116a5,5,0,0,1,5,-5z" stroke-width="3"></path><g id="node_text35" fill="black"><text id="kity_text_299" text-rendering="inherit" font-size="12" dy=".8em" y="508.7000000476837" x="463.5">/* apply a natural box layout model to all elements, but allowing components to change */</text><text id="kity_text_304" text-rendering="inherit" font-size="12" dy=".8em" y="526.7000000476837" x="463.5">html {</text><text id="kity_text_305" text-rendering="inherit" font-size="12" dy=".8em" y="544.7000000476837" x="463.5">&#xa0; box-sizing: border-box;</text><text id="kity_text_306" text-rendering="inherit" font-size="12" dy=".8em" y="562.7000000476837" x="463.5">}</text><text id="kity_text_307" text-rendering="inherit" font-size="12" dy=".8em" y="580.7000000476837" x="463.5">*, *:before, *:after {</text><text id="kity_text_308" text-rendering="inherit" font-size="12" dy=".8em" y="598.7000000476837" x="463.5">&#xa0; box-sizing: inherit;</text><text id="kity_text_309" text-rendering="inherit" font-size="12" dy=".8em" y="616.7000000476837" x="463.5">}</text></g></g><g id="minder_node36"><g id="node_expander35" style="cursor: pointer;" display="none"><path id="kity_path_316" fill="white" stroke="gray" d="M323.5,654.5A6,6,0,1,1,311.5,654.5A6,6,0,1,1,323.5,654.5"></path><path id="kity_path_317" fill="none" stroke="gray"></path></g><path id="node_outline36" fill="none" stroke="none" d="M328.5,640.5h471a5,5,0,0,1,5,5v18a5,5,0,0,1,-5,5h-471a5,5,0,0,1,-5,-5v-18a5,5,0,0,1,5,-5z" stroke-width="3"></path><g id="node_text36" fill="black"><text id="kity_text_313" text-rendering="inherit" font-size="12" dy=".8em" y="646.7000000476837" x="328.5">https://codepen.io/team/css-tricks/pen/970f26f621cfa3ae3eec7e2a6b0e8c97</text></g><a id="kity_a_318" xlink:href="https://codepen.io/team/css-tricks/pen/970f26f621cfa3ae3eec7e2a6b0e8c97" target="_blank" xlink:title="https://codepen.io/team/css-tricks/pen/970f26f621cfa3ae3eec7e2a6b0e8c97" style="cursor: pointer;"><path id="kity_path_320" fill="rgba(255, 255, 255, 0)" stroke="none" d="M779.5,643.5h16a4,4,0,0,1,4,4v14a4,4,0,0,1,-4,4h-16a4,4,0,0,1,-4,-4v-14a4,4,0,0,1,4,-4z"></path><path id="kity_path_319" fill="#666" stroke="none" d="M794.114,659.724h-1.278c-1.668,0,-3.07,-1.07,-3.599,-2.556h4.877c0.707,0,1.278,-0.571,1.278,-1.278V653.334c0,-0.707,-0.571,-1.278,-1.278,-1.278h-4.877C789.766,650.571,791.168,649.5,792.836,649.5h1.278c2.116,0,3.834,1.716,3.834,3.834V655.89C797.948,658.008,796.23,659.724,794.114,659.724zM782.612,654.612c0,-0.707,0.573,-1.278,1.278,-1.278h7.668c0.707,0,1.278,0.571,1.278,1.278S792.265,655.89,791.558,655.89H783.89C783.185,655.89,782.612,655.319,782.612,654.612zM780.056,653.334V655.89c0,0.707,0.573,1.278,1.278,1.278h4.877c-0.528,1.486,-1.932,2.556,-3.599,2.556H781.334C779.216,659.724,777.5,658.008,777.5,655.89V653.334C777.5,651.216,779.216,649.5,781.334,649.5h1.278c1.667,0,3.071,1.071,3.599,2.556H781.334C780.629,652.056,780.056,652.627,780.056,653.334z"></path></a></g></g></g></svg>