<svg id="kity_svg_6" xmlns="http://www.w3.org/2000/svg" xmlns:xlink="http://www.w3.org/1999/xlink" version="1.1" width="628" height="660" style="background: rgb(251, 251, 251); visibility: visible;" viewBox="0 0 628 660"><defs id="kity_defs_7"><linearGradient id="kity_linearGradient_17" x1="0" y1="0" x2="0" y2="1"><stop id="kity_stop_18" offset="0" stop-color="rgb(255, 255, 255)"></stop><stop id="kity_stop_19" offset="1" stop-color="rgb(204, 204, 204)"></stop></linearGradient><marker id="kity_marker_2" orient="auto" refX="6" refY="0" viewBox="-7 -7 14 14" markerWidth="7" markerHeight="7" markerUnits="userSpaceOnUse"><path id="kity_path_3" fill="rgb(115, 161, 191)" stroke="none" d="M6,0A6,6,0,1,1,-6,0A6,6,0,1,1,6,0"></path></marker></defs><g id="kity_g_8"><g id="minder1" text-rendering="optimize-speed"><g id="minder_connect_group1"><path id="kity_path_31" fill="none" stroke="rgb(115, 161, 191)" stroke-width="1" d="M314,330.5A161.5,297,0,0,1,475.5,33.5"></path><path id="kity_path_33" fill="none" stroke="rgb(115, 161, 191)" stroke-width="1" d="M314,330.5A161.5,231,0,0,1,475.5,99.5"></path><path id="kity_path_35" fill="none" stroke="rgb(115, 161, 191)" stroke-width="1" d="M314,330.5A161.5,165,0,0,1,475.5,165.5"></path><path id="kity_path_37" fill="none" stroke="rgb(115, 161, 191)" stroke-width="1" d="M314,330.5A161.5,99,0,0,1,475.5,231.5"></path><path id="kity_path_39" fill="none" stroke="rgb(115, 161, 191)" stroke-width="1" d="M314,330.5A161.5,33,0,0,1,475.5,297.5"></path><path id="kity_path_41" fill="none" stroke="rgb(115, 161, 191)" stroke-width="1" d="M314,330.5A161.5,33,0,0,0,475.5,363.5"></path><path id="kity_path_43" fill="none" stroke="rgb(115, 161, 191)" stroke-width="1" d="M314,330.5A161.5,99,0,0,0,475.5,429.5"></path><path id="kity_path_45" fill="none" stroke="rgb(115, 161, 191)" stroke-width="1" d="M314,330.5A161.5,165,0,0,0,475.5,495.5"></path><path id="kity_path_47" fill="none" stroke="rgb(115, 161, 191)" stroke-width="1" d="M314,330.5A161.5,231,0,0,0,475.5,561.5"></path><path id="kity_path_49" fill="none" stroke="rgb(115, 161, 191)" stroke-width="1" d="M314,330.5A161.5,297,0,0,0,475.5,627.5"></path><path id="kity_path_51" fill="none" stroke="rgb(115, 161, 191)" stroke-width="1" d="M314,330.5A161.5,264,0,0,0,152.5,66.5"></path><path id="kity_path_53" fill="none" stroke="rgb(115, 161, 191)" stroke-width="1" d="M314,330.5A161.5,198,0,0,0,152.5,132.5"></path><path id="kity_path_55" fill="none" stroke="rgb(115, 161, 191)" stroke-width="1" d="M314,330.5A161.5,132,0,0,0,152.5,198.5"></path><path id="kity_path_57" fill="none" stroke="rgb(115, 161, 191)" stroke-width="1" d="M314,330.5A161.5,66,0,0,0,152.5,264.5"></path><path id="kity_path_59" fill="none" stroke="rgb(115, 161, 191)" stroke-width="1" d="M314,330.5A161.5,0,0,0,1,152.5,330.5"></path><path id="kity_path_61" fill="none" stroke="rgb(115, 161, 191)" stroke-width="1" d="M314,330.5A161.5,66,0,0,1,152.5,396.5"></path><path id="kity_path_63" fill="none" stroke="rgb(115, 161, 191)" stroke-width="1" d="M314,330.5A161.5,132,0,0,1,152.5,462.5"></path><path id="kity_path_65" fill="none" stroke="rgb(115, 161, 191)" stroke-width="1" d="M314,330.5A161.5,198,0,0,1,152.5,528.5"></path><path id="kity_path_67" fill="none" stroke="rgb(115, 161, 191)" stroke-width="1" d="M314,330.5A161.5,264,0,0,1,152.5,594.5"></path></g><g id="minder_node1"><path id="kity_path_201" fill="rgba(0, 0, 0, .25)" stroke="none" d="M278.5,308.5h98a5,5,0,0,1,5,5v44a5,5,0,0,1,-5,5h-98a5,5,0,0,1,-5,-5v-44a5,5,0,0,1,5,-5z" display="none"></path><path id="node_outline1" fill="rgb(115, 161, 191)" stroke="rgb(115, 161, 191)" d="M275.5,310.5h77a5,5,0,0,1,5,5v30a5,5,0,0,1,-5,5h-77a5,5,0,0,1,-5,-5v-30a5,5,0,0,1,5,-5z" stroke-width="3"></path><g id="node_text1" fill="white"><text id="kity_text_22" text-rendering="inherit" font-size="16" dy=".8em" y="320.09999990463257" x="294.5">CSS3</text></g></g><g id="kity_g_12"><path id="kity_path_13" fill="none" stroke="none" d="M294.5,330.5h0v0h0z"></path></g><g id="kity_g_14"><path id="kity_path_15" fill="none" stroke="none" d="M294.5,330.5h0v0h0z"></path><path id="kity_path_16" fill="none" stroke="none"></path></g><g id="minder_node2"><path id="kity_path_182" fill="rgba(0, 0, 0, .25)" stroke="none" d="M486.5,24.5h63a5,5,0,0,1,5,5v18a5,5,0,0,1,-5,5h-63a5,5,0,0,1,-5,-5v-18a5,5,0,0,1,5,-5z" display="none"></path><g id="node_expander1" style="cursor: pointer;" display="none"><path id="kity_path_126" fill="white" stroke="gray" d="M476.5,33.5A6,6,0,1,1,464.5,33.5A6,6,0,1,1,476.5,33.5"></path><path id="kity_path_127" fill="none" stroke="gray"></path></g><path id="node_outline2" fill="rgb(238, 243, 246)" stroke="rgb(115, 161, 191)" d="M480.5,20.5h64a3,3,0,0,1,3,3v20a3,3,0,0,1,-3,3h-64a3,3,0,0,1,-3,-3v-20a3,3,0,0,1,3,-3z" stroke-width="1"></path><g id="node_text2" fill="black"><text id="kity_text_69" text-rendering="inherit" font-size="14" dy=".8em" y="24.40000009536743" x="497.5">简介</text></g></g><g id="minder_node3"><path id="kity_path_183" fill="rgba(0, 0, 0, .25)" stroke="none" d="M486.5,90.5h118a5,5,0,0,1,5,5v18a5,5,0,0,1,-5,5h-118a5,5,0,0,1,-5,-5v-18a5,5,0,0,1,5,-5z" display="none"></path><g id="node_expander2" style="cursor: pointer;" display="none"><path id="kity_path_129" fill="white" stroke="gray" d="M476.5,99.5A6,6,0,1,1,464.5,99.5A6,6,0,1,1,476.5,99.5"></path><path id="kity_path_130" fill="none" stroke="gray"></path></g><path id="node_outline3" fill="rgb(238, 243, 246)" stroke="rgb(115, 161, 191)" d="M480.5,86.5h111a3,3,0,0,1,3,3v20a3,3,0,0,1,-3,3h-111a3,3,0,0,1,-3,-3v-20a3,3,0,0,1,3,-3z" stroke-width="1"></path><g id="node_text3" fill="black"><text id="kity_text_71" text-rendering="inherit" font-size="14" dy=".8em" y="90.40000009536743" x="497.5">CSS3选择器</text></g></g><g id="minder_node4"><path id="kity_path_184" fill="rgba(0, 0, 0, .25)" stroke="none" d="M486.5,156.5h101a5,5,0,0,1,5,5v18a5,5,0,0,1,-5,5h-101a5,5,0,0,1,-5,-5v-18a5,5,0,0,1,5,-5z" display="none"></path><g id="node_expander3" style="cursor: pointer;" display="none"><path id="kity_path_132" fill="white" stroke="gray" d="M476.5,165.5A6,6,0,1,1,464.5,165.5A6,6,0,1,1,476.5,165.5"></path><path id="kity_path_133" fill="none" stroke="gray"></path></g><path id="node_outline4" fill="rgb(238, 243, 246)" stroke="rgb(115, 161, 191)" d="M480.5,152.5h96a3,3,0,0,1,3,3v20a3,3,0,0,1,-3,3h-96a3,3,0,0,1,-3,-3v-20a3,3,0,0,1,3,-3z" stroke-width="1"></path><g id="node_text4" fill="black"><text id="kity_text_73" text-rendering="inherit" font-size="14" dy=".8em" y="156.40000009536743" x="497.5">CSS3边框</text></g></g><g id="minder_node5"><path id="kity_path_185" fill="rgba(0, 0, 0, .25)" stroke="none" d="M486.5,222.5h80a5,5,0,0,1,5,5v18a5,5,0,0,1,-5,5h-80a5,5,0,0,1,-5,-5v-18a5,5,0,0,1,5,-5z" display="none"></path><g id="node_expander4" style="cursor: pointer;" display="none"><path id="kity_path_135" fill="white" stroke="gray" d="M476.5,231.5A6,6,0,1,1,464.5,231.5A6,6,0,1,1,476.5,231.5"></path><path id="kity_path_136" fill="none" stroke="gray"></path></g><path id="node_outline5" fill="rgb(238, 243, 246)" stroke="rgb(115, 161, 191)" d="M480.5,218.5h78a3,3,0,0,1,3,3v20a3,3,0,0,1,-3,3h-78a3,3,0,0,1,-3,-3v-20a3,3,0,0,1,3,-3z" stroke-width="1"></path><g id="node_text5" fill="black"><text id="kity_text_75" text-rendering="inherit" font-size="14" dy=".8em" y="222.40000009536743" x="497.5">盒阴影</text></g></g><g id="minder_node6"><path id="kity_path_186" fill="rgba(0, 0, 0, .25)" stroke="none" d="M486.5,288.5h124a5,5,0,0,1,5,5v18a5,5,0,0,1,-5,5h-124a5,5,0,0,1,-5,-5v-18a5,5,0,0,1,5,-5z" display="none"></path><g id="node_expander5" style="cursor: pointer;" display="none"><path id="kity_path_138" fill="white" stroke="gray" d="M476.5,297.5A6,6,0,1,1,464.5,297.5A6,6,0,1,1,476.5,297.5"></path><path id="kity_path_139" fill="none" stroke="gray"></path></g><path id="node_outline6" fill="rgb(238, 243, 246)" stroke="rgb(115, 161, 191)" d="M480.5,284.5h117a3,3,0,0,1,3,3v20a3,3,0,0,1,-3,3h-117a3,3,0,0,1,-3,-3v-20a3,3,0,0,1,3,-3z" stroke-width="1"></path><g id="node_text6" fill="black"><text id="kity_text_77" text-rendering="inherit" font-size="14" dy=".8em" y="288.40000009536743" x="497.5">CSS文本效果</text></g></g><g id="minder_node7"><path id="kity_path_187" fill="rgba(0, 0, 0, .25)" stroke="none" d="M486.5,354.5h134a5,5,0,0,1,5,5v18a5,5,0,0,1,-5,5h-134a5,5,0,0,1,-5,-5v-18a5,5,0,0,1,5,-5z" display="none"></path><g id="node_expander6" style="cursor: pointer;" display="none"><path id="kity_path_141" fill="white" stroke="gray" d="M476.5,363.5A6,6,0,1,1,464.5,363.5A6,6,0,1,1,476.5,363.5"></path><path id="kity_path_142" fill="none" stroke="gray"></path></g><path id="node_outline7" fill="rgb(238, 243, 246)" stroke="rgb(115, 161, 191)" d="M480.5,350.5h125a3,3,0,0,1,3,3v20a3,3,0,0,1,-3,3h-125a3,3,0,0,1,-3,-3v-20a3,3,0,0,1,3,-3z" stroke-width="1"></path><g id="node_text7" fill="black"><text id="kity_text_79" text-rendering="inherit" font-size="14" dy=".8em" y="354.40000009536743" x="497.5">CSS3颜色特性</text></g></g><g id="minder_node8"><path id="kity_path_188" fill="rgba(0, 0, 0, .25)" stroke="none" d="M486.5,420.5h102a5,5,0,0,1,5,5v18a5,5,0,0,1,-5,5h-102a5,5,0,0,1,-5,-5v-18a5,5,0,0,1,5,-5z" display="none"></path><g id="node_expander7" style="cursor: pointer;" display="none"><path id="kity_path_144" fill="white" stroke="gray" d="M476.5,429.5A6,6,0,1,1,464.5,429.5A6,6,0,1,1,476.5,429.5"></path><path id="kity_path_145" fill="none" stroke="gray"></path></g><path id="node_outline8" fill="rgb(238, 243, 246)" stroke="rgb(115, 161, 191)" d="M480.5,416.5h97a3,3,0,0,1,3,3v20a3,3,0,0,1,-3,3h-97a3,3,0,0,1,-3,-3v-20a3,3,0,0,1,3,-3z" stroke-width="1"></path><g id="node_text8" fill="black"><text id="kity_text_81" text-rendering="inherit" font-size="14" dy=".8em" y="420.40000009536743" x="497.5">CSS3字体</text></g></g><g id="minder_node9"><path id="kity_path_189" fill="rgba(0, 0, 0, .25)" stroke="none" d="M486.5,486.5h101a5,5,0,0,1,5,5v18a5,5,0,0,1,-5,5h-101a5,5,0,0,1,-5,-5v-18a5,5,0,0,1,5,-5z" display="none"></path><g id="node_expander8" style="cursor: pointer;" display="none"><path id="kity_path_147" fill="white" stroke="gray" d="M476.5,495.5A6,6,0,1,1,464.5,495.5A6,6,0,1,1,476.5,495.5"></path><path id="kity_path_148" fill="none" stroke="gray"></path></g><path id="node_outline9" fill="rgb(238, 243, 246)" stroke="rgb(115, 161, 191)" d="M480.5,482.5h96a3,3,0,0,1,3,3v20a3,3,0,0,1,-3,3h-96a3,3,0,0,1,-3,-3v-20a3,3,0,0,1,3,-3z" stroke-width="1"></path><g id="node_text9" fill="black"><text id="kity_text_83" text-rendering="inherit" font-size="14" dy=".8em" y="486.40000009536743" x="497.5">CSS3背景</text></g></g><g id="minder_node10"><path id="kity_path_190" fill="rgba(0, 0, 0, .25)" stroke="none" d="M486.5,552.5h117a5,5,0,0,1,5,5v18a5,5,0,0,1,-5,5h-117a5,5,0,0,1,-5,-5v-18a5,5,0,0,1,5,-5z" display="none"></path><g id="node_expander9" style="cursor: pointer;" display="none"><path id="kity_path_150" fill="white" stroke="gray" d="M476.5,561.5A6,6,0,1,1,464.5,561.5A6,6,0,1,1,476.5,561.5"></path><path id="kity_path_151" fill="none" stroke="gray"></path></g><path id="node_outline10" fill="rgb(238, 243, 246)" stroke="rgb(115, 161, 191)" d="M480.5,548.5h111a3,3,0,0,1,3,3v20a3,3,0,0,1,-3,3h-111a3,3,0,0,1,-3,-3v-20a3,3,0,0,1,3,-3z" stroke-width="1"></path><g id="node_text10" fill="black"><text id="kity_text_85" text-rendering="inherit" font-size="14" dy=".8em" y="552.4000000953674" x="497.5">CSS3盒模型</text></g></g><g id="minder_node11"><path id="kity_path_191" fill="rgba(0, 0, 0, .25)" stroke="none" d="M486.5,618.5h102a5,5,0,0,1,5,5v18a5,5,0,0,1,-5,5h-102a5,5,0,0,1,-5,-5v-18a5,5,0,0,1,5,-5z" display="none"></path><g id="node_expander10" style="cursor: pointer;" display="none"><path id="kity_path_153" fill="white" stroke="gray" d="M476.5,627.5A6,6,0,1,1,464.5,627.5A6,6,0,1,1,476.5,627.5"></path><path id="kity_path_154" fill="none" stroke="gray"></path></g><path id="node_outline11" fill="rgb(238, 243, 246)" stroke="rgb(115, 161, 191)" d="M480.5,614.5h97a3,3,0,0,1,3,3v20a3,3,0,0,1,-3,3h-97a3,3,0,0,1,-3,-3v-20a3,3,0,0,1,3,-3z" stroke-width="1"></path><g id="node_text11" fill="black"><text id="kity_text_87" text-rendering="inherit" font-size="14" dy=".8em" y="618.4000000953674" x="497.5">CSS3渐变</text></g></g><g id="minder_node12"><path id="kity_path_192" fill="rgba(0, 0, 0, .25)" stroke="none" d="M56.5,57.5h102a5,5,0,0,1,5,5v18a5,5,0,0,1,-5,5h-102a5,5,0,0,1,-5,-5v-18a5,5,0,0,1,5,-5z" display="none"></path><g id="node_expander11" style="cursor: pointer;" display="none"><path id="kity_path_156" fill="white" stroke="gray" d="M163.5,66.5A6,6,0,1,1,151.5,66.5A6,6,0,1,1,163.5,66.5"></path><path id="kity_path_157" fill="none" stroke="gray"></path></g><path id="node_outline12" fill="rgb(238, 243, 246)" stroke="rgb(115, 161, 191)" d="M50.5,53.5h97a3,3,0,0,1,3,3v20a3,3,0,0,1,-3,3h-97a3,3,0,0,1,-3,-3v-20a3,3,0,0,1,3,-3z" stroke-width="1"></path><g id="node_text12" fill="black"><text id="kity_text_89" text-rendering="inherit" font-size="14" dy=".8em" y="57.40000009536743" x="67.5">CSS3变形</text></g></g><g id="minder_node13"><path id="kity_path_193" fill="rgba(0, 0, 0, .25)" stroke="none" d="M56.5,123.5h102a5,5,0,0,1,5,5v18a5,5,0,0,1,-5,5h-102a5,5,0,0,1,-5,-5v-18a5,5,0,0,1,5,-5z" display="none"></path><g id="node_expander12" style="cursor: pointer;" display="none"><path id="kity_path_159" fill="white" stroke="gray" d="M163.5,132.5A6,6,0,1,1,151.5,132.5A6,6,0,1,1,163.5,132.5"></path><path id="kity_path_160" fill="none" stroke="gray"></path></g><path id="node_outline13" fill="rgb(238, 243, 246)" stroke="rgb(115, 161, 191)" d="M50.5,119.5h97a3,3,0,0,1,3,3v20a3,3,0,0,1,-3,3h-97a3,3,0,0,1,-3,-3v-20a3,3,0,0,1,3,-3z" stroke-width="1"></path><g id="node_text13" fill="black"><text id="kity_text_91" text-rendering="inherit" font-size="14" dy=".8em" y="123.40000009536743" x="67.5">CSS3过渡</text></g></g><g id="minder_node14"><path id="kity_path_194" fill="rgba(0, 0, 0, .25)" stroke="none" d="M57.5,189.5h101a5,5,0,0,1,5,5v18a5,5,0,0,1,-5,5h-101a5,5,0,0,1,-5,-5v-18a5,5,0,0,1,5,-5z" display="none"></path><g id="node_expander13" style="cursor: pointer;" display="none"><path id="kity_path_162" fill="white" stroke="gray" d="M163.5,198.5A6,6,0,1,1,151.5,198.5A6,6,0,1,1,163.5,198.5"></path><path id="kity_path_163" fill="none" stroke="gray"></path></g><path id="node_outline14" fill="rgb(238, 243, 246)" stroke="rgb(115, 161, 191)" d="M51.5,185.5h96a3,3,0,0,1,3,3v20a3,3,0,0,1,-3,3h-96a3,3,0,0,1,-3,-3v-20a3,3,0,0,1,3,-3z" stroke-width="1"></path><g id="node_text14" fill="black"><text id="kity_text_93" text-rendering="inherit" font-size="14" dy=".8em" y="189.40000009536743" x="68.5">CSS3动画</text></g></g><g id="minder_node15"><path id="kity_path_195" fill="rgba(0, 0, 0, .25)" stroke="none" d="M57.5,255.5h101a5,5,0,0,1,5,5v18a5,5,0,0,1,-5,5h-101a5,5,0,0,1,-5,-5v-18a5,5,0,0,1,5,-5z" display="none"></path><g id="node_expander14" style="cursor: pointer;" display="none"><path id="kity_path_165" fill="white" stroke="gray" d="M163.5,264.5A6,6,0,1,1,151.5,264.5A6,6,0,1,1,163.5,264.5"></path><path id="kity_path_166" fill="none" stroke="gray"></path></g><path id="node_outline15" fill="rgb(238, 243, 246)" stroke="rgb(115, 161, 191)" d="M51.5,251.5h96a3,3,0,0,1,3,3v20a3,3,0,0,1,-3,3h-96a3,3,0,0,1,-3,-3v-20a3,3,0,0,1,3,-3z" stroke-width="1"></path><g id="node_text15" fill="black"><text id="kity_text_95" text-rendering="inherit" font-size="14" dy=".8em" y="255.40000009536743" x="68.5">CSS3多列</text></g></g><g id="minder_node16"><path id="kity_path_196" fill="rgba(0, 0, 0, .25)" stroke="none" d="M29.5,321.5h133a5,5,0,0,1,5,5v18a5,5,0,0,1,-5,5h-133a5,5,0,0,1,-5,-5v-18a5,5,0,0,1,5,-5z" display="none"></path><g id="node_expander15" style="cursor: pointer;" display="none"><path id="kity_path_168" fill="white" stroke="gray" d="M163.5,330.5A6,6,0,1,1,151.5,330.5A6,6,0,1,1,163.5,330.5"></path><path id="kity_path_169" fill="none" stroke="gray"></path></g><path id="node_outline16" fill="rgb(238, 243, 246)" stroke="rgb(115, 161, 191)" d="M23.5,317.5h124a3,3,0,0,1,3,3v20a3,3,0,0,1,-3,3h-124a3,3,0,0,1,-3,-3v-20a3,3,0,0,1,3,-3z" stroke-width="1"></path><g id="node_text16" fill="black"><text id="kity_text_97" text-rendering="inherit" font-size="14" dy=".8em" y="321.40000009536743" x="40.5">CSS3弹性布局</text></g></g><g id="minder_node17"><path id="kity_path_197" fill="rgba(0, 0, 0, .25)" stroke="none" d="M29.5,387.5h133a5,5,0,0,1,5,5v18a5,5,0,0,1,-5,5h-133a5,5,0,0,1,-5,-5v-18a5,5,0,0,1,5,-5z" display="none"></path><g id="node_expander16" style="cursor: pointer;" display="none"><path id="kity_path_171" fill="white" stroke="gray" d="M163.5,396.5A6,6,0,1,1,151.5,396.5A6,6,0,1,1,163.5,396.5"></path><path id="kity_path_172" fill="none" stroke="gray"></path></g><path id="node_outline17" fill="rgb(238, 243, 246)" stroke="rgb(115, 161, 191)" d="M23.5,383.5h124a3,3,0,0,1,3,3v20a3,3,0,0,1,-3,3h-124a3,3,0,0,1,-3,-3v-20a3,3,0,0,1,3,-3z" stroke-width="1"></path><g id="node_text17" fill="black"><text id="kity_text_99" text-rendering="inherit" font-size="14" dy=".8em" y="387.40000009536743" x="40.5">CSS3媒体查询</text></g></g><g id="minder_node18"><path id="kity_path_198" fill="rgba(0, 0, 0, .25)" stroke="none" d="M37.5,453.5h123a5,5,0,0,1,5,5v18a5,5,0,0,1,-5,5h-123a5,5,0,0,1,-5,-5v-18a5,5,0,0,1,5,-5z" display="none"></path><g id="node_expander17" style="cursor: pointer;" display="none"><path id="kity_path_174" fill="white" stroke="gray" d="M163.5,462.5A6,6,0,1,1,151.5,462.5A6,6,0,1,1,163.5,462.5"></path><path id="kity_path_175" fill="none" stroke="gray"></path></g><path id="node_outline18" fill="rgb(238, 243, 246)" stroke="rgb(115, 161, 191)" d="M31.5,449.5h116a3,3,0,0,1,3,3v20a3,3,0,0,1,-3,3h-116a3,3,0,0,1,-3,-3v-20a3,3,0,0,1,3,-3z" stroke-width="1"></path><g id="node_text18" fill="black"><text id="kity_text_101" text-rendering="inherit" font-size="14" dy=".8em" y="453.40000009536743" x="48.5">CSS编码技巧</text></g></g><g id="minder_node19"><path id="kity_path_199" fill="rgba(0, 0, 0, .25)" stroke="none" d="M64.5,519.5h92a5,5,0,0,1,5,5v18a5,5,0,0,1,-5,5h-92a5,5,0,0,1,-5,-5v-18a5,5,0,0,1,5,-5z" display="none"></path><g id="node_expander18" style="cursor: pointer;" display="none"><path id="kity_path_177" fill="white" stroke="gray" d="M163.5,528.5A6,6,0,1,1,151.5,528.5A6,6,0,1,1,163.5,528.5"></path><path id="kity_path_178" fill="none" stroke="gray"></path></g><path id="node_outline19" fill="rgb(238, 243, 246)" stroke="rgb(115, 161, 191)" d="M58.5,515.5h89a3,3,0,0,1,3,3v20a3,3,0,0,1,-3,3h-89a3,3,0,0,1,-3,-3v-20a3,3,0,0,1,3,-3z" stroke-width="1"></path><g id="node_text19" fill="black"><text id="kity_text_103" text-rendering="inherit" font-size="14" dy=".8em" y="519.4000000953674" x="75.5">CSS框架</text></g></g><g id="minder_node20"><path id="kity_path_200" fill="rgba(0, 0, 0, .25)" stroke="none" d="M90.5,585.5h63a5,5,0,0,1,5,5v18a5,5,0,0,1,-5,5h-63a5,5,0,0,1,-5,-5v-18a5,5,0,0,1,5,-5z" display="none"></path><g id="node_expander19" style="cursor: pointer;" display="none"><path id="kity_path_180" fill="white" stroke="gray" d="M163.5,594.5A6,6,0,1,1,151.5,594.5A6,6,0,1,1,163.5,594.5"></path><path id="kity_path_181" fill="none" stroke="gray"></path></g><path id="node_outline20" fill="rgb(238, 243, 246)" stroke="rgb(115, 161, 191)" d="M84.5,581.5h63a3,3,0,0,1,3,3v20a3,3,0,0,1,-3,3h-63a3,3,0,0,1,-3,-3v-20a3,3,0,0,1,3,-3z" stroke-width="1"></path><g id="node_text20" fill="black"><text id="kity_text_105" text-rendering="inherit" font-size="14" dy=".8em" y="585.4000000953674" x="101.5">素材</text></g></g></g></g></svg>