<svg id="kity_svg_6" xmlns="http://www.w3.org/2000/svg" xmlns:xlink="http://www.w3.org/1999/xlink" version="1.1" width="617" height="685" style="background: rgb(251, 251, 251); visibility: visible;" viewBox="0 0 617 685"><defs id="kity_defs_7"><linearGradient id="kity_linearGradient_17" x1="0" y1="0" x2="0" y2="1"><stop id="kity_stop_18" offset="0" stop-color="rgb(255, 255, 255)"></stop><stop id="kity_stop_19" offset="1" stop-color="rgb(204, 204, 204)"></stop></linearGradient><marker id="kity_marker_2" orient="auto" refX="6" refY="0" viewBox="-7 -7 14 14" markerWidth="7" markerHeight="7" markerUnits="userSpaceOnUse"><path id="kity_path_3" fill="rgb(191, 115, 115)" stroke="none" d="M6,0A6,6,0,1,1,-6,0A6,6,0,1,1,6,0"></path></marker></defs><g id="kity_g_8"><g id="minder1" text-rendering="optimize-speed"><g id="minder_connect_group1"><path id="kity_path_31" fill="none" stroke="rgb(191, 115, 115)" stroke-width="1" d="M89,410.5A84.5,220,0,0,1,173.5,190.5"></path><path id="kity_path_33" fill="none" stroke="rgb(191, 115, 115)" stroke-width="1" d="M271.5,190.5C279.5,190.5,279.5,86.5,287.5,86.5"></path><path id="kity_path_35" fill="none" stroke="rgb(191, 115, 115)" stroke-width="1" d="M271.5,190.5C279.5,190.5,279.5,203.5,287.5,203.5"></path><path id="kity_path_37" fill="none" stroke="rgb(191, 115, 115)" stroke-width="1" d="M271.5,190.5C279.5,190.5,279.5,294.5,287.5,294.5"></path><path id="kity_path_39" fill="none" stroke="rgb(191, 115, 115)" stroke-width="1" d="M356.5,294.5C364.5,294.5,364.5,268.5,372.5,268.5"></path><path id="kity_path_41" fill="none" stroke="rgb(191, 115, 115)" stroke-width="1" d="M356.5,294.5C364.5,294.5,364.5,294.5,372.5,294.5"></path><path id="kity_path_43" fill="none" stroke="rgb(191, 115, 115)" stroke-width="1" d="M356.5,294.5C364.5,294.5,364.5,320.5,372.5,320.5"></path><path id="kity_path_45" fill="none" stroke="rgb(191, 115, 115)" stroke-width="1" d="M89,410.5A84.5,10,0,0,1,173.5,400.5"></path><path id="kity_path_47" fill="none" stroke="rgb(191, 115, 115)" stroke-width="1" d="M272.5,400.5C280.5,400.5,280.5,368.5,288.5,368.5"></path><path id="kity_path_49" fill="none" stroke="rgb(191, 115, 115)" stroke-width="1" d="M347.5,368.5C355.5,368.5,355.5,355.5,363.5,355.5"></path><path id="kity_path_51" fill="none" stroke="rgb(191, 115, 115)" stroke-width="1" d="M347.5,368.5C355.5,368.5,355.5,381.5,363.5,381.5"></path><path id="kity_path_53" fill="none" stroke="rgb(191, 115, 115)" stroke-width="1" d="M272.5,400.5C280.5,400.5,280.5,433.5,288.5,433.5"></path><path id="kity_path_55" fill="none" stroke="rgb(191, 115, 115)" stroke-width="1" d="M348.5,433.5C356.5,433.5,356.5,407.5,364.5,407.5"></path><path id="kity_path_57" fill="none" stroke="rgb(191, 115, 115)" stroke-width="1" d="M348.5,433.5C356.5,433.5,356.5,433.5,364.5,433.5"></path><path id="kity_path_59" fill="none" stroke="rgb(191, 115, 115)" stroke-width="1" d="M348.5,433.5C356.5,433.5,356.5,459.5,364.5,459.5"></path><path id="kity_path_61" fill="none" stroke="rgb(191, 115, 115)" stroke-width="1" d="M89,410.5A84.5,121,0,0,0,173.5,531.5"></path><path id="kity_path_63" fill="none" stroke="rgb(191, 115, 115)" stroke-width="1" d="M89,410.5A84.5,220,0,0,0,173.5,630.5"></path><path id="kity_path_175" fill="none" stroke="rgb(191, 115, 115)" stroke-width="1" d="M273.5,630.5C281.5,630.5,281.5,604.5,289.5,604.5"></path><path id="kity_path_183" fill="none" stroke="rgb(191, 115, 115)" stroke-width="1" d="M258.5,531.5C266.5,531.5,266.5,492.5,274.5,492.5"></path><path id="kity_path_191" fill="none" stroke="rgb(191, 115, 115)" stroke-width="1" d="M258.5,531.5C266.5,531.5,266.5,518.5,274.5,518.5"></path><path id="kity_path_199" fill="none" stroke="rgb(191, 115, 115)" stroke-width="1" d="M258.5,531.5C266.5,531.5,266.5,544.5,274.5,544.5"></path><path id="kity_path_207" fill="none" stroke="rgb(191, 115, 115)" stroke-width="1" d="M258.5,531.5C266.5,531.5,266.5,570.5,274.5,570.5"></path><path id="kity_path_215" fill="none" stroke="rgb(191, 115, 115)" stroke-width="1" d="M273.5,630.5C281.5,630.5,281.5,656.5,289.5,656.5"></path><path id="kity_path_231" fill="none" stroke="rgb(191, 115, 115)" stroke-width="1" d="M273.5,630.5C281.5,630.5,281.5,630.5,289.5,630.5"></path><path id="kity_path_239" fill="none" stroke="rgb(191, 115, 115)" stroke-width="1" d="M332.5,86.5C343,86.5,343,29.5,353.5,29.5"></path><path id="kity_path_255" fill="none" stroke="rgb(191, 115, 115)" stroke-width="1" d="M332.5,86.5C340.5,86.5,340.5,60.5,348.5,60.5"></path><path id="kity_path_287" fill="none" stroke="rgb(191, 115, 115)" stroke-width="1" d="M332.5,86.5C340.5,86.5,340.5,86.5,348.5,86.5"></path><path id="kity_path_364" fill="none" stroke="rgb(191, 115, 115)" stroke-width="1" d="M332.5,86.5C340.5,86.5,340.5,138.5,348.5,138.5"></path><path id="kity_path_396" fill="none" stroke="rgb(191, 115, 115)" stroke-width="1" d="M332.5,86.5C340.5,86.5,340.5,112.5,348.5,112.5"></path><path id="kity_path_420" fill="none" stroke="rgb(191, 115, 115)" stroke-width="1" d="M319.5,203.5C327.5,203.5,327.5,164.5,335.5,164.5"></path><path id="kity_path_428" fill="none" stroke="rgb(191, 115, 115)" stroke-width="1" d="M319.5,203.5C327.5,203.5,327.5,190.5,335.5,190.5"></path><path id="kity_path_436" fill="none" stroke="rgb(191, 115, 115)" stroke-width="1" d="M319.5,203.5C327.5,203.5,327.5,216.5,335.5,216.5"></path><path id="kity_path_444" fill="none" stroke="rgb(191, 115, 115)" stroke-width="1" d="M319.5,203.5C327.5,203.5,327.5,242.5,335.5,242.5"></path></g><g id="minder_node1"><path id="node_outline1" fill="rgb(191, 115, 115)" stroke="rgb(191, 115, 115)" d="M25.5,396.5h127a5,5,0,0,1,5,5v18a5,5,0,0,1,-5,5h-127a5,5,0,0,1,-5,-5v-18a5,5,0,0,1,5,-5z" stroke-width="3"></path><g id="node_text1" fill="white"><text id="kity_text_22" text-rendering="inherit" font-size="16" dy=".8em" y="400.09999990463257" x="32.5">预科班知识体系</text></g></g><g id="kity_g_12" display="none"><path id="kity_path_13" fill="none" stroke="none" d="M32.5,410.5h0v0h0z"></path></g><g id="kity_g_14" display="none"><path id="kity_path_15" fill="none" stroke="none" d="M32.5,410.5h0v0h0z"></path><path id="kity_path_16" fill="none" stroke="none"></path></g><g id="minder_node2"><g id="node_expander7" style="cursor: pointer;"><path id="kity_path_134" fill="white" stroke="gray" d="M174.5,190.5A6,6,0,1,1,162.5,190.5A6,6,0,1,1,174.5,190.5"></path><path id="kity_path_135" fill="none" stroke="gray" d="M164,190.5L173,190.5"></path></g><path id="node_outline8" fill="rgb(246, 238, 238)" stroke="rgb(191, 115, 115)" d="M178.5,177.5h90a3,3,0,0,1,3,3v20a3,3,0,0,1,-3,3h-90a3,3,0,0,1,-3,-3v-20a3,3,0,0,1,3,-3z" stroke-width="1"></path><g id="node_text8" fill="black"><text id="kity_text_77" text-rendering="inherit" font-size="14" dy=".8em" y="181.40000009536743" x="195.5">前端基础</text></g></g><g id="minder_node3"><g id="node_expander1" style="cursor: pointer;"><path id="kity_path_116" fill="white" stroke="gray" d="M287.5,86.5A6,6,0,1,1,275.5,86.5A6,6,0,1,1,287.5,86.5"></path><path id="kity_path_117" fill="none" stroke="gray" d="M277,86.5L286,86.5"></path></g><path id="node_outline2" fill="none" stroke="none" d="M292.5,77.5h35a5,5,0,0,1,5,5v8a5,5,0,0,1,-5,5h-35a5,5,0,0,1,-5,-5v-8a5,5,0,0,1,5,-5z" stroke-width="3"></path><g id="node_text2" fill="black"><text id="kity_text_65" text-rendering="inherit" font-size="12" dy=".8em" y="78.70000004768372" x="292.5">HTML</text></g></g><g id="minder_node4"><g id="node_expander2" style="cursor: pointer;"><path id="kity_path_119" fill="white" stroke="gray" d="M287.5,203.5A6,6,0,1,1,275.5,203.5A6,6,0,1,1,287.5,203.5"></path><path id="kity_path_120" fill="none" stroke="gray" d="M277,203.5L286,203.5"></path></g><path id="node_outline3" fill="none" stroke="none" d="M292.5,194.5h22a5,5,0,0,1,5,5v8a5,5,0,0,1,-5,5h-22a5,5,0,0,1,-5,-5v-8a5,5,0,0,1,5,-5z" stroke-width="3"></path><g id="node_text3" fill="black"><text id="kity_text_67" text-rendering="inherit" font-size="12" dy=".8em" y="195.70000004768372" x="292.5">CSS</text></g></g><g id="minder_node5"><g id="node_expander6" style="cursor: pointer;"><path id="kity_path_131" fill="white" stroke="gray" d="M287.5,294.5A6,6,0,1,1,275.5,294.5A6,6,0,1,1,287.5,294.5"></path><path id="kity_path_132" fill="none" stroke="gray" d="M277,294.5L286,294.5"></path></g><path id="node_outline7" fill="none" stroke="none" d="M292.5,285.5h59a5,5,0,0,1,5,5v8a5,5,0,0,1,-5,5h-59a5,5,0,0,1,-5,-5v-8a5,5,0,0,1,5,-5z"></path><g id="node_text7" fill="black"><text id="kity_text_75" text-rendering="inherit" font-size="12" dy=".8em" y="286.7000000476837" x="292.5">JavaScript</text></g></g><g id="minder_node6"><g id="node_expander3" style="cursor: pointer;" display="none"><path id="kity_path_122" fill="white" stroke="gray" d="M372.5,268.5A6,6,0,1,1,360.5,268.5A6,6,0,1,1,372.5,268.5"></path><path id="kity_path_123" fill="none" stroke="gray"></path></g><path id="node_outline4" fill="none" stroke="none" d="M377.5,259.5h45a5,5,0,0,1,5,5v8a5,5,0,0,1,-5,5h-45a5,5,0,0,1,-5,-5v-8a5,5,0,0,1,5,-5z"></path><g id="node_text4" fill="black"><text id="kity_text_69" text-rendering="inherit" font-size="12" dy=".8em" y="260.7000000476837" x="377.5">ES5基础</text></g></g><g id="minder_node7"><g id="node_expander4" style="cursor: pointer;" display="none"><path id="kity_path_125" fill="white" stroke="gray" d="M372.5,294.5A6,6,0,1,1,360.5,294.5A6,6,0,1,1,372.5,294.5"></path><path id="kity_path_126" fill="none" stroke="gray"></path></g><path id="node_outline5" fill="none" stroke="none" d="M377.5,285.5h81a5,5,0,0,1,5,5v8a5,5,0,0,1,-5,5h-81a5,5,0,0,1,-5,-5v-8a5,5,0,0,1,5,-5z"></path><g id="node_text5" fill="black"><text id="kity_text_71" text-rendering="inherit" font-size="12" dy=".8em" y="286.7000000476837" x="377.5">ES5核心与精粹</text></g></g><g id="minder_node8"><g id="node_expander5" style="cursor: pointer;" display="none"><path id="kity_path_128" fill="white" stroke="gray" d="M372.5,320.5A6,6,0,1,1,360.5,320.5A6,6,0,1,1,372.5,320.5"></path><path id="kity_path_129" fill="none" stroke="gray"></path></g><path id="node_outline6" fill="none" stroke="none" d="M377.5,311.5h21a5,5,0,0,1,5,5v8a5,5,0,0,1,-5,5h-21a5,5,0,0,1,-5,-5v-8a5,5,0,0,1,5,-5z"></path><g id="node_text6" fill="black"><text id="kity_text_73" text-rendering="inherit" font-size="12" dy=".8em" y="312.7000000476837" x="377.5">ES6</text></g></g><g id="minder_node9"><g id="node_expander15" style="cursor: pointer;"><path id="kity_path_158" fill="white" stroke="gray" d="M174.5,400.5A6,6,0,1,1,162.5,400.5A6,6,0,1,1,174.5,400.5"></path><path id="kity_path_159" fill="none" stroke="gray" d="M164,400.5L173,400.5"></path></g><path id="node_outline16" fill="rgb(246, 238, 238)" stroke="rgb(191, 115, 115)" d="M178.5,387.5h91a3,3,0,0,1,3,3v20a3,3,0,0,1,-3,3h-91a3,3,0,0,1,-3,-3v-20a3,3,0,0,1,3,-3z" stroke-width="1"></path><g id="node_text16" fill="black"><text id="kity_text_93" text-rendering="inherit" font-size="14" dy=".8em" y="391.40000009536743" x="195.5">后端基础</text></g></g><g id="minder_node10"><g id="node_expander10" style="cursor: pointer;"><path id="kity_path_143" fill="white" stroke="gray" d="M288.5,368.5A6,6,0,1,1,276.5,368.5A6,6,0,1,1,288.5,368.5"></path><path id="kity_path_144" fill="none" stroke="gray" d="M278,368.5L287,368.5"></path></g><path id="node_outline11" fill="none" stroke="none" d="M293.5,359.5h49a5,5,0,0,1,5,5v8a5,5,0,0,1,-5,5h-49a5,5,0,0,1,-5,-5v-8a5,5,0,0,1,5,-5z"></path><g id="node_text11" fill="black"><text id="kity_text_83" text-rendering="inherit" font-size="12" dy=".8em" y="360.7000000476837" x="293.5">后端语言</text></g></g><g id="minder_node11"><g id="node_expander8" style="cursor: pointer;" display="none"><path id="kity_path_137" fill="white" stroke="gray" d="M363.5,355.5A6,6,0,1,1,351.5,355.5A6,6,0,1,1,363.5,355.5"></path><path id="kity_path_138" fill="none" stroke="gray"></path></g><path id="node_outline9" fill="none" stroke="none" d="M368.5,346.5h26a5,5,0,0,1,5,5v8a5,5,0,0,1,-5,5h-26a5,5,0,0,1,-5,-5v-8a5,5,0,0,1,5,-5z" stroke-width="3"></path><g id="node_text9" fill="black"><text id="kity_text_79" text-rendering="inherit" font-size="12" dy=".8em" y="347.7000000476837" x="368.5">Java</text></g></g><g id="minder_node12"><g id="node_expander9" style="cursor: pointer;" display="none"><path id="kity_path_140" fill="white" stroke="gray" d="M363.5,381.5A6,6,0,1,1,351.5,381.5A6,6,0,1,1,363.5,381.5"></path><path id="kity_path_141" fill="none" stroke="gray"></path></g><path id="node_outline10" fill="none" stroke="none" d="M368.5,372.5h25a5,5,0,0,1,5,5v8a5,5,0,0,1,-5,5h-25a5,5,0,0,1,-5,-5v-8a5,5,0,0,1,5,-5z" stroke-width="3"></path><g id="node_text10" fill="black"><text id="kity_text_81" text-rendering="inherit" font-size="12" dy=".8em" y="373.7000000476837" x="368.5">PHP</text></g></g><g id="minder_node13"><g id="node_expander14" style="cursor: pointer;"><path id="kity_path_155" fill="white" stroke="gray" d="M288.5,433.5A6,6,0,1,1,276.5,433.5A6,6,0,1,1,288.5,433.5"></path><path id="kity_path_156" fill="none" stroke="gray" d="M278,433.5L287,433.5"></path></g><path id="node_outline15" fill="none" stroke="none" d="M293.5,424.5h50a5,5,0,0,1,5,5v8a5,5,0,0,1,-5,5h-50a5,5,0,0,1,-5,-5v-8a5,5,0,0,1,5,-5z"></path><g id="node_text15" fill="black"><text id="kity_text_91" text-rendering="inherit" font-size="12" dy=".8em" y="425.7000000476837" x="293.5">操作系统</text></g></g><g id="minder_node14"><g id="node_expander11" style="cursor: pointer;" display="none"><path id="kity_path_146" fill="white" stroke="gray" d="M364.5,407.5A6,6,0,1,1,352.5,407.5A6,6,0,1,1,364.5,407.5"></path><path id="kity_path_147" fill="none" stroke="gray"></path></g><path id="node_outline12" fill="none" stroke="none" d="M369.5,398.5h38a5,5,0,0,1,5,5v8a5,5,0,0,1,-5,5h-38a5,5,0,0,1,-5,-5v-8a5,5,0,0,1,5,-5z" stroke-width="3"></path><g id="node_text12" fill="black"><text id="kity_text_85" text-rendering="inherit" font-size="12" dy=".8em" y="399.7000000476837" x="369.5">虚拟机</text></g></g><g id="minder_node15"><g id="node_expander12" style="cursor: pointer;" display="none"><path id="kity_path_149" fill="white" stroke="gray" d="M364.5,433.5A6,6,0,1,1,352.5,433.5A6,6,0,1,1,364.5,433.5"></path><path id="kity_path_150" fill="none" stroke="gray"></path></g><path id="node_outline13" fill="none" stroke="none" d="M369.5,424.5h55a5,5,0,0,1,5,5v8a5,5,0,0,1,-5,5h-55a5,5,0,0,1,-5,-5v-8a5,5,0,0,1,5,-5z"></path><g id="node_text13" fill="black"><text id="kity_text_87" text-rendering="inherit" font-size="12" dy=".8em" y="425.7000000476837" x="369.5">Linux指令</text></g></g><g id="minder_node16"><g id="node_expander13" style="cursor: pointer;" display="none"><path id="kity_path_152" fill="white" stroke="gray" d="M364.5,459.5A6,6,0,1,1,352.5,459.5A6,6,0,1,1,364.5,459.5"></path><path id="kity_path_153" fill="none" stroke="gray"></path></g><path id="node_outline14" fill="none" stroke="none" d="M369.5,450.5h90a5,5,0,0,1,5,5v8a5,5,0,0,1,-5,5h-90a5,5,0,0,1,-5,-5v-8a5,5,0,0,1,5,-5z"></path><g id="node_text14" fill="black"><text id="kity_text_89" text-rendering="inherit" font-size="12" dy=".8em" y="451.7000000476837" x="369.5">Windows命令行</text></g></g><g id="minder_node17"><g id="node_expander16" style="cursor: pointer;"><path id="kity_path_161" fill="white" stroke="gray" d="M174.5,531.5A6,6,0,1,1,162.5,531.5A6,6,0,1,1,174.5,531.5"></path><path id="kity_path_162" fill="none" stroke="gray" d="M164,531.5L173,531.5"></path></g><path id="node_outline17" fill="rgb(246, 238, 238)" stroke="rgb(191, 115, 115)" d="M178.5,518.5h77a3,3,0,0,1,3,3v20a3,3,0,0,1,-3,3h-77a3,3,0,0,1,-3,-3v-20a3,3,0,0,1,3,-3z" stroke-width="1"></path><g id="node_text17" fill="black"><text id="kity_text_95" text-rendering="inherit" font-size="14" dy=".8em" y="522.4000000953674" x="195.5">数据库</text></g></g><g id="minder_node18"><g id="node_expander17" style="cursor: pointer;"><path id="kity_path_164" fill="white" stroke="gray" d="M174.5,630.5A6,6,0,1,1,162.5,630.5A6,6,0,1,1,174.5,630.5"></path><path id="kity_path_165" fill="none" stroke="gray" d="M164,630.5L173,630.5"></path></g><path id="node_outline18" fill="rgb(246, 238, 238)" stroke="rgb(191, 115, 115)" d="M178.5,617.5h92a3,3,0,0,1,3,3v20a3,3,0,0,1,-3,3h-92a3,3,0,0,1,-3,-3v-20a3,3,0,0,1,3,-3z" stroke-width="1"></path><g id="node_text18" fill="black"><text id="kity_text_97" text-rendering="inherit" font-size="14" dy=".8em" y="621.4000000953674" x="195.5">开发工具</text></g></g><g id="minder_node20"><g id="node_expander19" style="cursor: pointer;" display="none"><path id="kity_path_180" fill="white" stroke="gray" d="M289.5,604.5A6,6,0,1,1,277.5,604.5A6,6,0,1,1,289.5,604.5"></path><path id="kity_path_181" fill="none" stroke="gray"></path></g><path id="node_outline20" fill="none" stroke="none" d="M294.5,595.5h207a5,5,0,0,1,5,5v8a5,5,0,0,1,-5,5h-207a5,5,0,0,1,-5,-5v-8a5,5,0,0,1,5,-5z" stroke-width="3"></path><g id="node_text20" fill="black"><text id="kity_text_177" text-rendering="inherit" font-size="12" dy=".8em" y="596.7000000476837" x="294.5">Visual Studio&#xa0;Code：强大的开发工具</text></g></g><g id="minder_node21"><g id="node_expander20" style="cursor: pointer;" display="none"><path id="kity_path_188" fill="white" stroke="gray" d="M274.5,492.5A6,6,0,1,1,262.5,492.5A6,6,0,1,1,274.5,492.5"></path><path id="kity_path_189" fill="none" stroke="gray"></path></g><path id="node_outline21" fill="none" stroke="none" d="M279.5,483.5h260a5,5,0,0,1,5,5v8a5,5,0,0,1,-5,5h-260a5,5,0,0,1,-5,-5v-8a5,5,0,0,1,5,-5z" stroke-width="3"></path><g id="node_text21" fill="black"><text id="kity_text_185" text-rendering="inherit" font-size="12" dy=".8em" y="484.7000000476837" x="279.5">基本观念：关系型数据库 =&gt; Oracle、MySQL····</text></g></g><g id="minder_node22"><g id="node_expander21" style="cursor: pointer;" display="none"><path id="kity_path_196" fill="white" stroke="gray" d="M274.5,518.5A6,6,0,1,1,262.5,518.5A6,6,0,1,1,274.5,518.5"></path><path id="kity_path_197" fill="none" stroke="gray"></path></g><path id="node_outline22" fill="none" stroke="none" d="M279.5,509.5h313a5,5,0,0,1,5,5v8a5,5,0,0,1,-5,5h-313a5,5,0,0,1,-5,-5v-8a5,5,0,0,1,5,-5z" stroke-width="3"></path><g id="node_text22" fill="black"><text id="kity_text_193" text-rendering="inherit" font-size="12" dy=".8em" y="510.7000000476837" x="279.5">MySQL数据库安装，管理工具安装：MySQL Work-bench</text></g></g><g id="minder_node23"><g id="node_expander22" style="cursor: pointer;" display="none"><path id="kity_path_204" fill="white" stroke="gray" d="M274.5,544.5A6,6,0,1,1,262.5,544.5A6,6,0,1,1,274.5,544.5"></path><path id="kity_path_205" fill="none" stroke="gray"></path></g><path id="node_outline23" fill="none" stroke="none" d="M279.5,535.5h90a5,5,0,0,1,5,5v8a5,5,0,0,1,-5,5h-90a5,5,0,0,1,-5,-5v-8a5,5,0,0,1,5,-5z" stroke-width="3"></path><g id="node_text23" fill="black"><text id="kity_text_201" text-rendering="inherit" font-size="12" dy=".8em" y="536.7000000476837" x="279.5">MySQL增删查改</text></g></g><g id="minder_node24"><g id="node_expander23" style="cursor: pointer;" display="none"><path id="kity_path_212" fill="white" stroke="gray" d="M274.5,570.5A6,6,0,1,1,262.5,570.5A6,6,0,1,1,274.5,570.5"></path><path id="kity_path_213" fill="none" stroke="gray"></path></g><path id="node_outline24" fill="none" stroke="none" d="M279.5,561.5h113a5,5,0,0,1,5,5v8a5,5,0,0,1,-5,5h-113a5,5,0,0,1,-5,-5v-8a5,5,0,0,1,5,-5z" stroke-width="3"></path><g id="node_text24" fill="black"><text id="kity_text_209" text-rendering="inherit" font-size="12" dy=".8em" y="562.7000000476837" x="279.5">MySQL复杂查询语句</text></g></g><g id="minder_node25"><g id="node_expander24" style="cursor: pointer;" display="none"><path id="kity_path_220" fill="white" stroke="gray" d="M289.5,656.5A6,6,0,1,1,277.5,656.5A6,6,0,1,1,289.5,656.5"></path><path id="kity_path_221" fill="none" stroke="gray"></path></g><path id="node_outline25" fill="none" stroke="none" d="M294.5,647.5h219a5,5,0,0,1,5,5v8a5,5,0,0,1,-5,5h-219a5,5,0,0,1,-5,-5v-8a5,5,0,0,1,5,-5z" stroke-width="3"></path><g id="node_text25" fill="black"><text id="kity_text_217" text-rendering="inherit" font-size="12" dy=".8em" y="648.7000000476837" x="294.5">XAMPP：Apache+MySQL+PHP+PERL</text></g></g><g id="minder_node27"><g id="node_expander26" style="cursor: pointer;" display="none"><path id="kity_path_236" fill="white" stroke="gray" d="M289.5,630.5A6,6,0,1,1,277.5,630.5A6,6,0,1,1,289.5,630.5"></path><path id="kity_path_237" fill="none" stroke="gray"></path></g><path id="node_outline27" fill="none" stroke="none" d="M294.5,621.5h162a5,5,0,0,1,5,5v8a5,5,0,0,1,-5,5h-162a5,5,0,0,1,-5,-5v-8a5,5,0,0,1,5,-5z" stroke-width="3"></path><g id="node_text27" fill="black"><text id="kity_text_233" text-rendering="inherit" font-size="12" dy=".8em" y="622.7000000476837" x="294.5">vscode一些插件、主题的配置</text></g></g><g id="minder_node28" opacity="1"><g id="node_expander27" style="cursor: pointer;" display="none"><path id="kity_path_244" fill="white" stroke="gray" d="M353.5,29.5A6,6,0,1,1,341.5,29.5A6,6,0,1,1,353.5,29.5"></path><path id="kity_path_245" fill="none" stroke="gray" d="M343,29.5L352,29.5"></path></g><path id="node_outline28" fill="none" stroke="none" d="M358.5,20.5h86a5,5,0,0,1,5,5v8a5,5,0,0,1,-5,5h-86a5,5,0,0,1,-5,-5v-8a5,5,0,0,1,5,-5z" stroke-width="3"></path><g id="node_text28" fill="black"><text id="kity_text_241" text-rendering="inherit" font-size="12" dy=".8em" y="21.700000047683716" x="358.5">什么是同源策略</text></g></g><g id="minder_node30"><g id="node_expander29" style="cursor: pointer;" display="none"><path id="kity_path_260" fill="white" stroke="gray" d="M348.5,60.5A6,6,0,1,1,336.5,60.5A6,6,0,1,1,348.5,60.5"></path><path id="kity_path_261" fill="none" stroke="gray" d="M338,60.5L347,60.5"></path></g><path id="node_outline30" fill="none" stroke="none" d="M353.5,51.5h84a5,5,0,0,1,5,5v8a5,5,0,0,1,-5,5h-84a5,5,0,0,1,-5,-5v-8a5,5,0,0,1,5,-5z" stroke-width="3"></path><g id="node_text30" fill="black"><text id="kity_text_257" text-rendering="inherit" font-size="12" dy=".8em" y="52.700000047683716" x="353.5">同源策略的限制</text></g></g><g id="minder_node34"><g id="node_expander33" style="cursor: pointer;" display="none"><path id="kity_path_292" fill="white" stroke="gray" d="M348.5,86.5A6,6,0,1,1,336.5,86.5A6,6,0,1,1,348.5,86.5"></path><path id="kity_path_293" fill="none" stroke="gray" d="M338,86.5L347,86.5"></path></g><path id="node_outline34" fill="none" stroke="none" d="M353.5,77.5h110a5,5,0,0,1,5,5v8a5,5,0,0,1,-5,5h-110a5,5,0,0,1,-5,-5v-8a5,5,0,0,1,5,-5z" stroke-width="3"></path><g id="node_text34" fill="black"><text id="kity_text_289" text-rendering="inherit" font-size="12" dy=".8em" y="78.70000004768372" x="353.5">实现跨域的几种方式</text></g></g><g id="minder_node43"><g id="node_expander42" style="cursor: pointer;" display="none"><path id="kity_path_369" fill="white" stroke="gray" d="M348.5,138.5A6,6,0,1,1,336.5,138.5A6,6,0,1,1,348.5,138.5"></path><path id="kity_path_370" fill="none" stroke="gray" d="M338,138.5L347,138.5"></path></g><path id="node_outline43" fill="none" stroke="none" d="M353.5,129.5h63a5,5,0,0,1,5,5v8a5,5,0,0,1,-5,5h-63a5,5,0,0,1,-5,-5v-8a5,5,0,0,1,5,-5z" stroke-width="3"></path><g id="node_text43" fill="black"><text id="kity_text_366" text-rendering="inherit" font-size="12" dy=".8em" y="130.70000004768372" x="353.5">html语义化</text></g></g><g id="minder_node47"><g id="node_expander46" style="cursor: pointer;" display="none"><path id="kity_path_401" fill="white" stroke="gray" d="M348.5,112.5A6,6,0,1,1,336.5,112.5A6,6,0,1,1,348.5,112.5"></path><path id="kity_path_402" fill="none" stroke="gray" d="M338,112.5L347,112.5"></path></g><path id="node_outline47" fill="none" stroke="none" d="M353.5,103.5h85a5,5,0,0,1,5,5v8a5,5,0,0,1,-5,5h-85a5,5,0,0,1,-5,-5v-8a5,5,0,0,1,5,-5z" stroke-width="3"></path><g id="node_text47" fill="black"><text id="kity_text_398" text-rendering="inherit" font-size="12" dy=".8em" y="104.70000004768372" x="353.5">跨域的几种应用</text></g></g><g id="minder_node50"><g id="node_expander49" style="cursor: pointer;" display="none"><path id="kity_path_425" fill="white" stroke="gray" d="M335.5,164.5A6,6,0,1,1,323.5,164.5A6,6,0,1,1,335.5,164.5"></path><path id="kity_path_426" fill="none" stroke="gray"></path></g><path id="node_outline50" fill="none" stroke="none" d="M340.5,155.5h53a5,5,0,0,1,5,5v8a5,5,0,0,1,-5,5h-53a5,5,0,0,1,-5,-5v-8a5,5,0,0,1,5,-5z" stroke-width="3"></path><g id="node_text50" fill="black"><text id="kity_text_422" text-rendering="inherit" font-size="12" dy=".8em" y="156.70000004768372" x="340.5">CSS3动画</text></g></g><g id="minder_node51"><g id="node_expander50" style="cursor: pointer;" display="none"><path id="kity_path_433" fill="white" stroke="gray" d="M335.5,190.5A6,6,0,1,1,323.5,190.5A6,6,0,1,1,335.5,190.5"></path><path id="kity_path_434" fill="none" stroke="gray"></path></g><path id="node_outline51" fill="none" stroke="none" d="M340.5,181.5h42a5,5,0,0,1,5,5v8a5,5,0,0,1,-5,5h-42a5,5,0,0,1,-5,-5v-8a5,5,0,0,1,5,-5z" stroke-width="3"></path><g id="node_text51" fill="black"><text id="kity_text_430" text-rendering="inherit" font-size="12" dy=".8em" y="182.70000004768372" x="340.5">CSS 3D</text></g></g><g id="minder_node52"><g id="node_expander51" style="cursor: pointer;" display="none"><path id="kity_path_441" fill="white" stroke="gray" d="M335.5,216.5A6,6,0,1,1,323.5,216.5A6,6,0,1,1,335.5,216.5"></path><path id="kity_path_442" fill="none" stroke="gray"></path></g><path id="node_outline52" fill="none" stroke="none" d="M340.5,207.5h46a5,5,0,0,1,5,5v8a5,5,0,0,1,-5,5h-46a5,5,0,0,1,-5,-5v-8a5,5,0,0,1,5,-5z" stroke-width="3"></path><g id="node_text52" fill="black"><text id="kity_text_438" text-rendering="inherit" font-size="12" dy=".8em" y="208.70000004768372" x="340.5">CSS布局</text></g></g><g id="minder_node53"><g id="node_expander52" style="cursor: pointer;" display="none"><path id="kity_path_449" fill="white" stroke="gray" d="M335.5,242.5A6,6,0,1,1,323.5,242.5A6,6,0,1,1,335.5,242.5"></path><path id="kity_path_450" fill="none" stroke="gray"></path></g><path id="node_outline53" fill="none" stroke="none" d="M340.5,233.5h38a5,5,0,0,1,5,5v8a5,5,0,0,1,-5,5h-38a5,5,0,0,1,-5,-5v-8a5,5,0,0,1,5,-5z" stroke-width="3"></path><g id="node_text53" fill="black"><text id="kity_text_446" text-rendering="inherit" font-size="12" dy=".8em" y="234.70000004768372" x="340.5">盒模型</text></g></g></g></g></svg>