<svg id="kity_svg_6" xmlns="http://www.w3.org/2000/svg" xmlns:xlink="http://www.w3.org/1999/xlink" version="1.1" width="938" height="940" style="background: rgb(251, 251, 251); visibility: visible;" viewBox="0 0 938 940"><defs id="kity_defs_7"><linearGradient id="kity_linearGradient_17" x1="0" y1="0" x2="0" y2="1"><stop id="kity_stop_18" offset="0" stop-color="rgb(255, 255, 255)"></stop><stop id="kity_stop_19" offset="1" stop-color="rgb(204, 204, 204)"></stop></linearGradient><marker id="kity_marker_2" orient="auto" refX="6" refY="0" viewBox="-7 -7 14 14" markerWidth="7" markerHeight="7" markerUnits="userSpaceOnUse"><path id="kity_path_3" fill="rgb(191, 115, 115)" stroke="none" d="M6,0A6,6,0,1,1,-6,0A6,6,0,1,1,6,0"></path></marker></defs><g id="kity_g_8"><g id="minder1" text-rendering="optimize-speed"><g id="minder_connect_group1"><path id="kity_path_31" fill="none" stroke="rgb(191, 115, 115)" stroke-width="1" d="M89,457.5A84.5,402,0,0,1,173.5,55.5"></path><path id="kity_path_33" fill="none" stroke="rgb(191, 115, 115)" stroke-width="1" d="M273.5,55.5C281.5,55.5,281.5,29.5,289.5,29.5"></path><path id="kity_path_35" fill="none" stroke="rgb(191, 115, 115)" stroke-width="1" d="M273.5,55.5C281.5,55.5,281.5,55.5,289.5,55.5"></path><path id="kity_path_37" fill="none" stroke="rgb(191, 115, 115)" stroke-width="1" d="M273.5,55.5C281.5,55.5,281.5,81.5,289.5,81.5"></path><path id="kity_path_39" fill="none" stroke="rgb(191, 115, 115)" stroke-width="1" d="M89,457.5A84.5,241,0,0,1,173.5,216.5"></path><path id="kity_path_41" fill="none" stroke="rgb(191, 115, 115)" stroke-width="1" d="M271.5,216.5C279.5,216.5,279.5,115.5,287.5,115.5"></path><path id="kity_path_43" fill="none" stroke="rgb(191, 115, 115)" stroke-width="1" d="M332.5,115.5C340.5,115.5,340.5,115.5,348.5,115.5"></path><path id="kity_path_45" fill="none" stroke="rgb(191, 115, 115)" stroke-width="1" d="M271.5,216.5C279.5,216.5,279.5,167.5,287.5,167.5"></path><path id="kity_path_47" fill="none" stroke="rgb(191, 115, 115)" stroke-width="1" d="M319.5,167.5C327.5,167.5,327.5,141.5,335.5,141.5"></path><path id="kity_path_49" fill="none" stroke="rgb(191, 115, 115)" stroke-width="1" d="M319.5,167.5C327.5,167.5,327.5,167.5,335.5,167.5"></path><path id="kity_path_51" fill="none" stroke="rgb(191, 115, 115)" stroke-width="1" d="M319.5,167.5C327.5,167.5,327.5,193.5,335.5,193.5"></path><path id="kity_path_53" fill="none" stroke="rgb(191, 115, 115)" stroke-width="1" d="M271.5,216.5C279.5,216.5,279.5,317.5,287.5,317.5"></path><path id="kity_path_55" fill="none" stroke="rgb(191, 115, 115)" stroke-width="1" d="M356.5,317.5C364.5,317.5,364.5,220.5,372.5,220.5"></path><path id="kity_path_57" fill="none" stroke="rgb(191, 115, 115)" stroke-width="1" d="M356.5,317.5C364.5,317.5,364.5,272.5,372.5,272.5"></path><path id="kity_path_59" fill="none" stroke="rgb(191, 115, 115)" stroke-width="1" d="M563.5,272.5C571.5,272.5,571.5,246.5,579.5,246.5"></path><path id="kity_path_61" fill="none" stroke="rgb(191, 115, 115)" stroke-width="1" d="M563.5,272.5C571.5,272.5,571.5,272.5,579.5,272.5"></path><path id="kity_path_63" fill="none" stroke="rgb(191, 115, 115)" stroke-width="1" d="M563.5,272.5C571.5,272.5,571.5,298.5,579.5,298.5"></path><path id="kity_path_65" fill="none" stroke="rgb(191, 115, 115)" stroke-width="1" d="M356.5,317.5C364.5,317.5,364.5,324.5,372.5,324.5"></path><path id="kity_path_67" fill="none" stroke="rgb(191, 115, 115)" stroke-width="1" d="M356.5,317.5C364.5,317.5,364.5,350.5,372.5,350.5"></path><path id="kity_path_69" fill="none" stroke="rgb(191, 115, 115)" stroke-width="1" d="M457.5,350.5C465.5,350.5,465.5,350.5,473.5,350.5"></path><path id="kity_path_71" fill="none" stroke="rgb(191, 115, 115)" stroke-width="1" d="M356.5,317.5C364.5,317.5,364.5,415.5,372.5,415.5"></path><path id="kity_path_73" fill="none" stroke="rgb(191, 115, 115)" stroke-width="1" d="M501.5,415.5C509.5,415.5,509.5,376.5,517.5,376.5"></path><path id="kity_path_75" fill="none" stroke="rgb(191, 115, 115)" stroke-width="1" d="M501.5,415.5C509.5,415.5,509.5,402.5,517.5,402.5"></path><path id="kity_path_77" fill="none" stroke="rgb(191, 115, 115)" stroke-width="1" d="M501.5,415.5C509.5,415.5,509.5,428.5,517.5,428.5"></path><path id="kity_path_79" fill="none" stroke="rgb(191, 115, 115)" stroke-width="1" d="M501.5,415.5C509.5,415.5,509.5,454.5,517.5,454.5"></path><path id="kity_path_81" fill="none" stroke="rgb(191, 115, 115)" stroke-width="1" d="M89,457.5A84.5,154,0,0,0,173.5,611.5"></path><path id="kity_path_83" fill="none" stroke="rgb(191, 115, 115)" stroke-width="1" d="M272.5,611.5C280.5,611.5,280.5,527.5,288.5,527.5"></path><path id="kity_path_85" fill="none" stroke="rgb(191, 115, 115)" stroke-width="1" d="M347.5,527.5C355.5,527.5,355.5,488.5,363.5,488.5"></path><path id="kity_path_87" fill="none" stroke="rgb(191, 115, 115)" stroke-width="1" d="M347.5,527.5C355.5,527.5,355.5,514.5,363.5,514.5"></path><path id="kity_path_89" fill="none" stroke="rgb(191, 115, 115)" stroke-width="1" d="M347.5,527.5C355.5,527.5,355.5,566.5,363.5,566.5"></path><path id="kity_path_91" fill="none" stroke="rgb(191, 115, 115)" stroke-width="1" d="M398.5,566.5C406.5,566.5,406.5,540.5,414.5,540.5"></path><path id="kity_path_93" fill="none" stroke="rgb(191, 115, 115)" stroke-width="1" d="M398.5,566.5C406.5,566.5,406.5,566.5,414.5,566.5"></path><path id="kity_path_95" fill="none" stroke="rgb(191, 115, 115)" stroke-width="1" d="M398.5,566.5C406.5,566.5,406.5,592.5,414.5,592.5"></path><path id="kity_path_97" fill="none" stroke="rgb(191, 115, 115)" stroke-width="1" d="M272.5,611.5C280.5,611.5,280.5,696.5,288.5,696.5"></path><path id="kity_path_99" fill="none" stroke="rgb(191, 115, 115)" stroke-width="1" d="M348.5,696.5C356.5,696.5,356.5,618.5,364.5,618.5"></path><path id="kity_path_101" fill="none" stroke="rgb(191, 115, 115)" stroke-width="1" d="M348.5,696.5C356.5,696.5,356.5,696.5,364.5,696.5"></path><path id="kity_path_103" fill="none" stroke="rgb(191, 115, 115)" stroke-width="1" d="M405.5,696.5C413.5,696.5,413.5,644.5,421.5,644.5"></path><path id="kity_path_105" fill="none" stroke="rgb(191, 115, 115)" stroke-width="1" d="M405.5,696.5C413.5,696.5,413.5,670.5,421.5,670.5"></path><path id="kity_path_107" fill="none" stroke="rgb(191, 115, 115)" stroke-width="1" d="M405.5,696.5C413.5,696.5,413.5,696.5,421.5,696.5"></path><path id="kity_path_109" fill="none" stroke="rgb(191, 115, 115)" stroke-width="1" d="M405.5,696.5C413.5,696.5,413.5,722.5,421.5,722.5"></path><path id="kity_path_111" fill="none" stroke="rgb(191, 115, 115)" stroke-width="1" d="M405.5,696.5C413.5,696.5,413.5,748.5,421.5,748.5"></path><path id="kity_path_113" fill="none" stroke="rgb(191, 115, 115)" stroke-width="1" d="M348.5,696.5C356.5,696.5,356.5,774.5,364.5,774.5"></path><path id="kity_path_115" fill="none" stroke="rgb(191, 115, 115)" stroke-width="1" d="M429.5,774.5C437.5,774.5,437.5,774.5,445.5,774.5"></path><path id="kity_path_117" fill="none" stroke="rgb(191, 115, 115)" stroke-width="1" d="M89,457.5A84.5,402,0,0,0,173.5,859.5"></path><path id="kity_path_119" fill="none" stroke="rgb(191, 115, 115)" stroke-width="1" d="M258.5,859.5C266.5,859.5,266.5,859.5,274.5,859.5"></path><path id="kity_path_121" fill="none" stroke="rgb(191, 115, 115)" stroke-width="1" d="M326.5,859.5C334.5,859.5,334.5,807.5,342.5,807.5"></path><path id="kity_path_123" fill="none" stroke="rgb(191, 115, 115)" stroke-width="1" d="M326.5,859.5C334.5,859.5,334.5,833.5,342.5,833.5"></path><path id="kity_path_125" fill="none" stroke="rgb(191, 115, 115)" stroke-width="1" d="M326.5,859.5C334.5,859.5,334.5,859.5,342.5,859.5"></path><path id="kity_path_127" fill="none" stroke="rgb(191, 115, 115)" stroke-width="1" d="M326.5,859.5C334.5,859.5,334.5,885.5,342.5,885.5"></path><path id="kity_path_129" fill="none" stroke="rgb(191, 115, 115)" stroke-width="1" d="M326.5,859.5C334.5,859.5,334.5,911.5,342.5,911.5"></path></g><g id="minder_node1"><path id="kity_path_434" fill="rgba(0, 0, 0, .25)" stroke="none" d="M31.5,445.5h178a5,5,0,0,1,5,5v24a5,5,0,0,1,-5,5h-178a5,5,0,0,1,-5,-5v-24a5,5,0,0,1,5,-5z" display="none"></path><path id="node_outline1" fill="rgb(191, 115, 115)" stroke="rgb(96, 57, 57)" d="M25.5,443.5h127a5,5,0,0,1,5,5v18a5,5,0,0,1,-5,5h-127a5,5,0,0,1,-5,-5v-18a5,5,0,0,1,5,-5z" stroke-width="3"></path><g id="node_text1" fill="white"><text id="kity_text_22" text-rendering="inherit" font-size="16" dy=".8em" y="447.09999990463257" x="32.5">预科班课程体系</text></g></g><g id="kity_g_12"><path id="kity_path_13" fill="none" stroke="none" d="M32.5,457.5h0v0h0z"></path></g><g id="kity_g_14"><path id="kity_path_15" fill="none" stroke="none" d="M32.5,457.5h0v0h0z"></path><path id="kity_path_16" fill="none" stroke="none"></path></g><g id="minder_node2"><path id="kity_path_430" fill="rgba(0, 0, 0, .25)" stroke="none" d="M194.5,48.5h75a5,5,0,0,1,5,5v14a5,5,0,0,1,-5,5h-75a5,5,0,0,1,-5,-5v-14a5,5,0,0,1,5,-5z" display="none"></path><g id="node_expander4" style="cursor: pointer;"><path id="kity_path_290" fill="white" stroke="gray" d="M174.5,55.5A6,6,0,1,1,162.5,55.5A6,6,0,1,1,174.5,55.5"></path><path id="kity_path_291" fill="none" stroke="gray" d="M164,55.5L173,55.5"></path></g><path id="node_outline5" fill="rgb(246, 238, 238)" stroke="rgb(191, 115, 115)" d="M178.5,42.5h92a3,3,0,0,1,3,3v20a3,3,0,0,1,-3,3h-92a3,3,0,0,1,-3,-3v-20a3,3,0,0,1,3,-3z" stroke-width="1"></path><g id="node_text5" fill="black"><text id="kity_text_137" text-rendering="inherit" font-size="14" dy=".8em" y="46.40000009536743" x="195.5">开发工具</text></g></g><g id="minder_node3"><g id="node_expander1" style="cursor: pointer;" display="none"><path id="kity_path_281" fill="white" stroke="gray" d="M289.5,29.5A6,6,0,1,1,277.5,29.5A6,6,0,1,1,289.5,29.5"></path><path id="kity_path_282" fill="none" stroke="gray"></path></g><path id="node_outline2" fill="none" stroke="none" d="M294.5,20.5h168a5,5,0,0,1,5,5v8a5,5,0,0,1,-5,5h-168a5,5,0,0,1,-5,-5v-8a5,5,0,0,1,5,-5z"></path><g id="node_text2" fill="black"><text id="kity_text_131" text-rendering="inherit" font-size="12" dy=".8em" y="21.700000047683716" x="294.5">浏览器：Chrome、Firefox、IE</text></g></g><g id="minder_node4"><g id="node_expander2" style="cursor: pointer;" display="none"><path id="kity_path_284" fill="white" stroke="gray" d="M289.5,55.5A6,6,0,1,1,277.5,55.5A6,6,0,1,1,289.5,55.5"></path><path id="kity_path_285" fill="none" stroke="gray"></path></g><path id="node_outline3" fill="none" stroke="none" d="M294.5,46.5h41a5,5,0,0,1,5,5v8a5,5,0,0,1,-5,5h-41a5,5,0,0,1,-5,-5v-8a5,5,0,0,1,5,-5z"></path><g id="node_text3" fill="black"><text id="kity_text_133" text-rendering="inherit" font-size="12" dy=".8em" y="47.700000047683716" x="294.5">vscode</text></g></g><g id="minder_node5"><g id="node_expander3" style="cursor: pointer;" display="none"><path id="kity_path_287" fill="white" stroke="gray" d="M289.5,81.5A6,6,0,1,1,277.5,81.5A6,6,0,1,1,289.5,81.5"></path><path id="kity_path_288" fill="none" stroke="gray"></path></g><path id="node_outline4" fill="none" stroke="none" d="M294.5,72.5h28a5,5,0,0,1,5,5v8a5,5,0,0,1,-5,5h-28a5,5,0,0,1,-5,-5v-8a5,5,0,0,1,5,-5z"></path><g id="node_text4" fill="black"><text id="kity_text_135" text-rendering="inherit" font-size="12" dy=".8em" y="73.70000004768372" x="294.5">IDEA</text></g></g><g id="minder_node6"><path id="kity_path_431" fill="rgba(0, 0, 0, .25)" stroke="none" d="M194.5,209.5h74a5,5,0,0,1,5,5v14a5,5,0,0,1,-5,5h-74a5,5,0,0,1,-5,-5v-14a5,5,0,0,1,5,-5z" display="none"></path><g id="node_expander25" style="cursor: pointer;"><path id="kity_path_353" fill="white" stroke="gray" d="M174.5,216.5A6,6,0,1,1,162.5,216.5A6,6,0,1,1,174.5,216.5"></path><path id="kity_path_354" fill="none" stroke="gray" d="M164,216.5L173,216.5"></path></g><path id="node_outline26" fill="rgb(246, 238, 238)" stroke="rgb(191, 115, 115)" d="M178.5,203.5h90a3,3,0,0,1,3,3v20a3,3,0,0,1,-3,3h-90a3,3,0,0,1,-3,-3v-20a3,3,0,0,1,3,-3z" stroke-width="1"></path><g id="node_text26" fill="black"><text id="kity_text_179" text-rendering="inherit" font-size="14" dy=".8em" y="207.40000009536743" x="195.5">前端基础</text></g></g><g id="minder_node7"><g id="node_expander6" style="cursor: pointer;"><path id="kity_path_296" fill="white" stroke="gray" d="M287.5,115.5A6,6,0,1,1,275.5,115.5A6,6,0,1,1,287.5,115.5"></path><path id="kity_path_297" fill="none" stroke="gray" d="M277,115.5L286,115.5"></path></g><path id="node_outline7" fill="none" stroke="none" d="M292.5,106.5h35a5,5,0,0,1,5,5v8a5,5,0,0,1,-5,5h-35a5,5,0,0,1,-5,-5v-8a5,5,0,0,1,5,-5z"></path><g id="node_text7" fill="black"><text id="kity_text_141" text-rendering="inherit" font-size="12" dy=".8em" y="107.70000004768372" x="292.5">HTML</text></g></g><g id="minder_node8"><g id="node_expander5" style="cursor: pointer;" display="none"><path id="kity_path_293" fill="white" stroke="gray" d="M348.5,115.5A6,6,0,1,1,336.5,115.5A6,6,0,1,1,348.5,115.5"></path><path id="kity_path_294" fill="none" stroke="gray"></path></g><path id="node_outline6" fill="none" stroke="none" d="M353.5,106.5h96a5,5,0,0,1,5,5v8a5,5,0,0,1,-5,5h-96a5,5,0,0,1,-5,-5v-8a5,5,0,0,1,5,-5z"></path><g id="node_text6" fill="black"><text id="kity_text_139" text-rendering="inherit" font-size="12" dy=".8em" y="107.70000004768372" x="353.5">你不知道的HTML</text></g></g><g id="minder_node9"><g id="node_expander10" style="cursor: pointer;"><path id="kity_path_308" fill="white" stroke="gray" d="M287.5,167.5A6,6,0,1,1,275.5,167.5A6,6,0,1,1,287.5,167.5"></path><path id="kity_path_309" fill="none" stroke="gray" d="M277,167.5L286,167.5"></path></g><path id="node_outline11" fill="none" stroke="none" d="M292.5,158.5h22a5,5,0,0,1,5,5v8a5,5,0,0,1,-5,5h-22a5,5,0,0,1,-5,-5v-8a5,5,0,0,1,5,-5z"></path><g id="node_text11" fill="black"><text id="kity_text_149" text-rendering="inherit" font-size="12" dy=".8em" y="159.70000004768372" x="292.5">CSS</text></g></g><g id="minder_node10"><g id="node_expander7" style="cursor: pointer;" display="none"><path id="kity_path_299" fill="white" stroke="gray" d="M335.5,141.5A6,6,0,1,1,323.5,141.5A6,6,0,1,1,335.5,141.5"></path><path id="kity_path_300" fill="none" stroke="gray"></path></g><path id="node_outline8" fill="none" stroke="none" d="M340.5,132.5h87a5,5,0,0,1,5,5v8a5,5,0,0,1,-5,5h-87a5,5,0,0,1,-5,-5v-8a5,5,0,0,1,5,-5z"></path><g id="node_text8" fill="black"><text id="kity_text_143" text-rendering="inherit" font-size="12" dy=".8em" y="133.70000004768372" x="340.5">CSS构建3D世界</text></g></g><g id="minder_node11"><g id="node_expander8" style="cursor: pointer;" display="none"><path id="kity_path_302" fill="white" stroke="gray" d="M335.5,167.5A6,6,0,1,1,323.5,167.5A6,6,0,1,1,335.5,167.5"></path><path id="kity_path_303" fill="none" stroke="gray"></path></g><path id="node_outline9" fill="none" stroke="none" d="M340.5,158.5h154a5,5,0,0,1,5,5v8a5,5,0,0,1,-5,5h-154a5,5,0,0,1,-5,-5v-8a5,5,0,0,1,5,-5z"></path><g id="node_text9" fill="black"><text id="kity_text_145" text-rendering="inherit" font-size="12" dy=".8em" y="159.70000004768372" x="340.5">CSS高级实用技巧（上、下）</text></g></g><g id="minder_node12"><g id="node_expander9" style="cursor: pointer;" display="none"><path id="kity_path_305" fill="white" stroke="gray" d="M335.5,193.5A6,6,0,1,1,323.5,193.5A6,6,0,1,1,335.5,193.5"></path><path id="kity_path_306" fill="none" stroke="gray"></path></g><path id="node_outline10" fill="none" stroke="none" d="M340.5,184.5h118a5,5,0,0,1,5,5v8a5,5,0,0,1,-5,5h-118a5,5,0,0,1,-5,-5v-8a5,5,0,0,1,5,-5z"></path><g id="node_text10" fill="black"><text id="kity_text_147" text-rendering="inherit" font-size="12" dy=".8em" y="185.70000004768372" x="340.5">CSS与数学的巧妙运用</text></g></g><g id="minder_node13"><g id="node_expander24" style="cursor: pointer;"><path id="kity_path_350" fill="white" stroke="gray" d="M287.5,317.5A6,6,0,1,1,275.5,317.5A6,6,0,1,1,287.5,317.5"></path><path id="kity_path_351" fill="none" stroke="gray" d="M277,317.5L286,317.5"></path></g><path id="node_outline25" fill="none" stroke="none" d="M292.5,308.5h59a5,5,0,0,1,5,5v8a5,5,0,0,1,-5,5h-59a5,5,0,0,1,-5,-5v-8a5,5,0,0,1,5,-5z"></path><g id="node_text25" fill="black"><text id="kity_text_177" text-rendering="inherit" font-size="12" dy=".8em" y="309.7000000476837" x="292.5">JavaScript</text></g></g><g id="minder_node14"><g id="node_expander11" style="cursor: pointer;" display="none"><path id="kity_path_311" fill="white" stroke="gray" d="M372.5,220.5A6,6,0,1,1,360.5,220.5A6,6,0,1,1,372.5,220.5"></path><path id="kity_path_312" fill="none" stroke="gray"></path></g><path id="node_outline12" fill="#00b0f0" stroke="none" d="M377.5,211.5h70a5,5,0,0,1,5,5v8a5,5,0,0,1,-5,5h-70a5,5,0,0,1,-5,-5v-8a5,5,0,0,1,5,-5z"></path><g id="node_text12" fill="black"><text id="kity_text_151" text-rendering="inherit" font-size="12" dy=".8em" y="212.70000004768372" x="377.5">ES5核心技术</text></g></g><g id="minder_node15"><g id="node_expander15" style="cursor: pointer;"><path id="kity_path_323" fill="white" stroke="gray" d="M372.5,272.5A6,6,0,1,1,360.5,272.5A6,6,0,1,1,372.5,272.5"></path><path id="kity_path_324" fill="none" stroke="gray" d="M362,272.5L371,272.5"></path></g><path id="node_outline16" fill="#00b0f0" stroke="none" d="M377.5,263.5h181a5,5,0,0,1,5,5v8a5,5,0,0,1,-5,5h-181a5,5,0,0,1,-5,-5v-8a5,5,0,0,1,5,-5z"></path><g id="node_text16" fill="black"><text id="kity_text_159" text-rendering="inherit" font-size="12" dy=".8em" y="264.7000000476837" x="377.5">ECMAScript5.1新增语法（上下）</text></g></g><g id="minder_node16"><g id="node_expander12" style="cursor: pointer;" display="none"><path id="kity_path_314" fill="white" stroke="gray" d="M579.5,246.5A6,6,0,1,1,567.5,246.5A6,6,0,1,1,579.5,246.5"></path><path id="kity_path_315" fill="none" stroke="gray"></path></g><path id="node_outline13" fill="none" stroke="none" d="M584.5,237.5h309a5,5,0,0,1,5,5v8a5,5,0,0,1,-5,5h-309a5,5,0,0,1,-5,-5v-8a5,5,0,0,1,5,-5z"></path><g id="node_text13" fill="black"><text id="kity_text_153" text-rendering="inherit" font-size="12" dy=".8em" y="238.70000004768372" x="584.5">ECMAScript5.1简介、浏览器支持、严格模式、JSON格式</text></g></g><g id="minder_node17"><g id="node_expander13" style="cursor: pointer;" display="none"><path id="kity_path_317" fill="white" stroke="gray" d="M579.5,272.5A6,6,0,1,1,567.5,272.5A6,6,0,1,1,579.5,272.5"></path><path id="kity_path_318" fill="none" stroke="gray"></path></g><path id="node_outline14" fill="none" stroke="none" d="M584.5,263.5h329a5,5,0,0,1,5,5v8a5,5,0,0,1,-5,5h-329a5,5,0,0,1,-5,-5v-8a5,5,0,0,1,5,-5z"></path><g id="node_text14" fill="black"><text id="kity_text_155" text-rendering="inherit" font-size="12" dy=".8em" y="264.7000000476837" x="584.5">额外的数据、Function.prototype.bind、JavaScript this使用</text></g></g><g id="minder_node18"><g id="node_expander14" style="cursor: pointer;" display="none"><path id="kity_path_320" fill="white" stroke="gray" d="M579.5,298.5A6,6,0,1,1,567.5,298.5A6,6,0,1,1,579.5,298.5"></path><path id="kity_path_321" fill="none" stroke="gray"></path></g><path id="node_outline15" fill="none" stroke="none" d="M584.5,289.5h263a5,5,0,0,1,5,5v8a5,5,0,0,1,-5,5h-263a5,5,0,0,1,-5,-5v-8a5,5,0,0,1,5,-5z"></path><g id="node_text15" fill="black"><text id="kity_text_157" text-rendering="inherit" font-size="12" dy=".8em" y="290.7000000476837" x="584.5">JavaScript作用域和闭包、按值传递和按引用传递</text></g></g><g id="minder_node19"><g id="node_expander16" style="cursor: pointer;" display="none"><path id="kity_path_326" fill="white" stroke="gray" d="M372.5,324.5A6,6,0,1,1,360.5,324.5A6,6,0,1,1,372.5,324.5"></path><path id="kity_path_327" fill="none" stroke="gray"></path></g><path id="node_outline17" fill="#00b0f0" stroke="none" d="M377.5,315.5h90a5,5,0,0,1,5,5v8a5,5,0,0,1,-5,5h-90a5,5,0,0,1,-5,-5v-8a5,5,0,0,1,5,-5z"></path><g id="node_text17" fill="black"><text id="kity_text_161" text-rendering="inherit" font-size="12" dy=".8em" y="316.7000000476837" x="377.5">JQuery技术内幕</text></g></g><g id="minder_node20"><g id="node_expander18" style="cursor: pointer;"><path id="kity_path_332" fill="white" stroke="gray" d="M372.5,350.5A6,6,0,1,1,360.5,350.5A6,6,0,1,1,372.5,350.5"></path><path id="kity_path_333" fill="none" stroke="gray" d="M362,350.5L371,350.5"></path></g><path id="node_outline19" fill="#00b0f0" stroke="none" d="M377.5,341.5h75a5,5,0,0,1,5,5v8a5,5,0,0,1,-5,5h-75a5,5,0,0,1,-5,-5v-8a5,5,0,0,1,5,-5z"></path><g id="node_text19" fill="black"><text id="kity_text_165" text-rendering="inherit" font-size="12" dy=".8em" y="342.7000000476837" x="377.5">ECMAScript6</text></g></g><g id="minder_node21"><g id="node_expander17" style="cursor: pointer;" display="none"><path id="kity_path_329" fill="white" stroke="gray" d="M473.5,350.5A6,6,0,1,1,461.5,350.5A6,6,0,1,1,473.5,350.5"></path><path id="kity_path_330" fill="none" stroke="gray"></path></g><path id="node_outline18" fill="none" stroke="none" d="M478.5,341.5h269a5,5,0,0,1,5,5v8a5,5,0,0,1,-5,5h-269a5,5,0,0,1,-5,-5v-8a5,5,0,0,1,5,-5z"></path><g id="node_text18" fill="black"><text id="kity_text_163" text-rendering="inherit" font-size="12" dy=".8em" y="342.7000000476837" x="478.5">ES6简介与环境搭建、ES6编程风格（上、中、下）</text></g></g><g id="minder_node22"><g id="node_expander23" style="cursor: pointer;"><path id="kity_path_347" fill="white" stroke="gray" d="M372.5,415.5A6,6,0,1,1,360.5,415.5A6,6,0,1,1,372.5,415.5"></path><path id="kity_path_348" fill="none" stroke="gray" d="M362,415.5L371,415.5"></path></g><path id="node_outline24" fill="#00b0f0" stroke="none" d="M377.5,406.5h119a5,5,0,0,1,5,5v8a5,5,0,0,1,-5,5h-119a5,5,0,0,1,-5,-5v-8a5,5,0,0,1,5,-5z"></path><g id="node_text24" fill="black"><text id="kity_text_175" text-rendering="inherit" font-size="12" dy=".8em" y="407.7000000476837" x="377.5">JavaScript语言新发展</text></g></g><g id="minder_node23"><g id="node_expander19" style="cursor: pointer;" display="none"><path id="kity_path_335" fill="white" stroke="gray" d="M517.5,376.5A6,6,0,1,1,505.5,376.5A6,6,0,1,1,517.5,376.5"></path><path id="kity_path_336" fill="none" stroke="gray"></path></g><path id="node_outline20" fill="none" stroke="none" d="M522.5,367.5h125a5,5,0,0,1,5,5v8a5,5,0,0,1,-5,5h-125a5,5,0,0,1,-5,-5v-8a5,5,0,0,1,5,-5z"></path><g id="node_text20" fill="black"><text id="kity_text_167" text-rendering="inherit" font-size="12" dy=".8em" y="368.7000000476837" x="522.5">JavaScript与QA工程师</text></g></g><g id="minder_node24"><g id="node_expander20" style="cursor: pointer;" display="none"><path id="kity_path_338" fill="white" stroke="gray" d="M517.5,402.5A6,6,0,1,1,505.5,402.5A6,6,0,1,1,517.5,402.5"></path><path id="kity_path_339" fill="none" stroke="gray"></path></g><path id="node_outline21" fill="none" stroke="none" d="M522.5,393.5h156a5,5,0,0,1,5,5v8a5,5,0,0,1,-5,5h-156a5,5,0,0,1,-5,-5v-8a5,5,0,0,1,5,-5z"></path><g id="node_text21" fill="black"><text id="kity_text_169" text-rendering="inherit" font-size="12" dy=".8em" y="394.7000000476837" x="522.5">JavaScript语言精粹（1、2）</text></g></g><g id="minder_node25"><g id="node_expander21" style="cursor: pointer;" display="none"><path id="kity_path_341" fill="white" stroke="gray" d="M517.5,428.5A6,6,0,1,1,505.5,428.5A6,6,0,1,1,517.5,428.5"></path><path id="kity_path_342" fill="none" stroke="gray"></path></g><path id="node_outline22" fill="none" stroke="none" d="M522.5,419.5h105a5,5,0,0,1,5,5v8a5,5,0,0,1,-5,5h-105a5,5,0,0,1,-5,-5v-8a5,5,0,0,1,5,-5z"></path><g id="node_text22" fill="black"><text id="kity_text_171" text-rendering="inherit" font-size="12" dy=".8em" y="420.7000000476837" x="522.5">ES6在企业中的应用</text></g></g><g id="minder_node26"><g id="node_expander22" style="cursor: pointer;" display="none"><path id="kity_path_344" fill="white" stroke="gray" d="M517.5,454.5A6,6,0,1,1,505.5,454.5A6,6,0,1,1,517.5,454.5"></path><path id="kity_path_345" fill="none" stroke="gray"></path></g><path id="node_outline23" fill="none" stroke="none" d="M522.5,445.5h107a5,5,0,0,1,5,5v8a5,5,0,0,1,-5,5h-107a5,5,0,0,1,-5,-5v-8a5,5,0,0,1,5,-5z"></path><g id="node_text23" fill="black"><text id="kity_text_173" text-rendering="inherit" font-size="12" dy=".8em" y="446.7000000476837" x="522.5">typescript前世今生</text></g></g><g id="minder_node27"><path id="kity_path_432" fill="rgba(0, 0, 0, .25)" stroke="none" d="M194.5,604.5h75a5,5,0,0,1,5,5v14a5,5,0,0,1,-5,5h-75a5,5,0,0,1,-5,-5v-14a5,5,0,0,1,5,-5z" display="none"></path><g id="node_expander43" style="cursor: pointer;"><path id="kity_path_407" fill="white" stroke="gray" d="M174.5,611.5A6,6,0,1,1,162.5,611.5A6,6,0,1,1,174.5,611.5"></path><path id="kity_path_408" fill="none" stroke="gray" d="M164,611.5L173,611.5"></path></g><path id="node_outline44" fill="rgb(246, 238, 238)" stroke="rgb(191, 115, 115)" d="M178.5,598.5h91a3,3,0,0,1,3,3v20a3,3,0,0,1,-3,3h-91a3,3,0,0,1,-3,-3v-20a3,3,0,0,1,3,-3z" stroke-width="1"></path><g id="node_text44" fill="black"><text id="kity_text_215" text-rendering="inherit" font-size="14" dy=".8em" y="602.4000000953674" x="195.5">后端基础</text></g></g><g id="minder_node28"><g id="node_expander32" style="cursor: pointer;"><path id="kity_path_374" fill="white" stroke="gray" d="M288.5,527.5A6,6,0,1,1,276.5,527.5A6,6,0,1,1,288.5,527.5"></path><path id="kity_path_375" fill="none" stroke="gray" d="M278,527.5L287,527.5"></path></g><path id="node_outline33" fill="none" stroke="none" d="M293.5,518.5h49a5,5,0,0,1,5,5v8a5,5,0,0,1,-5,5h-49a5,5,0,0,1,-5,-5v-8a5,5,0,0,1,5,-5z"></path><g id="node_text33" fill="black"><text id="kity_text_193" text-rendering="inherit" font-size="12" dy=".8em" y="519.7000000476837" x="293.5">后端语言</text></g></g><g id="minder_node29"><g id="node_expander26" style="cursor: pointer;" display="none"><path id="kity_path_356" fill="white" stroke="gray" d="M363.5,488.5A6,6,0,1,1,351.5,488.5A6,6,0,1,1,363.5,488.5"></path><path id="kity_path_357" fill="none" stroke="gray"></path></g><path id="node_outline27" fill="none" stroke="none" d="M368.5,479.5h121a5,5,0,0,1,5,5v8a5,5,0,0,1,-5,5h-121a5,5,0,0,1,-5,-5v-8a5,5,0,0,1,5,-5z"></path><g id="node_text27" fill="black"><text id="kity_text_181" text-rendering="inherit" font-size="12" dy=".8em" y="480.7000000476837" x="368.5">走近后端工程师的世界</text></g></g><g id="minder_node30"><g id="node_expander27" style="cursor: pointer;" display="none"><path id="kity_path_359" fill="white" stroke="gray" d="M363.5,514.5A6,6,0,1,1,351.5,514.5A6,6,0,1,1,363.5,514.5"></path><path id="kity_path_360" fill="none" stroke="gray"></path></g><path id="node_outline28" fill="none" stroke="none" d="M368.5,505.5h96a5,5,0,0,1,5,5v8a5,5,0,0,1,-5,5h-96a5,5,0,0,1,-5,-5v-8a5,5,0,0,1,5,-5z"></path><g id="node_text28" fill="black"><text id="kity_text_183" text-rendering="inherit" font-size="12" dy=".8em" y="506.7000000476837" x="368.5">常用后端语言介绍</text></g></g><g id="minder_node31"><g id="node_expander31" style="cursor: pointer;"><path id="kity_path_371" fill="white" stroke="gray" d="M363.5,566.5A6,6,0,1,1,351.5,566.5A6,6,0,1,1,363.5,566.5"></path><path id="kity_path_372" fill="none" stroke="gray" d="M353,566.5L362,566.5"></path></g><path id="node_outline32" fill="none" stroke="none" d="M368.5,557.5h25a5,5,0,0,1,5,5v8a5,5,0,0,1,-5,5h-25a5,5,0,0,1,-5,-5v-8a5,5,0,0,1,5,-5z"></path><g id="node_text32" fill="black"><text id="kity_text_191" text-rendering="inherit" font-size="12" dy=".8em" y="558.7000000476837" x="368.5">PHP</text></g></g><g id="minder_node32"><g id="node_expander28" style="cursor: pointer;" display="none"><path id="kity_path_362" fill="white" stroke="gray" d="M414.5,540.5A6,6,0,1,1,402.5,540.5A6,6,0,1,1,414.5,540.5"></path><path id="kity_path_363" fill="none" stroke="gray"></path></g><path id="node_outline29" fill="none" stroke="none" d="M419.5,531.5h462a5,5,0,0,1,5,5v8a5,5,0,0,1,-5,5h-462a5,5,0,0,1,-5,-5v-8a5,5,0,0,1,5,-5z"></path><g id="node_text29" fill="black"><text id="kity_text_185" text-rendering="inherit" font-size="12" dy=".8em" y="532.7000000476837" x="419.5">初识PHP、PHP基础操作、初识phpMyAdmin、PHP与MySQL、PHP与MySQL小实战</text></g></g><g id="minder_node33"><g id="node_expander29" style="cursor: pointer;" display="none"><path id="kity_path_365" fill="white" stroke="gray" d="M414.5,566.5A6,6,0,1,1,402.5,566.5A6,6,0,1,1,414.5,566.5"></path><path id="kity_path_366" fill="none" stroke="gray"></path></g><path id="node_outline30" fill="none" stroke="none" d="M419.5,557.5h492a5,5,0,0,1,5,5v8a5,5,0,0,1,-5,5h-492a5,5,0,0,1,-5,-5v-8a5,5,0,0,1,5,-5z"></path><g id="node_text30" fill="black"><text id="kity_text_187" text-rendering="inherit" font-size="12" dy=".8em" y="558.7000000476837" x="419.5">PHP面向对象的介绍、PHP面向对象之封装、PHP面向对象之继承和多态、PHP抽象类与接口</text></g></g><g id="minder_node34"><g id="node_expander30" style="cursor: pointer;" display="none"><path id="kity_path_368" fill="white" stroke="gray" d="M414.5,592.5A6,6,0,1,1,402.5,592.5A6,6,0,1,1,414.5,592.5"></path><path id="kity_path_369" fill="none" stroke="gray"></path></g><path id="node_outline31" fill="none" stroke="none" d="M419.5,583.5h322a5,5,0,0,1,5,5v8a5,5,0,0,1,-5,5h-322a5,5,0,0,1,-5,-5v-8a5,5,0,0,1,5,-5z"></path><g id="node_text31" fill="black"><text id="kity_text_189" text-rendering="inherit" font-size="12" dy=".8em" y="584.7000000476837" x="419.5">PHP常见关键字、PHP错误处理类、PHP和JavaScript的比较</text></g></g><g id="minder_node35"><g id="node_expander42" style="cursor: pointer;"><path id="kity_path_404" fill="white" stroke="gray" d="M288.5,696.5A6,6,0,1,1,276.5,696.5A6,6,0,1,1,288.5,696.5"></path><path id="kity_path_405" fill="none" stroke="gray" d="M278,696.5L287,696.5"></path></g><path id="node_outline43" fill="none" stroke="none" d="M293.5,687.5h50a5,5,0,0,1,5,5v8a5,5,0,0,1,-5,5h-50a5,5,0,0,1,-5,-5v-8a5,5,0,0,1,5,-5z"></path><g id="node_text43" fill="black"><text id="kity_text_213" text-rendering="inherit" font-size="12" dy=".8em" y="688.7000000476837" x="293.5">操作系统</text></g></g><g id="minder_node36"><g id="node_expander33" style="cursor: pointer;" display="none"><path id="kity_path_377" fill="white" stroke="gray" d="M364.5,618.5A6,6,0,1,1,352.5,618.5A6,6,0,1,1,364.5,618.5"></path><path id="kity_path_378" fill="none" stroke="gray"></path></g><path id="node_outline34" fill="none" stroke="none" d="M369.5,609.5h73a5,5,0,0,1,5,5v8a5,5,0,0,1,-5,5h-73a5,5,0,0,1,-5,-5v-8a5,5,0,0,1,5,-5z"></path><g id="node_text34" fill="black"><text id="kity_text_195" text-rendering="inherit" font-size="12" dy=".8em" y="610.7000000476837" x="369.5">工具：虚拟机</text></g></g><g id="minder_node37"><g id="node_expander39" style="cursor: pointer;"><path id="kity_path_395" fill="white" stroke="gray" d="M364.5,696.5A6,6,0,1,1,352.5,696.5A6,6,0,1,1,364.5,696.5"></path><path id="kity_path_396" fill="none" stroke="gray" d="M354,696.5L363,696.5"></path></g><path id="node_outline40" fill="none" stroke="none" d="M369.5,687.5h31a5,5,0,0,1,5,5v8a5,5,0,0,1,-5,5h-31a5,5,0,0,1,-5,-5v-8a5,5,0,0,1,5,-5z"></path><g id="node_text40" fill="black"><text id="kity_text_207" text-rendering="inherit" font-size="12" dy=".8em" y="688.7000000476837" x="369.5">Linux</text></g></g><g id="minder_node38"><g id="node_expander34" style="cursor: pointer;" display="none"><path id="kity_path_380" fill="white" stroke="gray" d="M421.5,644.5A6,6,0,1,1,409.5,644.5A6,6,0,1,1,421.5,644.5"></path><path id="kity_path_381" fill="none" stroke="gray"></path></g><path id="node_outline35" fill="none" stroke="none" d="M426.5,635.5h102a5,5,0,0,1,5,5v8a5,5,0,0,1,-5,5h-102a5,5,0,0,1,-5,-5v-8a5,5,0,0,1,5,-5z"></path><g id="node_text35" fill="black"><text id="kity_text_197" text-rendering="inherit" font-size="12" dy=".8em" y="636.7000000476837" x="426.5">Linux操作系统介绍</text></g></g><g id="minder_node39"><g id="node_expander35" style="cursor: pointer;" display="none"><path id="kity_path_383" fill="white" stroke="gray" d="M421.5,670.5A6,6,0,1,1,409.5,670.5A6,6,0,1,1,421.5,670.5"></path><path id="kity_path_384" fill="none" stroke="gray"></path></g><path id="node_outline36" fill="none" stroke="none" d="M426.5,661.5h151a5,5,0,0,1,5,5v8a5,5,0,0,1,-5,5h-151a5,5,0,0,1,-5,-5v-8a5,5,0,0,1,5,-5z"></path><g id="node_text36" fill="black"><text id="kity_text_199" text-rendering="inherit" font-size="12" dy=".8em" y="662.7000000476837" x="426.5">Linux和虚拟机基本安装步骤</text></g></g><g id="minder_node40"><g id="node_expander36" style="cursor: pointer;" display="none"><path id="kity_path_386" fill="white" stroke="gray" d="M421.5,696.5A6,6,0,1,1,409.5,696.5A6,6,0,1,1,421.5,696.5"></path><path id="kity_path_387" fill="none" stroke="gray"></path></g><path id="node_outline37" fill="none" stroke="none" d="M426.5,687.5h102a5,5,0,0,1,5,5v8a5,5,0,0,1,-5,5h-102a5,5,0,0,1,-5,-5v-8a5,5,0,0,1,5,-5z"></path><g id="node_text37" fill="black"><text id="kity_text_201" text-rendering="inherit" font-size="12" dy=".8em" y="688.7000000476837" x="426.5">Cygwin安装和使用</text></g></g><g id="minder_node41"><g id="node_expander37" style="cursor: pointer;" display="none"><path id="kity_path_389" fill="white" stroke="gray" d="M421.5,722.5A6,6,0,1,1,409.5,722.5A6,6,0,1,1,421.5,722.5"></path><path id="kity_path_390" fill="none" stroke="gray"></path></g><path id="node_outline38" fill="none" stroke="none" d="M426.5,713.5h186a5,5,0,0,1,5,5v8a5,5,0,0,1,-5,5h-186a5,5,0,0,1,-5,-5v-8a5,5,0,0,1,5,-5z"></path><g id="node_text38" fill="black"><text id="kity_text_203" text-rendering="inherit" font-size="12" dy=".8em" y="714.7000000476837" x="426.5">Linux的安装和基本命令（补充版）</text></g></g><g id="minder_node42"><g id="node_expander38" style="cursor: pointer;" display="none"><path id="kity_path_392" fill="white" stroke="gray" d="M421.5,748.5A6,6,0,1,1,409.5,748.5A6,6,0,1,1,421.5,748.5"></path><path id="kity_path_393" fill="none" stroke="gray"></path></g><path id="node_outline39" fill="none" stroke="none" d="M426.5,739.5h149a5,5,0,0,1,5,5v8a5,5,0,0,1,-5,5h-149a5,5,0,0,1,-5,-5v-8a5,5,0,0,1,5,-5z"></path><g id="node_text39" fill="black"><text id="kity_text_205" text-rendering="inherit" font-size="12" dy=".8em" y="740.7000000476837" x="426.5">Web服务器基础原理和概念</text></g></g><g id="minder_node43"><g id="node_expander41" style="cursor: pointer;"><path id="kity_path_401" fill="white" stroke="gray" d="M364.5,774.5A6,6,0,1,1,352.5,774.5A6,6,0,1,1,364.5,774.5"></path><path id="kity_path_402" fill="none" stroke="gray" d="M354,774.5L363,774.5"></path></g><path id="node_outline42" fill="none" stroke="none" d="M369.5,765.5h55a5,5,0,0,1,5,5v8a5,5,0,0,1,-5,5h-55a5,5,0,0,1,-5,-5v-8a5,5,0,0,1,5,-5z"></path><g id="node_text42" fill="black"><text id="kity_text_211" text-rendering="inherit" font-size="12" dy=".8em" y="766.7000000476837" x="369.5">Windows</text></g></g><g id="minder_node44"><g id="node_expander40" style="cursor: pointer;" display="none"><path id="kity_path_398" fill="white" stroke="gray" d="M445.5,774.5A6,6,0,1,1,433.5,774.5A6,6,0,1,1,445.5,774.5"></path><path id="kity_path_399" fill="none" stroke="gray"></path></g><path id="node_outline41" fill="none" stroke="none" d="M450.5,765.5h114a5,5,0,0,1,5,5v8a5,5,0,0,1,-5,5h-114a5,5,0,0,1,-5,-5v-8a5,5,0,0,1,5,-5z"></path><g id="node_text41" fill="black"><text id="kity_text_209" text-rendering="inherit" font-size="12" dy=".8em" y="766.7000000476837" x="450.5">Windows命令行入门</text></g></g><g id="minder_node45"><path id="kity_path_433" fill="rgba(0, 0, 0, .25)" stroke="none" d="M194.5,852.5h59a5,5,0,0,1,5,5v14a5,5,0,0,1,-5,5h-59a5,5,0,0,1,-5,-5v-14a5,5,0,0,1,5,-5z" display="none"></path><g id="node_expander50" style="cursor: pointer;"><path id="kity_path_428" fill="white" stroke="gray" d="M174.5,859.5A6,6,0,1,1,162.5,859.5A6,6,0,1,1,174.5,859.5"></path><path id="kity_path_429" fill="none" stroke="gray" d="M164,859.5L173,859.5"></path></g><path id="node_outline51" fill="rgb(246, 238, 238)" stroke="rgb(191, 115, 115)" d="M178.5,846.5h77a3,3,0,0,1,3,3v20a3,3,0,0,1,-3,3h-77a3,3,0,0,1,-3,-3v-20a3,3,0,0,1,3,-3z" stroke-width="1"></path><g id="node_text51" fill="black"><text id="kity_text_229" text-rendering="inherit" font-size="14" dy=".8em" y="850.4000000953674" x="195.5">数据库</text></g></g><g id="minder_node46"><g id="node_expander49" style="cursor: pointer;"><path id="kity_path_425" fill="white" stroke="gray" d="M274.5,859.5A6,6,0,1,1,262.5,859.5A6,6,0,1,1,274.5,859.5"></path><path id="kity_path_426" fill="none" stroke="gray" d="M264,859.5L273,859.5"></path></g><path id="node_outline50" fill="none" stroke="none" d="M279.5,850.5h42a5,5,0,0,1,5,5v8a5,5,0,0,1,-5,5h-42a5,5,0,0,1,-5,-5v-8a5,5,0,0,1,5,-5z"></path><g id="node_text50" fill="black"><text id="kity_text_227" text-rendering="inherit" font-size="12" dy=".8em" y="851.7000000476837" x="279.5">MySQL</text></g></g><g id="minder_node47"><g id="node_expander44" style="cursor: pointer;" display="none"><path id="kity_path_410" fill="white" stroke="gray" d="M342.5,807.5A6,6,0,1,1,330.5,807.5A6,6,0,1,1,342.5,807.5"></path><path id="kity_path_411" fill="none" stroke="gray"></path></g><path id="node_outline45" fill="none" stroke="none" d="M347.5,798.5h137a5,5,0,0,1,5,5v8a5,5,0,0,1,-5,5h-137a5,5,0,0,1,-5,-5v-8a5,5,0,0,1,5,-5z"></path><g id="node_text45" fill="black"><text id="kity_text_217" text-rendering="inherit" font-size="12" dy=".8em" y="799.7000000476837" x="347.5">MySQL数据库客户端基础</text></g></g><g id="minder_node48"><g id="node_expander45" style="cursor: pointer;" display="none"><path id="kity_path_413" fill="white" stroke="gray" d="M342.5,833.5A6,6,0,1,1,330.5,833.5A6,6,0,1,1,342.5,833.5"></path><path id="kity_path_414" fill="none" stroke="gray"></path></g><path id="node_outline46" fill="none" stroke="none" d="M347.5,824.5h78a5,5,0,0,1,5,5v8a5,5,0,0,1,-5,5h-78a5,5,0,0,1,-5,-5v-8a5,5,0,0,1,5,-5z"></path><g id="node_text46" fill="black"><text id="kity_text_219" text-rendering="inherit" font-size="12" dy=".8em" y="825.7000000476837" x="347.5">MySQL创建表</text></g></g><g id="minder_node49"><g id="node_expander46" style="cursor: pointer;" display="none"><path id="kity_path_416" fill="white" stroke="gray" d="M342.5,859.5A6,6,0,1,1,330.5,859.5A6,6,0,1,1,342.5,859.5"></path><path id="kity_path_417" fill="none" stroke="gray"></path></g><path id="node_outline47" fill="none" stroke="none" d="M347.5,850.5h124a5,5,0,0,1,5,5v8a5,5,0,0,1,-5,5h-124a5,5,0,0,1,-5,-5v-8a5,5,0,0,1,5,-5z"></path><g id="node_text47" fill="black"><text id="kity_text_221" text-rendering="inherit" font-size="12" dy=".8em" y="851.7000000476837" x="347.5">MySQL函数与SQL语句</text></g></g><g id="minder_node50"><g id="node_expander47" style="cursor: pointer;" display="none"><path id="kity_path_419" fill="white" stroke="gray" d="M342.5,885.5A6,6,0,1,1,330.5,885.5A6,6,0,1,1,342.5,885.5"></path><path id="kity_path_420" fill="none" stroke="gray"></path></g><path id="node_outline48" fill="none" stroke="none" d="M347.5,876.5h89a5,5,0,0,1,5,5v8a5,5,0,0,1,-5,5h-89a5,5,0,0,1,-5,-5v-8a5,5,0,0,1,5,-5z"></path><g id="node_text48" fill="black"><text id="kity_text_223" text-rendering="inherit" font-size="12" dy=".8em" y="877.7000000476837" x="347.5">MySQL条件查询</text></g></g><g id="minder_node51"><g id="node_expander48" style="cursor: pointer;" display="none"><path id="kity_path_422" fill="white" stroke="gray" d="M342.5,911.5A6,6,0,1,1,330.5,911.5A6,6,0,1,1,342.5,911.5"></path><path id="kity_path_423" fill="none" stroke="gray"></path></g><path id="node_outline49" fill="none" stroke="none" d="M347.5,902.5h113a5,5,0,0,1,5,5v8a5,5,0,0,1,-5,5h-113a5,5,0,0,1,-5,-5v-8a5,5,0,0,1,5,-5z"></path><g id="node_text49" fill="black"><text id="kity_text_225" text-rendering="inherit" font-size="12" dy=".8em" y="903.7000000476837" x="347.5">MySQL复杂条件查询</text></g></g></g></g></svg>